<svg width="66" height="70" viewBox="0 0 66 70" fill="none" xmlns="http://www.w3.org/2000/svg">
    <rect x="0.999969" y="-7.62939e-06" width="65" height="65" rx="32.5" fill="#12122E"/>
    <g opacity="0.8" filter="url(#filter0_di_1_398)">
        <path d="M39.5554 25.4662L39.5554 25.4663C39.0053 26.0267 39.0053 26.9322 39.5554 27.4926C41.3646 29.3359 42.3614 31.7863 42.3614 34.3962C42.3614 37.006 41.3646 39.4563 39.5554 41.2994L39.5554 41.2994C37.6894 43.2006 35.2406 44.15 32.7909 44.1498C30.3411 44.1496 27.8911 43.1999 26.0249 41.2986C22.2905 37.4939 22.2908 31.2992 26.0256 27.4942C26.5756 26.9338 26.5757 26.0281 26.0255 25.4678C25.4714 24.9033 24.5702 24.9034 24.0161 25.4678L24.016 25.4678C19.1826 30.3922 19.1822 38.4009 24.0154 43.3251C26.434 45.7892 29.6124 47.0222 32.791 47.0221C35.9688 47.0219 39.1472 45.7893 41.565 43.3259C43.9068 40.9402 45.196 37.7675 45.196 34.3964C45.1961 31.0251 43.9068 27.8523 41.5649 25.4663C41.0108 24.9018 40.1096 24.9018 39.5554 25.4662Z" fill="white" stroke="white" stroke-width="0.783505"/>
        <path d="M32.7933 32.8916C33.1465 32.8916 33.4304 32.6921 33.6109 32.4412C33.7919 32.1898 33.8916 31.8622 33.8916 31.5182V20.7641C33.8916 20.4202 33.7919 20.0926 33.6109 19.8412C33.4304 19.5903 33.1465 19.3907 32.7933 19.3907C32.4402 19.3907 32.1563 19.5903 31.9758 19.8412C31.7948 20.0926 31.6951 20.4202 31.6951 20.7641V31.5182C31.6951 31.8622 31.7948 32.1898 31.9758 32.4413C32.1563 32.6921 32.4402 32.8916 32.7933 32.8916Z" fill="white" stroke="white" stroke-width="0.783505"/>
    </g>
    <defs>
        <filter id="filter0_di_1_398" x="-0.0010376" y="0.998993" width="65.5888" height="68.4148" filterUnits="userSpaceOnUse" color-interpolation-filters="sRGB">
            <feFlood flood-opacity="0" result="BackgroundImageFix"/>
            <feColorMatrix in="SourceAlpha" type="matrix" values="0 0 0 0 0 0 0 0 0 0 0 0 0 0 0 0 0 0 127 0" result="hardAlpha"/>
            <feOffset dy="2"/>
            <feGaussianBlur stdDeviation="10"/>
            <feComposite in2="hardAlpha" operator="out"/>
            <feColorMatrix type="matrix" values="0 0 0 0 0.321569 0 0 0 0 0.47451 0 0 0 0 0.796078 0 0 0 1 0"/>
            <feBlend mode="normal" in2="BackgroundImageFix" result="effect1_dropShadow_1_398"/>
            <feBlend mode="normal" in="SourceGraphic" in2="effect1_dropShadow_1_398" result="shape"/>
            <feColorMatrix in="SourceAlpha" type="matrix" values="0 0 0 0 0 0 0 0 0 0 0 0 0 0 0 0 0 0 127 0" result="hardAlpha"/>
            <feOffset dy="4"/>
            <feGaussianBlur stdDeviation="2"/>
            <feComposite in2="hardAlpha" operator="arithmetic" k2="-1" k3="1"/>
            <feColorMatrix type="matrix" values="0 0 0 0 0.579167 0 0 0 0 0.307441 0 0 0 0 0.568298 0 0 0 0.2 0"/>
            <feBlend mode="normal" in2="shape" result="effect2_innerShadow_1_398"/>
        </filter>
    </defs>
</svg>
