<svg width="25" height="25" viewBox="0 0 25 25" fill="none" xmlns="http://www.w3.org/2000/svg">
    <path d="M20.625 12.5C20.6226 10.3465 19.7662 8.28176 18.2437 6.75866C16.7212 5.23555 14.6568 4.37837 12.5033 4.37507L12.5 4.37221L12.4967 4.37507C10.3427 4.37639 8.27739 5.23299 6.75475 6.75657C5.2321 8.28014 4.37677 10.346 4.37675 12.5C4.37674 14.654 5.23206 16.7198 6.75469 18.2434C8.27732 19.767 10.3426 20.6236 12.4966 20.625L12.5 20.6279L12.5034 20.625C14.6569 20.6217 16.7213 19.7645 18.2437 18.2414C19.7662 16.7183 20.6226 14.6536 20.625 12.5ZM19.3463 11.875H16.2328C16.1084 9.55964 15.2944 7.42053 13.9277 5.77453C15.3629 6.08169 16.6625 6.83911 17.6372 7.93643C18.6118 9.03375 19.2106 10.4136 19.3463 11.875ZM10.0202 13.125H14.9798C14.8384 15.3716 13.9412 17.4768 12.5 18.9408C11.0588 17.4768 10.1616 15.3716 10.0202 13.125ZM10.0202 11.875C10.1616 9.6284 11.0588 7.52319 12.5 6.0593C13.9412 7.52319 14.8384 9.62841 14.9798 11.875L10.0202 11.875ZM13.9277 19.2255C15.2943 17.5795 16.1084 15.4403 16.2328 13.125H19.3463C19.2106 14.5864 18.6118 15.9663 17.6371 17.0636C16.6625 18.161 15.3629 18.9184 13.9277 19.2255Z" fill="#EA49A0"/>
</svg>
