<svg width="20" height="20" viewBox="0 0 20 20" fill="none" xmlns="http://www.w3.org/2000/svg">
    <path fill-rule="evenodd" clip-rule="evenodd" d="M17 0C18.5977 0 19.9037 1.24892 19.9949 2.82373L20 3V17C20 18.5977 18.7511 19.9037 17.1763 19.9949L17 20H3C1.40232 20 0.0963391 18.7511 0.00509269 17.1763L0 17V3C0 1.40232 1.24892 0.0963391 2.82373 0.00509269L3 0H17ZM9 2H3C2.48716 2 2.06449 2.49634 2.00673 3.13577L2 3.28571V9H3C3.55228 9 4 9.44771 4 10C4 10.5523 3.55228 11 3 11H2V17C2 17.5128 2.49634 17.9355 3.13577 17.9933L3.28571 18H9V17C9 16.4477 9.44771 16 10 16C10.5523 16 11 16.4477 11 17V18H17C17.5128 18 17.9355 17.614 17.9933 17.1166L18 17V11H17C16.4477 11 16 10.5523 16 10C16 9.44771 16.4477 9 17 9H18V3.28571C18 2.62635 17.5037 2.08292 16.8642 2.00865L16.7143 2H11V3C11 3.55228 10.5523 4 10 4C9.44771 4 9 3.55228 9 3V2ZM10 7C10.5128 7 10.9355 7.38604 10.9933 7.88338L11 8V9H12C12.5523 9 13 9.44771 13 10C13 10.5128 12.614 10.9355 12.1166 10.9933L12 11H11V12C11 12.5523 10.5523 13 10 13C9.48716 13 9.06449 12.614 9.00673 12.1166L9 12V11H8C7.44772 11 7 10.5523 7 10C7 9.48716 7.38604 9.06449 7.88338 9.00673L8 9H9V8C9 7.44772 9.44771 7 10 7Z" fill="#6B7DEB"/>
</svg>
