<svg width="25" height="25" viewBox="0 0 25 25" fill="none" xmlns="http://www.w3.org/2000/svg">
    <path d="M19.3585 11.7316C19.335 11.6315 19.2872 11.5388 19.2194 11.4617C19.1515 11.3845 19.0657 11.3253 18.9695 11.2892L14.4671 9.6008L15.6129 3.87196C15.6396 3.73862 15.622 3.60022 15.5629 3.47776C15.5038 3.35529 15.4064 3.25544 15.2854 3.19336C15.1644 3.13127 15.0265 3.11033 14.8925 3.13372C14.7586 3.15711 14.6359 3.22354 14.5431 3.32295L5.79309 12.698C5.72298 12.7731 5.67247 12.8643 5.64604 12.9636C5.6196 13.0629 5.61806 13.1672 5.64154 13.2672C5.66502 13.3673 5.7128 13.46 5.78066 13.5371C5.84851 13.6143 5.93435 13.6735 6.03056 13.7096L10.5329 15.398L9.38715 21.1268C9.36047 21.2602 9.37801 21.3986 9.43712 21.5211C9.49622 21.6435 9.59365 21.7434 9.71464 21.8055C9.83563 21.8676 9.97357 21.8885 10.1075 21.8651C10.2415 21.8417 10.3642 21.7753 10.4569 21.6758L19.2069 12.3008C19.2771 12.2257 19.3276 12.1345 19.354 12.0352C19.3804 11.9359 19.382 11.8316 19.3585 11.7316Z" fill="#F2AC6C"/>
</svg>
