<svg width="20" height="20" viewBox="0 0 20 20" fill="none" xmlns="http://www.w3.org/2000/svg">
    <path d="M17.4766 4.14782C17.2228 4.03125 16.9434 4.00061 16.6738 4.0598C16.4042 4.11899 16.1566 4.26534 15.9627 4.48021L14.1669 6.46075L10.9821 2.94847C10.7217 2.66132 10.3685 2.5 10.0002 2.5C9.63192 2.5 9.27871 2.66132 9.01826 2.94847L5.83354 6.46075L4.0377 4.48021C3.84347 4.26606 3.59602 4.12023 3.32664 4.06115C3.05726 4.00208 2.77804 4.03241 2.52429 4.14832C2.27054 4.26423 2.05365 4.4605 1.90103 4.71233C1.74842 4.96417 1.66693 5.26025 1.66687 5.56315V13.6707C1.66797 14.6859 2.03415 15.6592 2.68508 16.3771C3.33601 17.0949 4.21854 17.4988 5.13909 17.5H14.8613C15.7819 17.4988 16.6644 17.0949 17.3153 16.3771C17.9663 15.6592 18.3324 14.6859 18.3335 13.6707V5.56315C18.3336 5.26023 18.2522 4.96408 18.0997 4.71216C17.9472 4.46023 17.7303 4.26385 17.4766 4.14782Z" fill="url(#paint0_linear_79_332)"/>
    <defs>
        <linearGradient id="paint0_linear_79_332" x1="-4.58313" y1="-1.25" x2="23.3335" y2="22.9167" gradientUnits="userSpaceOnUse">
            <stop stop-color="#232D75"/>
            <stop offset="1" stop-color="#6B7DEB"/>
        </linearGradient>
    </defs>
</svg>
