<svg width="20" height="20" viewBox="0 0 20 20" fill="none" xmlns="http://www.w3.org/2000/svg">
    <g clip-path="url(#clip0_79_340)">
        <path d="M9.99996 5C9.77895 5 9.56698 5.0878 9.4107 5.24408C9.25442 5.40036 9.16663 5.61232 9.16663 5.83333V10C9.16667 10.221 9.2545 10.4329 9.41079 10.5892L11.9108 13.0892C12.068 13.241 12.2785 13.325 12.497 13.3231C12.7155 13.3212 12.9245 13.2335 13.079 13.079C13.2335 12.9245 13.3211 12.7155 13.323 12.497C13.3249 12.2785 13.2409 12.068 13.0891 11.9108L10.8333 9.655V5.83333C10.8333 5.61232 10.7455 5.40036 10.5892 5.24408C10.4329 5.0878 10.221 5 9.99996 5Z" fill="#6B7DEB"/>
        <path d="M19.8436 8.44333C19.5576 6.63153 18.7787 4.93331 17.5922 3.53447C16.4058 2.13563 14.8574 1.09006 13.1166 0.512166C11.3757 -0.0657305 9.5095 -0.153693 7.72203 0.257902C5.93457 0.669496 4.29474 1.56479 2.98196 2.84583V0.833333C2.98196 0.61232 2.89416 0.400358 2.73788 0.244078C2.5816 0.0877974 2.36964 0 2.14862 0C1.92761 0 1.71565 0.0877974 1.55937 0.244078C1.40309 0.400358 1.31529 0.61232 1.31529 0.833333V4.16667C1.31529 4.60869 1.49089 5.03262 1.80345 5.34518C2.11601 5.65774 2.53993 5.83333 2.98196 5.83333H6.31529C6.5363 5.83333 6.74827 5.74554 6.90455 5.58926C7.06083 5.43298 7.14862 5.22101 7.14862 5C7.14862 4.77899 7.06083 4.56703 6.90455 4.41074C6.74827 4.25446 6.5363 4.16667 6.31529 4.16667H4.02279C5.35446 2.81469 7.10806 1.95825 8.99305 1.73924C10.878 1.52024 12.7813 1.9518 14.3875 2.96245C15.9936 3.97309 17.2063 5.50214 17.8246 7.29628C18.4429 9.09041 18.4296 11.0419 17.7871 12.8275C17.1445 14.6131 15.9112 16.1255 14.2914 17.1143C12.6717 18.1031 10.7628 18.5088 8.88093 18.2642C6.99908 18.0196 5.25727 17.1395 3.94407 15.7696C2.63087 14.3996 1.82511 12.6222 1.66029 10.7317C1.63868 10.5285 1.54188 10.3408 1.38891 10.2054C1.23595 10.0701 1.03788 9.99677 0.833624 10C0.717079 10.0003 0.601876 10.0249 0.495356 10.0722C0.388836 10.1195 0.293335 10.1884 0.214938 10.2747C0.13654 10.3609 0.0769659 10.4625 0.0400099 10.5731C0.00305396 10.6836 -0.010473 10.8006 0.00029082 10.9167C0.13207 12.2445 0.528271 13.5326 1.16555 14.7049C1.80283 15.8773 2.6683 16.9103 3.71098 17.743C4.75365 18.5757 5.95243 19.1913 7.2367 19.5536C8.52097 19.9158 9.86476 20.0174 11.1889 19.8522C12.513 19.6871 13.7907 19.2586 14.9467 18.5921C16.1026 17.9255 17.1135 17.0344 17.9197 15.9711C18.726 14.9078 19.3113 13.6939 19.6411 12.4009C19.9709 11.108 20.0387 9.76205 19.8403 8.4425L19.8436 8.44333Z" fill="#6B7DEB"/>
    </g>
    <defs>
        <clipPath id="clip0_79_340">
            <rect width="20" height="20" fill="white"/>
        </clipPath>
    </defs>
</svg>
