<svg width="128" height="128" viewBox="0 0 128 128" fill="none" xmlns="http://www.w3.org/2000/svg">
    <mask id="path-1-inside-1_1_352" fill="white">
        <path d="M75.5798 126C62.334 126 49.7266 117.824 44.939 104.679C38.8747 87.847 47.4924 69.2514 64.4086 62.9995C72.5476 59.9536 81.4845 60.4346 89.3043 64.1216C97.1241 67.8087 103.188 74.2209 106.061 82.3966C112.125 99.2288 103.508 117.824 86.5913 124.076C83.0804 125.359 79.2503 126 75.5798 126ZM75.5798 62.6788C72.0688 62.6788 68.3983 63.3201 65.047 64.6025C48.9287 70.3736 40.6301 88.1676 46.5349 104.198C52.4396 120.229 70.1538 128.405 86.2721 122.634C94.0919 119.748 100.316 114.137 103.667 106.603C107.178 99.0685 107.497 90.7325 104.625 83.0378C101.752 75.3431 96.1665 69.0911 88.6659 65.5644C84.5167 63.6407 80.0482 62.6788 75.5798 62.6788Z"/>
    </mask>
    <path d="M75.5798 126C62.334 126 49.7266 117.824 44.939 104.679C38.8747 87.847 47.4924 69.2514 64.4086 62.9995C72.5476 59.9536 81.4845 60.4346 89.3043 64.1216C97.1241 67.8087 103.188 74.2209 106.061 82.3966C112.125 99.2288 103.508 117.824 86.5913 124.076C83.0804 125.359 79.2503 126 75.5798 126ZM75.5798 62.6788C72.0688 62.6788 68.3983 63.3201 65.047 64.6025C48.9287 70.3736 40.6301 88.1676 46.5349 104.198C52.4396 120.229 70.1538 128.405 86.2721 122.634C94.0919 119.748 100.316 114.137 103.667 106.603C107.178 99.0685 107.497 90.7325 104.625 83.0378C101.752 75.3431 96.1665 69.0911 88.6659 65.5644C84.5167 63.6407 80.0482 62.6788 75.5798 62.6788Z" fill="url(#paint0_linear_1_352)"/>
    <path d="M44.939 104.679L42.1166 105.696L42.1201 105.706L44.939 104.679ZM64.4086 62.9995L65.4486 65.8134L65.4601 65.8092L64.4086 62.9995ZM106.061 82.3966L103.231 83.391L103.235 83.4022L103.239 83.4134L106.061 82.3966ZM86.5913 124.076L87.6206 126.894L87.6313 126.89L86.5913 124.076ZM65.047 64.6025L66.0583 67.4269L66.0888 67.416L66.1192 67.4044L65.047 64.6025ZM86.2721 122.634L87.2834 125.458L87.297 125.453L87.3107 125.448L86.2721 122.634ZM103.667 106.603L100.948 105.336L100.937 105.36L100.926 105.384L103.667 106.603ZM88.6659 65.5644L89.9424 62.8495L89.9351 62.846L89.9278 62.8426L88.6659 65.5644ZM75.5798 123C63.5349 123 52.0937 115.557 47.7578 103.653L42.1201 105.706C47.3595 120.091 61.1331 129 75.5798 129V123ZM47.7614 103.662C42.2565 88.3829 50.0744 71.4955 65.4486 65.8134L63.3687 60.1855C44.9103 67.0074 35.4928 87.3111 42.1166 105.696L47.7614 103.662ZM65.4601 65.8092C72.8163 63.0563 80.9131 63.4819 88.0249 66.8351L90.5837 61.4081C82.0559 57.3872 72.2789 56.851 63.3572 60.1898L65.4601 65.8092ZM88.0249 66.8351C95.1666 70.2024 100.641 76.0216 103.231 83.391L108.891 81.4021C105.735 72.4202 99.0816 65.4149 90.5837 61.4081L88.0249 66.8351ZM103.239 83.4134C108.743 98.6928 100.926 115.58 85.5513 121.262L87.6313 126.89C106.09 120.068 115.507 99.7647 108.883 81.3797L103.239 83.4134ZM85.562 121.258C82.3959 122.415 78.9155 123 75.5798 123V129C79.585 129 83.7649 128.303 87.6206 126.894L85.562 121.258ZM75.5798 59.6788C71.7191 59.6788 67.6838 60.3814 63.9748 61.8007L66.1192 67.4044C69.1129 66.2588 72.4186 65.6788 75.5798 65.6788V59.6788ZM64.0357 61.7781C46.3475 68.1112 37.2386 87.6397 43.7198 105.235L49.35 103.161C44.0216 88.6955 51.5098 72.6359 66.0583 67.4269L64.0357 61.7781ZM43.7198 105.235C50.1998 122.828 69.6325 131.778 87.2834 125.458L85.2609 119.809C70.6751 125.031 54.6794 117.63 49.35 103.161L43.7198 105.235ZM87.3107 125.448C95.8439 122.299 102.708 116.14 106.408 107.822L100.926 105.384C97.9232 112.135 92.3399 117.197 85.2336 119.819L87.3107 125.448ZM106.386 107.87C110.236 99.6093 110.59 90.4389 107.435 81.9886L101.814 84.087C104.405 91.0261 104.12 98.5276 100.948 105.336L106.386 107.87ZM107.435 81.9886C104.299 73.5883 98.1796 66.7226 89.9424 62.8495L87.3894 68.2792C94.1535 71.4597 99.205 77.0979 101.814 84.087L107.435 81.9886ZM89.9278 62.8426C85.3782 60.7334 80.4787 59.6788 75.5798 59.6788V65.6788C79.6177 65.6788 83.6551 66.548 87.4041 68.2861L89.9278 62.8426Z" fill="url(#paint1_linear_1_352)" mask="url(#path-1-inside-1_1_352)"/>
    <mask id="path-3-inside-2_1_352" fill="white">
        <path d="M52.4203 67C47.7996 67 43.0195 66.0372 38.7175 63.9511C30.9101 60.2602 24.8554 53.8415 21.9873 45.6575C18.96 37.4735 19.438 28.6477 23.1027 20.7847C26.7674 12.9216 33.3001 6.98424 41.4262 3.93531C49.5523 1.04685 58.475 1.36779 66.2824 5.0586C74.0899 8.74941 80.1446 15.1682 83.0126 23.3522C86.04 31.5361 85.562 40.362 81.8973 48.225C78.2326 56.088 71.6998 62.0254 63.5737 65.0743C59.909 66.3581 56.085 67 52.4203 67ZM52.4203 3.61437C48.9149 3.61437 45.2502 4.25625 41.9042 5.54001C34.0968 8.42847 27.8827 14.0449 24.5367 21.587C20.872 28.9686 20.5533 37.3131 23.4213 45.0156C26.2894 52.7182 31.8661 58.9765 39.3548 62.5068C46.8436 66.0372 55.2883 66.3581 62.9364 63.4696C70.7438 60.5812 76.9579 54.9647 80.3039 47.4227C83.65 39.8806 84.128 31.5361 81.2599 23.8336C78.3919 16.131 72.8152 9.8727 65.3264 6.34236C61.3431 4.57719 56.8817 3.61437 52.4203 3.61437Z"/>
    </mask>
    <path d="M52.4203 67C47.7996 67 43.0195 66.0372 38.7175 63.9511C30.9101 60.2602 24.8554 53.8415 21.9873 45.6575C18.96 37.4735 19.438 28.6477 23.1027 20.7847C26.7674 12.9216 33.3001 6.98424 41.4262 3.93531C49.5523 1.04685 58.475 1.36779 66.2824 5.0586C74.0899 8.74941 80.1446 15.1682 83.0126 23.3522C86.04 31.5361 85.562 40.362 81.8973 48.225C78.2326 56.088 71.6998 62.0254 63.5737 65.0743C59.909 66.3581 56.085 67 52.4203 67ZM52.4203 3.61437C48.9149 3.61437 45.2502 4.25625 41.9042 5.54001C34.0968 8.42847 27.8827 14.0449 24.5367 21.587C20.872 28.9686 20.5533 37.3131 23.4213 45.0156C26.2894 52.7182 31.8661 58.9765 39.3548 62.5068C46.8436 66.0372 55.2883 66.3581 62.9364 63.4696C70.7438 60.5812 76.9579 54.9647 80.3039 47.4227C83.65 39.8806 84.128 31.5361 81.2599 23.8336C78.3919 16.131 72.8152 9.8727 65.3264 6.34236C61.3431 4.57719 56.8817 3.61437 52.4203 3.61437Z" fill="url(#paint2_linear_1_352)"/>
    <path d="M38.7175 63.9511L40.0264 61.2517L40.0131 61.2452L39.9996 61.2388L38.7175 63.9511ZM21.9873 45.6575L24.8185 44.6653L24.81 44.6409L24.801 44.6167L21.9873 45.6575ZM41.4262 3.93531L40.4214 1.10858L40.3968 1.11733L40.3723 1.12651L41.4262 3.93531ZM83.0126 23.3522L80.1814 24.3443L80.19 24.3687L80.199 24.393L83.0126 23.3522ZM63.5737 65.0743L64.5656 67.9057L64.5967 67.8947L64.6276 67.8831L63.5737 65.0743ZM41.9042 5.54001L42.9451 8.35363L42.962 8.34738L42.9788 8.34094L41.9042 5.54001ZM24.5367 21.587L27.2238 22.921L27.2526 22.8629L27.2789 22.8036L24.5367 21.587ZM62.9364 63.4696L61.8955 60.656L61.886 60.6595L61.8765 60.6631L62.9364 63.4696ZM65.3264 6.34236L66.6057 3.62877L66.5739 3.61381L66.5418 3.59959L65.3264 6.34236ZM52.4203 64C48.2024 64 43.8773 63.119 40.0264 61.2517L37.4085 66.6504C42.1618 68.9553 47.3968 70 52.4203 70V64ZM39.9996 61.2388C32.8714 57.8691 27.4045 52.0446 24.8185 44.6653L19.1561 46.6497C22.3062 55.6383 28.9488 62.6514 37.4353 66.6633L39.9996 61.2388ZM24.801 44.6167C22.0609 37.2094 22.4838 29.2141 25.8218 22.052L20.3835 19.5173C16.3921 28.0812 15.859 37.7377 19.1737 46.6983L24.801 44.6167ZM25.8218 22.052C29.1459 14.9197 35.0699 9.52443 42.4801 6.74411L40.3723 1.12651C31.5303 4.44405 24.3888 10.9235 20.3835 19.5173L25.8218 22.052ZM42.431 6.76205C49.8396 4.1286 57.9384 4.43243 65.0003 7.77082L67.5646 2.34639C59.0117 -1.69685 49.2649 -2.03489 40.4214 1.10858L42.431 6.76205ZM65.0003 7.77082C72.1286 11.1406 77.5954 16.9651 80.1814 24.3443L85.8438 22.36C82.6938 13.3713 76.0511 6.35825 67.5646 2.34639L65.0003 7.77082ZM80.199 24.393C82.939 31.8003 82.5162 39.7955 79.1781 46.9577L84.6164 49.4923C88.6078 40.9284 89.141 31.272 85.8263 22.3114L80.199 24.393ZM79.1781 46.9577C75.854 54.0899 69.93 59.4852 62.5199 62.2655L64.6276 67.8831C73.4696 64.5656 80.6111 58.0862 84.6164 49.4923L79.1781 46.9577ZM62.5819 62.243C59.231 63.4169 55.742 64 52.4203 64V70C56.428 70 60.5871 69.2993 64.5656 67.9057L62.5819 62.243ZM52.4203 0.614372C48.5642 0.614372 44.5338 1.31788 40.8296 2.73908L42.9788 8.34094C45.9666 7.19462 49.2656 6.61437 52.4203 6.61437V0.614372ZM40.8633 2.72639C32.3408 5.87937 25.4875 12.046 21.7944 20.3704L27.2789 22.8036C30.2779 16.0438 35.8527 10.9776 42.9451 8.35363L40.8633 2.72639ZM21.8496 20.253C17.8027 28.4044 17.4635 37.6123 20.6099 46.0624L26.2328 43.9688C23.6431 37.0138 23.9412 29.5329 27.2238 22.921L21.8496 20.253ZM20.6099 46.0624C23.7401 54.4692 29.8494 61.3424 38.0756 65.2204L40.6341 59.7932C33.8828 56.6106 28.8386 50.9672 26.2328 43.9688L20.6099 46.0624ZM38.0756 65.2204C46.2979 69.0966 55.5867 69.4522 63.9963 66.2762L61.8765 60.6631C54.99 63.264 47.3892 62.9778 40.6341 59.7932L38.0756 65.2204ZM63.9773 66.2833C72.4998 63.1303 79.3531 56.9636 83.0462 48.6392L77.5617 46.2061C74.5627 52.9659 68.9879 58.0321 61.8955 60.656L63.9773 66.2833ZM83.0462 48.6392C86.6845 40.4382 87.2341 31.2808 84.0714 22.7867L78.4485 24.8804C81.0218 31.7915 80.6154 39.3229 77.5617 46.2061L83.0462 48.6392ZM84.0714 22.7867C80.9411 14.38 74.8319 7.50676 66.6057 3.62877L64.0472 9.05595C70.7985 12.2386 75.8427 17.882 78.4485 24.8804L84.0714 22.7867ZM66.5418 3.59959C62.1788 1.6662 57.3037 0.614372 52.4203 0.614372V6.61437C56.4596 6.61437 60.5073 7.48819 64.111 9.08513L66.5418 3.59959Z" fill="url(#paint3_linear_1_352)" mask="url(#path-3-inside-2_1_352)"/>
    <mask id="path-5-inside-3_1_352" fill="white">
        <path d="M63.5 65C45.6568 65 31 50.395 31 32.5802C31 14.7654 45.6568 -1.52588e-05 63.5 -1.52588e-05C81.3431 -1.52588e-05 96 14.6049 96 32.4197C96 50.2346 81.3431 65 63.5 65ZM63.5 1.60492C46.4534 1.60492 32.5931 15.4074 32.5931 32.5802C32.5931 49.7531 46.4534 63.395 63.5 63.395C80.5465 63.395 94.4068 49.5926 94.4068 32.4197C94.4068 15.2469 80.5465 1.60492 63.5 1.60492Z"/>
    </mask>
    <path d="M63.5 65C45.6568 65 31 50.395 31 32.5802C31 14.7654 45.6568 -1.52588e-05 63.5 -1.52588e-05C81.3431 -1.52588e-05 96 14.6049 96 32.4197C96 50.2346 81.3431 65 63.5 65ZM63.5 1.60492C46.4534 1.60492 32.5931 15.4074 32.5931 32.5802C32.5931 49.7531 46.4534 63.395 63.5 63.395C80.5465 63.395 94.4068 49.5926 94.4068 32.4197C94.4068 15.2469 80.5465 1.60492 63.5 1.60492Z" fill="url(#paint4_linear_1_352)"/>
    <path d="M63.5 62C47.3057 62 34 48.7303 34 32.5802H28C28 52.0598 44.0079 68 63.5 68V62ZM34 32.5802C34 16.411 47.325 2.99998 63.5 2.99998V-3.00002C43.9887 -3.00002 28 13.1199 28 32.5802H34ZM63.5 2.99998C79.6942 2.99998 93 16.2697 93 32.4197H99C99 12.9401 82.992 -3.00002 63.5 -3.00002V2.99998ZM93 32.4197C93 48.589 79.675 62 63.5 62V68C83.0112 68 99 51.8801 99 32.4197H93ZM63.5 -1.39508C44.7959 -1.39508 29.5931 13.7512 29.5931 32.5802H35.5931C35.5931 17.0636 48.1109 4.60492 63.5 4.60492V-1.39508ZM29.5931 32.5802C29.5931 51.4296 44.8163 66.3951 63.5 66.3951V60.395C48.0905 60.395 35.5931 48.0766 35.5931 32.5802H29.5931ZM63.5 66.3951C82.2041 66.3951 97.4068 51.2488 97.4068 32.4197H91.4068C91.4068 47.9364 78.889 60.395 63.5 60.395V66.3951ZM97.4068 32.4197C97.4068 13.5704 82.1837 -1.39508 63.5 -1.39508V4.60492C78.9094 4.60492 91.4068 16.9234 91.4068 32.4197H97.4068Z" fill="url(#paint5_linear_1_352)" mask="url(#path-5-inside-3_1_352)"/>
    <mask id="path-7-inside-4_1_352" fill="white">
        <path d="M63.5 128C45.6568 128 31 113.395 31 95.5802C31 77.7654 45.6568 63 63.5 63C81.3431 63 96 77.6049 96 95.4197C96 113.235 81.3431 128 63.5 128ZM63.5 64.6049C46.4534 64.6049 32.5931 78.4074 32.5931 95.5802C32.5931 112.753 46.4534 126.395 63.5 126.395C80.5465 126.395 94.4068 112.593 94.4068 95.4197C94.4068 78.2469 80.5465 64.6049 63.5 64.6049Z"/>
    </mask>
    <path d="M63.5 128C45.6568 128 31 113.395 31 95.5802C31 77.7654 45.6568 63 63.5 63C81.3431 63 96 77.6049 96 95.4197C96 113.235 81.3431 128 63.5 128ZM63.5 64.6049C46.4534 64.6049 32.5931 78.4074 32.5931 95.5802C32.5931 112.753 46.4534 126.395 63.5 126.395C80.5465 126.395 94.4068 112.593 94.4068 95.4197C94.4068 78.2469 80.5465 64.6049 63.5 64.6049Z" fill="url(#paint6_linear_1_352)"/>
    <path d="M63.5 125C47.3057 125 34 111.73 34 95.5802H28C28 115.06 44.0079 131 63.5 131V125ZM34 95.5802C34 79.411 47.325 66 63.5 66V60C43.9887 60 28 76.1199 28 95.5802H34ZM63.5 66C79.6942 66 93 79.2697 93 95.4197H99C99 75.9401 82.992 60 63.5 60V66ZM93 95.4197C93 111.589 79.675 125 63.5 125V131C83.0112 131 99 114.88 99 95.4197H93ZM63.5 61.6049C44.7959 61.6049 29.5931 76.7512 29.5931 95.5802H35.5931C35.5931 80.0636 48.1109 67.6049 63.5 67.6049V61.6049ZM29.5931 95.5802C29.5931 114.43 44.8163 129.395 63.5 129.395V123.395C48.0905 123.395 35.5931 111.077 35.5931 95.5802H29.5931ZM63.5 129.395C82.2041 129.395 97.4068 114.249 97.4068 95.4197H91.4068C91.4068 110.936 78.889 123.395 63.5 123.395V129.395ZM97.4068 95.4197C97.4068 76.5704 82.1837 61.6049 63.5 61.6049V67.6049C78.9094 67.6049 91.4068 79.9234 91.4068 95.4197H97.4068Z" fill="url(#paint7_linear_1_352)" mask="url(#path-7-inside-4_1_352)"/>
    <mask id="path-9-inside-5_1_352" fill="white">
        <path d="M52.587 126C48.756 126 45.0847 125.358 41.4134 124.074C24.4934 117.976 15.8738 99.2015 21.9394 82.3522C24.9722 74.1682 30.8783 67.7494 38.6998 64.0586C46.5213 60.3678 55.4602 60.0469 63.6009 62.9353C71.7417 65.8238 78.2862 71.9216 81.9575 79.7847C85.6288 87.6477 85.9481 96.4735 83.0749 104.657C80.042 112.841 74.136 119.26 66.3145 122.951C62.0047 125.037 57.216 126 52.587 126ZM23.5356 82.994C17.6296 99.041 25.93 116.693 42.0519 122.63C49.8734 125.519 58.1737 125.037 65.676 121.667C73.1783 118.137 78.9247 112.039 81.6383 104.176C84.5115 96.4735 84.0326 87.9686 80.6805 80.587C77.3284 73.2054 70.9436 67.4285 63.2817 64.54C55.4602 61.6516 47.0002 61.9725 39.4979 65.5028C31.9956 69.0332 26.2492 75.131 23.5356 82.994Z"/>
    </mask>
    <path d="M52.587 126C48.756 126 45.0847 125.358 41.4134 124.074C24.4934 117.976 15.8738 99.2015 21.9394 82.3522C24.9722 74.1682 30.8783 67.7494 38.6998 64.0586C46.5213 60.3678 55.4602 60.0469 63.6009 62.9353C71.7417 65.8238 78.2862 71.9216 81.9575 79.7847C85.6288 87.6477 85.9481 96.4735 83.0749 104.657C80.042 112.841 74.136 119.26 66.3145 122.951C62.0047 125.037 57.216 126 52.587 126ZM23.5356 82.994C17.6296 99.041 25.93 116.693 42.0519 122.63C49.8734 125.519 58.1737 125.037 65.676 121.667C73.1783 118.137 78.9247 112.039 81.6383 104.176C84.5115 96.4735 84.0326 87.9686 80.6805 80.587C77.3284 73.2054 70.9436 67.4285 63.2817 64.54C55.4602 61.6516 47.0002 61.9725 39.4979 65.5028C31.9956 69.0332 26.2492 75.131 23.5356 82.994Z" fill="url(#paint8_linear_1_352)"/>
    <path d="M41.4134 124.074L40.3962 126.897L40.4097 126.901L40.4231 126.906L41.4134 124.074ZM21.9394 82.3522L19.1264 81.3097L19.1215 81.3228L19.1167 81.336L21.9394 82.3522ZM83.0749 104.657L85.8879 105.7L85.8969 105.676L85.9055 105.651L83.0749 104.657ZM66.3145 122.951L65.0342 120.238L65.0208 120.244L65.0074 120.251L66.3145 122.951ZM23.5356 82.994L26.351 84.0302L26.3616 84.0016L26.3715 83.9727L23.5356 82.994ZM42.0519 122.63L43.0911 119.816L43.0886 119.815L42.0519 122.63ZM65.676 121.667L66.9052 124.404L66.9294 124.393L66.9534 124.382L65.676 121.667ZM81.6383 104.176L78.8274 103.128L78.8145 103.162L78.8024 103.197L81.6383 104.176ZM63.2817 64.54L64.3399 61.7329L64.3305 61.7293L64.321 61.7258L63.2817 64.54ZM52.587 123C49.1055 123 45.7685 122.419 42.4036 121.242L40.4231 126.906C44.4009 128.297 48.4065 129 52.587 129V123ZM42.4305 121.252C27.095 115.725 19.248 98.6854 24.7621 83.3683L19.1167 81.336C12.4995 99.7176 21.8918 120.228 40.3962 126.897L42.4305 121.252ZM24.7525 83.3946C27.5128 75.946 32.8689 70.1273 39.98 66.7717L37.4195 61.3455C28.8876 65.3715 22.4317 72.3904 19.1264 81.3097L24.7525 83.3946ZM39.98 66.7717C47.0569 63.4323 55.1733 63.1283 62.5977 65.7626L64.6041 60.108C55.7471 56.9654 45.9856 57.3033 37.4195 61.3455L39.98 66.7717ZM62.5977 65.7626C69.9523 68.3721 75.8947 73.8907 79.2392 81.0538L84.6758 78.5155C80.6777 69.9525 73.531 63.2754 64.6041 60.108L62.5977 65.7626ZM79.2392 81.0538C82.5661 88.1791 82.8677 96.191 80.2442 103.664L85.9055 105.651C89.0284 96.756 88.6916 87.1162 84.6758 78.5155L79.2392 81.0538ZM80.2618 103.615C77.5015 111.064 72.1454 116.882 65.0342 120.238L67.5947 125.664C76.1266 121.638 82.5826 114.619 85.8879 105.7L80.2618 103.615ZM65.0074 120.251C61.1484 122.119 56.814 123 52.587 123V129C57.618 129 62.861 127.956 67.6215 125.651L65.0074 120.251ZM20.7203 81.9579C14.232 99.5869 23.3662 118.946 41.0151 125.445L43.0886 119.815C28.4938 114.44 21.0272 98.4952 26.351 84.0302L20.7203 81.9579ZM41.0126 125.444C49.6152 128.621 58.7301 128.076 66.9052 124.404L64.4468 118.931C57.6174 121.998 50.1315 122.416 43.0911 119.816L41.0126 125.444ZM66.9534 124.382C75.1391 120.53 81.4794 113.833 84.4741 105.155L78.8024 103.197C76.37 110.246 71.2174 115.744 64.3987 118.953L66.9534 124.382ZM84.4491 105.225C87.6147 96.7381 87.0739 87.4103 83.4121 79.3466L77.949 81.8274C80.9913 88.5269 81.4082 96.209 78.8274 103.128L84.4491 105.225ZM83.4121 79.3466C79.7138 71.2026 72.7037 64.8859 64.3399 61.7329L62.2234 67.3472C69.1834 69.971 74.9431 75.2081 77.949 81.8274L83.4121 79.3466ZM64.321 61.7258C55.7583 58.5636 46.4631 58.9097 38.2205 62.7884L40.7752 68.2173C47.5372 65.0353 55.162 64.7395 62.2424 67.3542L64.321 61.7258ZM38.2205 62.7884C30.0348 66.6403 23.6945 73.3376 20.6998 82.0154L26.3715 83.9727C28.8039 76.9245 33.9565 71.426 40.7752 68.2173L38.2205 62.7884Z" fill="url(#paint9_linear_1_352)" mask="url(#path-9-inside-5_1_352)"/>
    <mask id="path-11-inside-6_1_352" fill="white">
        <path d="M75.5 67C71.6776 67 68.0144 66.3583 64.3513 65.0748C56.2287 62.1871 49.6988 56.0907 46.0357 48.2296C42.3725 40.3686 42.054 31.5449 44.9208 23.3629C51.1322 6.51776 69.7664 -2.14547 86.6486 3.95088C94.7712 6.83862 101.301 12.935 104.964 20.7961C108.627 28.6571 108.946 37.4808 106.079 45.6628C103.053 53.8447 97.1602 60.2619 89.3562 63.9518C84.8967 66.0374 80.278 67 75.5 67ZM75.5 3.63002C62.9179 3.63002 50.9729 11.4911 46.3542 24.0047C43.4874 31.7053 43.9652 40.2081 47.3098 47.5879C50.8136 55.1281 57.025 60.7432 64.6698 63.6309C72.4739 66.5187 80.7558 66.0374 88.2413 62.6684C95.7268 59.1389 101.46 53.0425 104.168 45.1815C106.875 37.3204 106.557 28.978 103.212 21.5982C99.7085 14.058 93.4971 8.44293 85.8523 5.55518C82.667 4.27174 79.0038 3.63002 75.5 3.63002Z"/>
    </mask>
    <path d="M75.5 67C71.6776 67 68.0144 66.3583 64.3513 65.0748C56.2287 62.1871 49.6988 56.0907 46.0357 48.2296C42.3725 40.3686 42.054 31.5449 44.9208 23.3629C51.1322 6.51776 69.7664 -2.14547 86.6486 3.95088C94.7712 6.83862 101.301 12.935 104.964 20.7961C108.627 28.6571 108.946 37.4808 106.079 45.6628C103.053 53.8447 97.1602 60.2619 89.3562 63.9518C84.8967 66.0374 80.278 67 75.5 67ZM75.5 3.63002C62.9179 3.63002 50.9729 11.4911 46.3542 24.0047C43.4874 31.7053 43.9652 40.2081 47.3098 47.5879C50.8136 55.1281 57.025 60.7432 64.6698 63.6309C72.4739 66.5187 80.7558 66.0374 88.2413 62.6684C95.7268 59.1389 101.46 53.0425 104.168 45.1815C106.875 37.3204 106.557 28.978 103.212 21.5982C99.7085 14.058 93.4971 8.44293 85.8523 5.55518C82.667 4.27174 79.0038 3.63002 75.5 3.63002Z" fill="url(#paint10_linear_1_352)"/>
    <path d="M64.3513 65.0748L63.3464 67.9015L63.3593 67.9061L64.3513 65.0748ZM44.9208 23.3629L42.106 22.3251L42.0976 22.3479L42.0895 22.3709L44.9208 23.3629ZM86.6486 3.95088L85.6297 6.77254L85.6367 6.77507L85.6437 6.77755L86.6486 3.95088ZM106.079 45.6628L108.893 46.7034L108.902 46.6792L108.91 46.6548L106.079 45.6628ZM89.3562 63.9518L90.6271 66.6693L90.6385 66.6639L89.3562 63.9518ZM46.3542 24.0047L49.1657 25.0513L49.1686 25.0435L46.3542 24.0047ZM47.3098 47.5879L44.5773 48.8263L44.5832 48.8393L44.5892 48.8522L47.3098 47.5879ZM64.6698 63.6309L63.6097 66.4374L63.6192 66.441L63.6287 66.4445L64.6698 63.6309ZM88.2413 62.6684L89.4726 65.4041L89.4967 65.3932L89.5207 65.3819L88.2413 62.6684ZM103.212 21.5982L105.945 20.3598L105.939 20.3469L105.933 20.334L103.212 21.5982ZM85.8523 5.55518L84.7311 8.3378L84.7615 8.35005L84.7922 8.36163L85.8523 5.55518ZM75.5 64C72.0278 64 68.6996 63.4195 65.3433 62.2436L63.3593 67.9061C67.3293 69.297 71.3273 70 75.5 70V64ZM65.3562 62.2481C58.021 59.6403 52.0923 54.1245 48.7549 46.9625L43.3164 49.4968C47.3053 58.0569 54.4365 64.7338 63.3464 67.9015L65.3562 62.2481ZM48.7549 46.9625C45.4351 39.8382 45.134 31.8269 47.752 24.355L42.0895 22.3709C38.974 31.2629 39.3099 40.8989 43.3164 49.4968L48.7549 46.9625ZM47.7355 24.4008C53.3762 9.10357 70.2976 1.23598 85.6297 6.77254L87.6676 1.12922C69.2351 -5.52692 48.8882 3.93196 42.106 22.3251L47.7355 24.4008ZM85.6437 6.77755C92.979 9.3854 98.9077 14.9012 102.245 22.0632L107.684 19.5289C103.695 10.9688 96.5635 4.29185 87.6536 1.1242L85.6437 6.77755ZM102.245 22.0632C105.565 29.1875 105.866 37.1988 103.248 44.6707L108.91 46.6548C112.026 37.7628 111.69 28.1268 107.684 19.5289L102.245 22.0632ZM103.265 44.6221C100.511 52.0698 95.1668 57.886 88.0738 61.2397L90.6385 66.6639C99.1537 62.6378 105.595 55.6196 108.893 46.7034L103.265 44.6221ZM88.0853 61.2343C84.0418 63.1253 79.8593 64 75.5 64V70C80.6967 70 85.7516 68.9495 90.6271 66.6693L88.0853 61.2343ZM75.5 0.630019C61.6938 0.630019 48.6045 9.24397 43.5398 22.9659L49.1686 25.0435C53.3413 13.7382 64.142 6.63002 75.5 6.63002V0.630019ZM43.5427 22.958C40.3845 31.4413 40.924 40.7653 44.5773 48.8263L50.0423 46.3495C47.0064 39.6509 46.5902 31.9694 49.1657 25.0513L43.5427 22.958ZM44.5892 48.8522C48.4333 57.1246 55.2529 63.2807 63.6097 66.4374L65.73 60.8245C58.7972 58.2057 53.194 53.1316 50.0304 46.3237L44.5892 48.8522ZM63.6287 66.4445C72.2153 69.6218 81.3133 69.0763 89.4726 65.4041L87.01 59.9327C80.1983 62.9985 72.7325 63.4156 65.7109 60.8174L63.6287 66.4445ZM89.5207 65.3819C97.6906 61.5297 104.017 54.8331 107.004 46.1584L101.331 44.2045C98.9042 51.252 93.7631 56.7481 86.9619 59.9549L89.5207 65.3819ZM107.004 46.1584C109.952 37.6015 109.618 28.465 105.945 20.3598L100.48 22.8366C103.496 29.491 103.799 37.0392 101.331 44.2045L107.004 46.1584ZM105.933 20.334C102.089 12.0615 95.2692 5.90544 86.9124 2.74873L84.7922 8.36163C91.725 10.9804 97.3282 16.0545 100.492 22.8624L105.933 20.334ZM86.9735 2.77257C83.3936 1.33017 79.3446 0.630019 75.5 0.630019V6.63002C78.663 6.63002 81.9403 7.21331 84.7311 8.3378L86.9735 2.77257Z" fill="url(#paint11_linear_1_352)" mask="url(#path-11-inside-6_1_352)"/>
    <mask id="path-13-inside-7_1_352" fill="white">
        <path d="M84.5 73C77.1542 73 69.6487 70.429 63.5804 65.4478C49.8469 53.8784 48.0903 33.3107 59.5881 19.6525C71.0859 5.83355 91.6861 4.06601 105.42 15.6353C119.153 27.2047 120.91 47.7724 109.412 61.4307C103.024 68.9829 93.7621 73 84.5 73ZM84.5 9.52931C75.7169 9.52931 66.9339 13.2251 60.7059 20.6166C49.6872 33.6321 51.4438 53.2357 64.5385 64.1623C77.6332 75.0889 97.2753 73.482 108.134 60.3059C119.153 47.2903 117.396 27.6867 104.302 16.7601C98.5528 11.9396 91.5264 9.52931 84.5 9.52931Z"/>
    </mask>
    <path d="M84.5 73C77.1542 73 69.6487 70.429 63.5804 65.4478C49.8469 53.8784 48.0903 33.3107 59.5881 19.6525C71.0859 5.83355 91.6861 4.06601 105.42 15.6353C119.153 27.2047 120.91 47.7724 109.412 61.4307C103.024 68.9829 93.7621 73 84.5 73ZM84.5 9.52931C75.7169 9.52931 66.9339 13.2251 60.7059 20.6166C49.6872 33.6321 51.4438 53.2357 64.5385 64.1623C77.6332 75.0889 97.2753 73.482 108.134 60.3059C119.153 47.2903 117.396 27.6867 104.302 16.7601C98.5528 11.9396 91.5264 9.52931 84.5 9.52931Z" fill="url(#paint12_linear_1_352)"/>
    <path d="M63.5804 65.4478L61.6476 67.7422L61.6622 67.7545L61.677 67.7666L63.5804 65.4478ZM59.5881 19.6525L61.8832 21.5845L61.8887 21.5779L61.8942 21.5713L59.5881 19.6525ZM109.412 61.4307L111.702 63.368L111.707 63.3627L109.412 61.4307ZM60.7059 20.6166L62.9956 22.555L63.0001 22.5496L60.7059 20.6166ZM108.134 60.3059L105.845 58.3675L105.832 58.3826L105.819 58.3979L108.134 60.3059ZM104.302 16.7601L102.374 19.0589L102.38 19.0636L104.302 16.7601ZM84.5 70C77.8418 70 71.0105 67.6656 65.4838 63.129L61.677 67.7666C68.2868 73.1924 76.4665 76 84.5 76V70ZM65.5132 63.1534C53.0426 52.6479 51.4555 33.9716 61.8832 21.5845L57.2931 17.7205C44.7252 32.6499 46.6512 55.109 61.6476 67.7422L65.5132 63.1534ZM61.8942 21.5713C72.3222 9.03809 91.0193 7.42692 103.487 17.9297L107.352 13.341C92.3529 0.705098 69.8495 2.629 57.282 17.7337L61.8942 21.5713ZM103.487 17.9297C115.957 28.4352 117.544 47.1115 107.117 59.4986L111.707 63.3627C124.275 48.4333 122.349 25.9742 107.352 13.341L103.487 17.9297ZM107.121 59.4933C101.322 66.35 92.9081 70 84.5 70V76C94.616 76 104.726 71.6158 111.702 63.368L107.121 59.4933ZM84.5 6.52931C74.8738 6.52931 65.2359 10.5844 58.4118 18.6835L63.0001 22.5496C68.6319 15.8657 76.5601 12.5293 84.5 12.5293V6.52931ZM58.4163 18.6782C46.3149 32.9725 48.2512 54.4789 62.6165 66.4657L66.4606 61.8589C54.6365 51.9925 53.0595 34.2917 62.9956 22.555L58.4163 18.6782ZM62.6165 66.4657C76.9587 78.4333 98.5073 76.7042 110.449 62.2138L105.819 58.3979C96.0432 70.2599 78.3077 71.7445 66.4606 61.8589L62.6165 66.4657ZM110.424 62.2443C122.525 47.9499 120.589 26.4435 106.224 14.4567L102.38 19.0636C114.204 28.9299 115.781 46.6308 105.845 58.3675L110.424 62.2443ZM106.229 14.4614C99.9275 9.17723 92.2146 6.52931 84.5 6.52931V12.5293C90.8381 12.5293 97.1781 14.7019 102.374 19.0589L106.229 14.4614Z" fill="url(#paint13_linear_1_352)" mask="url(#path-13-inside-7_1_352)"/>
    <mask id="path-15-inside-8_1_352" fill="white">
        <path d="M43.5 121C35.8476 121 28.5141 118.271 22.6154 113.454C15.9195 107.835 11.9339 99.9679 11.1368 91.4588C10.3397 82.7891 13.0499 74.4405 18.6297 67.6974C24.2096 60.9543 32.0214 56.78 40.6303 56.1378C49.2393 55.335 57.6888 58.0644 64.3846 63.6836C71.0804 69.3029 75.066 77.1698 75.8631 85.679C76.6603 94.1881 73.9501 102.697 68.3702 109.28C62.7903 115.862 54.9785 120.037 46.3696 120.839C45.4131 121 44.4565 121 43.5 121ZM43.5 57.5827C34.7316 57.5827 25.9633 61.2754 19.7457 68.6607C14.4847 74.9221 11.9339 82.9496 12.5716 91.2982C13.2093 99.6468 17.1949 107.032 23.5719 112.33C29.9489 117.628 37.9201 120.197 46.2102 119.394C54.5003 118.752 61.8338 114.739 67.2542 108.477C72.5152 102.216 75.066 94.1881 74.4283 85.8395C73.6312 77.6515 69.805 70.1056 63.428 64.8075C57.6888 59.991 50.5146 57.5827 43.5 57.5827Z"/>
    </mask>
    <path d="M43.5 121C35.8476 121 28.5141 118.271 22.6154 113.454C15.9195 107.835 11.9339 99.9679 11.1368 91.4588C10.3397 82.7891 13.0499 74.4405 18.6297 67.6974C24.2096 60.9543 32.0214 56.78 40.6303 56.1378C49.2393 55.335 57.6888 58.0644 64.3846 63.6836C71.0804 69.3029 75.066 77.1698 75.8631 85.679C76.6603 94.1881 73.9501 102.697 68.3702 109.28C62.7903 115.862 54.9785 120.037 46.3696 120.839C45.4131 121 44.4565 121 43.5 121ZM43.5 57.5827C34.7316 57.5827 25.9633 61.2754 19.7457 68.6607C14.4847 74.9221 11.9339 82.9496 12.5716 91.2982C13.2093 99.6468 17.1949 107.032 23.5719 112.33C29.9489 117.628 37.9201 120.197 46.2102 119.394C54.5003 118.752 61.8338 114.739 67.2542 108.477C72.5152 102.216 75.066 94.1881 74.4283 85.8395C73.6312 77.6515 69.805 70.1056 63.428 64.8075C57.6888 59.991 50.5146 57.5827 43.5 57.5827Z" fill="url(#paint14_linear_1_352)"/>
    <path d="M22.6154 113.454L20.6868 115.752L20.7023 115.765L20.7179 115.778L22.6154 113.454ZM11.1368 91.4588L8.14939 91.7335L8.14987 91.7386L11.1368 91.4588ZM40.6303 56.1378L40.8535 59.1295L40.8812 59.1274L40.9089 59.1248L40.6303 56.1378ZM46.3696 120.839L46.0911 117.852L45.9815 117.863L45.873 117.881L46.3696 120.839ZM19.7457 68.6607L17.4507 66.7286L17.4489 66.7308L19.7457 68.6607ZM46.2102 119.394L45.9785 116.403L45.9497 116.406L45.921 116.408L46.2102 119.394ZM67.2542 108.477L69.5224 110.441L69.5369 110.424L69.5511 110.407L67.2542 108.477ZM74.4283 85.8395L77.4196 85.611L77.4172 85.5799L77.4142 85.5488L74.4283 85.8395ZM63.428 64.8075L61.4995 67.1055L61.5052 67.1102L61.5109 67.115L63.428 64.8075ZM43.5 118C36.5679 118 29.8986 115.528 24.5128 111.13L20.7179 115.778C27.1296 121.013 35.1273 124 43.5 124V118ZM24.5439 111.156C18.4696 106.058 14.8493 98.9248 14.1237 91.179L8.14987 91.7386C9.0185 101.011 13.3694 109.611 20.6868 115.752L24.5439 111.156ZM14.1242 91.1841C13.4028 83.3378 15.8449 75.7685 20.941 69.61L16.3185 65.7848C10.2549 73.1125 7.27657 82.2404 8.14939 91.7335L14.1242 91.1841ZM20.941 69.61C26.0248 63.4664 33.0954 59.7082 40.8535 59.1295L40.4072 53.1461C30.9474 53.8518 22.3945 58.4421 16.3185 65.7848L20.941 69.61ZM40.9089 59.1248C48.6928 58.399 56.3534 60.8602 62.4561 65.9816L66.3131 61.3856C59.0241 55.2686 49.7857 52.2711 40.3518 53.1507L40.9089 59.1248ZM62.4561 65.9816C68.5303 71.0793 72.1506 78.213 72.8762 85.9588L78.8501 85.3992C77.9814 76.1267 73.6305 67.5265 66.3131 61.3856L62.4561 65.9816ZM72.8762 85.9588C73.5969 93.6522 71.1475 101.364 66.0817 107.34L70.6586 111.22C76.7526 104.031 79.7236 94.7241 78.8501 85.3992L72.8762 85.9588ZM66.0817 107.34C60.9943 113.342 53.8962 117.125 46.0911 117.852L46.6481 123.826C56.0608 122.949 64.5864 118.383 70.6586 111.22L66.0817 107.34ZM45.873 117.881C45.2033 117.993 44.4964 118 43.5 118V124C44.4166 124 45.6228 124.007 46.8662 123.798L45.873 117.881ZM43.5 54.5827C33.8876 54.5827 24.2642 58.6354 17.4507 66.7286L22.0407 70.5928C27.6623 63.9153 35.5757 60.5827 43.5 60.5827V54.5827ZM17.4489 66.7308C11.6714 73.6069 8.88423 82.4136 9.58033 91.5267L15.5629 91.0697C14.9836 83.4857 17.298 76.2373 22.0426 70.5906L17.4489 66.7308ZM9.58033 91.5267C10.2826 100.721 14.6814 108.844 21.6548 114.638L25.489 110.023C19.7084 105.22 16.136 98.5725 15.5629 91.0697L9.58033 91.5267ZM21.6548 114.638C28.6253 120.429 37.3848 123.263 46.4993 122.381L45.921 116.408C38.4554 117.131 31.2725 114.828 25.489 110.023L21.6548 114.638ZM46.4419 122.386C55.5917 121.677 63.6342 117.242 69.5224 110.441L64.986 106.514C60.0334 112.235 53.4089 115.828 45.9785 116.403L46.4419 122.386ZM69.5511 110.407C75.3285 103.531 78.1157 94.7241 77.4196 85.611L71.437 86.068C72.0163 93.6521 69.7019 100.9 64.9574 106.547L69.5511 110.407ZM77.4142 85.5488C76.5442 76.6119 72.3589 68.3271 65.3452 62.5L61.5109 67.115C67.2511 71.8841 70.7182 78.6911 71.4424 86.1302L77.4142 85.5488ZM65.3566 62.5095C59.0525 57.219 51.1874 54.5827 43.5 54.5827V60.5827C49.8419 60.5827 56.3251 62.763 61.4995 67.1055L65.3566 62.5095Z" fill="url(#paint15_linear_1_352)" mask="url(#path-15-inside-8_1_352)"/>
    <mask id="path-17-inside-9_1_352" fill="white">
        <path d="M36.5 113C33.6328 113 30.7657 112.679 28.0579 111.877C19.6158 109.63 12.6073 104.174 8.30662 96.7916C4.00594 89.2491 2.89095 80.5832 5.12093 72.0778C7.35091 63.7329 12.7666 56.6719 20.253 52.3389C27.7393 48.006 36.5 46.8826 44.942 49.1294C53.3841 51.3761 60.3926 56.6719 64.6933 64.2144C68.994 71.7569 70.109 80.4228 67.879 88.9281C65.649 97.273 60.2334 104.334 52.747 108.667C47.6499 111.556 42.0749 113 36.5 113ZM36.3407 49.6108C30.925 49.6108 25.6686 51.0551 20.8901 53.7832C13.7223 57.9557 8.62519 64.5353 6.55449 72.5593C4.48379 80.5832 5.59878 88.9281 9.74018 95.9892C13.8816 103.05 20.5715 108.186 28.5357 110.432C36.5 112.519 44.7828 111.395 51.9506 107.383C66.764 98.8778 71.8611 79.9413 63.2598 65.1773C59.1184 57.9557 52.4284 52.9808 44.4642 50.7341C41.7564 49.9317 39.0485 49.6108 36.3407 49.6108Z"/>
    </mask>
    <path d="M36.5 113C33.6328 113 30.7657 112.679 28.0579 111.877C19.6158 109.63 12.6073 104.174 8.30662 96.7916C4.00594 89.2491 2.89095 80.5832 5.12093 72.0778C7.35091 63.7329 12.7666 56.6719 20.253 52.3389C27.7393 48.006 36.5 46.8826 44.942 49.1294C53.3841 51.3761 60.3926 56.6719 64.6933 64.2144C68.994 71.7569 70.109 80.4228 67.879 88.9281C65.649 97.273 60.2334 104.334 52.747 108.667C47.6499 111.556 42.0749 113 36.5 113ZM36.3407 49.6108C30.925 49.6108 25.6686 51.0551 20.8901 53.7832C13.7223 57.9557 8.62519 64.5353 6.55449 72.5593C4.48379 80.5832 5.59878 88.9281 9.74018 95.9892C13.8816 103.05 20.5715 108.186 28.5357 110.432C36.5 112.519 44.7828 111.395 51.9506 107.383C66.764 98.8778 71.8611 79.9413 63.2598 65.1773C59.1184 57.9557 52.4284 52.9808 44.4642 50.7341C41.7564 49.9317 39.0485 49.6108 36.3407 49.6108Z" fill="url(#paint16_linear_1_352)"/>
    <path d="M28.0579 111.877L28.9102 109L28.87 108.988L28.8294 108.978L28.0579 111.877ZM8.30662 96.7916L5.7005 98.2776L5.70742 98.2897L5.71444 98.3018L8.30662 96.7916ZM5.12093 72.0778L2.2226 71.3033L2.21901 71.317L5.12093 72.0778ZM67.879 88.9281L70.7773 89.7027L70.7809 89.689L67.879 88.9281ZM52.747 108.667L54.2261 111.277L54.238 111.27L54.2498 111.264L52.747 108.667ZM20.8901 53.7832L19.4027 51.1779L19.3917 51.1842L19.3808 51.1905L20.8901 53.7832ZM28.5357 110.432L27.7212 113.32L27.7483 113.327L27.7755 113.334L28.5357 110.432ZM51.9506 107.383L53.4158 110.001L53.4301 109.993L53.4443 109.985L51.9506 107.383ZM63.2598 65.1773L60.6573 66.6697L60.6624 66.6786L60.6676 66.6874L63.2598 65.1773ZM44.4642 50.7341L43.6119 53.6105L43.6307 53.6161L43.6497 53.6215L44.4642 50.7341ZM36.5 110C33.8486 110 31.2793 109.702 28.9102 109L27.2056 114.753C30.2522 115.656 33.4171 116 36.5 116V110ZM28.8294 108.978C21.1665 106.938 14.8067 101.989 10.8988 95.2814L5.71444 98.3018C10.4079 106.358 18.0652 112.322 27.2864 114.776L28.8294 108.978ZM10.9127 95.3056C7.00652 88.4549 5.98878 80.5969 8.02285 72.8387L2.21901 71.317C-0.206878 80.5696 1.00536 90.0433 5.7005 98.2776L10.9127 95.3056ZM8.01923 72.8524C10.0434 65.2777 14.9558 58.871 21.7557 54.9354L18.7502 49.7425C10.5773 54.4727 4.65846 62.1881 2.22263 71.3033L8.01923 72.8524ZM21.7557 54.9354C28.5411 51.0082 36.4821 49.9823 44.1705 52.0284L45.7136 46.2303C36.5178 43.783 26.9375 45.0038 18.7502 49.7425L21.7557 54.9354ZM44.1705 52.0284C51.8595 54.0747 58.1959 58.8758 62.0872 65.7004L67.2994 62.7284C62.5894 54.4679 54.9087 48.6774 45.7136 46.2303L44.1705 52.0284ZM62.0872 65.7004C65.9934 72.5511 67.0112 80.4091 64.9771 88.1673L70.7809 89.689C73.2068 80.4364 71.9946 70.9627 67.2994 62.7284L62.0872 65.7004ZM64.9807 88.1536C62.9566 95.7283 58.0441 102.135 51.2442 106.071L54.2498 111.264C62.4226 106.533 68.3415 98.8178 70.7773 89.7026L64.9807 88.1536ZM51.2678 106.057C46.6182 108.692 41.5523 110 36.5 110V116C42.5976 116 48.6816 114.419 54.2261 111.277L51.2678 106.057ZM36.3407 46.6108C30.3808 46.6108 24.6143 48.2025 19.4027 51.1779L22.3775 56.3886C26.7229 53.9077 31.4692 52.6108 36.3407 52.6108V46.6108ZM19.3808 51.1905C11.5423 55.7534 5.92691 62.9853 3.64966 71.8097L9.45932 73.3089C11.3235 66.0854 15.9023 60.158 22.3993 56.376L19.3808 51.1905ZM3.64966 71.8097C1.38557 80.583 2.60016 89.7453 7.15243 97.507L12.3279 94.4715C8.59741 88.1109 7.58202 80.5835 9.45932 73.3089L3.64966 71.8097ZM7.15243 97.507C11.6915 105.246 19.022 110.866 27.7212 113.32L29.3503 107.545C22.121 105.506 16.0717 100.855 12.3279 94.4715L7.15243 97.507ZM27.7755 113.334C36.5064 115.621 45.5854 114.384 53.4158 110.001L50.4853 104.765C43.9801 108.406 36.4936 109.416 29.2959 107.53L27.7755 113.334ZM53.4443 109.985C69.6956 100.654 75.2943 79.8746 65.8519 63.6671L60.6676 66.6874C68.428 80.008 63.8325 97.1017 50.4568 104.782L53.4443 109.985ZM65.8622 63.6848C61.306 55.74 53.9502 50.2931 45.2787 47.8468L43.6497 53.6215C50.9066 55.6686 56.9307 60.1714 60.6573 66.6697L65.8622 63.6848ZM45.3165 47.8578C42.2893 46.9607 39.2889 46.6108 36.3407 46.6108V52.6108C38.8082 52.6108 41.2234 52.9028 43.6119 53.6105L45.3165 47.8578Z" fill="url(#paint17_linear_1_352)" mask="url(#path-17-inside-9_1_352)"/>
    <mask id="path-19-inside-10_1_352" fill="white">
        <path d="M91.5 81C88.6329 81 85.7657 80.679 83.0579 79.8766C74.6158 77.6299 67.6073 72.1736 63.3066 64.7916C59.0059 57.2491 57.8909 48.5832 60.1209 40.0778C62.3509 31.7329 67.7666 24.6719 75.253 20.3389C82.7393 16.006 91.5 14.8826 99.942 17.1294C108.384 19.3761 115.393 24.6719 119.693 32.2144C123.994 39.7569 125.109 48.4228 122.879 56.9281C120.649 65.273 115.233 72.3341 107.747 76.6671C102.65 79.5557 97.0749 81 91.5 81ZM75.8901 21.6228C68.7223 25.7952 63.6252 32.3749 61.5545 40.3988C59.4838 48.4227 60.4395 56.7677 64.5809 63.8287C68.7223 71.0503 75.4122 76.0251 83.3765 78.2718C91.3407 80.3581 99.6235 79.2347 106.791 75.2227C113.959 71.0503 119.056 64.4706 121.127 56.4467C123.198 48.4227 122.242 40.0778 118.1 33.0168C113.959 25.7952 107.269 20.8204 99.3049 18.5737C91.5 16.4874 83.0579 17.6108 75.8901 21.6228Z"/>
    </mask>
    <path d="M91.5 81C88.6329 81 85.7657 80.679 83.0579 79.8766C74.6158 77.6299 67.6073 72.1736 63.3066 64.7916C59.0059 57.2491 57.8909 48.5832 60.1209 40.0778C62.3509 31.7329 67.7666 24.6719 75.253 20.3389C82.7393 16.006 91.5 14.8826 99.942 17.1294C108.384 19.3761 115.393 24.6719 119.693 32.2144C123.994 39.7569 125.109 48.4228 122.879 56.9281C120.649 65.273 115.233 72.3341 107.747 76.6671C102.65 79.5557 97.0749 81 91.5 81ZM75.8901 21.6228C68.7223 25.7952 63.6252 32.3749 61.5545 40.3988C59.4838 48.4227 60.4395 56.7677 64.5809 63.8287C68.7223 71.0503 75.4122 76.0251 83.3765 78.2718C91.3407 80.3581 99.6235 79.2347 106.791 75.2227C113.959 71.0503 119.056 64.4706 121.127 56.4467C123.198 48.4227 122.242 40.0778 118.1 33.0168C113.959 25.7952 107.269 20.8204 99.3049 18.5737C91.5 16.4874 83.0579 17.6108 75.8901 21.6228Z" fill="url(#paint18_linear_1_352)"/>
    <path d="M83.0579 79.8766L83.9102 77.0003L83.87 76.9883L83.8294 76.9775L83.0579 79.8766ZM63.3066 64.7916L60.7005 66.2776L60.7074 66.2897L60.7144 66.3018L63.3066 64.7916ZM60.1209 40.0778L57.2226 39.3033L57.219 39.317L60.1209 40.0778ZM122.879 56.9281L125.777 57.7027L125.781 57.689L122.879 56.9281ZM107.747 76.6671L109.226 79.2771L109.238 79.2703L109.25 79.2635L107.747 76.6671ZM75.8901 21.6228L74.4248 19.0049L74.4027 19.0173L74.3808 19.03L75.8901 21.6228ZM64.5809 63.8287L67.1833 62.3363L67.1761 62.3236L67.1687 62.311L64.5809 63.8287ZM83.3765 78.2718L82.562 81.1592L82.589 81.1668L82.6163 81.1739L83.3765 78.2718ZM106.791 75.2227L108.257 77.8406L108.279 77.8282L108.301 77.8155L106.791 75.2227ZM118.1 33.0168L115.498 34.5092L115.505 34.5219L115.513 34.5345L118.1 33.0168ZM99.3049 18.5737L100.119 15.6864L100.1 15.6807L100.08 15.6754L99.3049 18.5737ZM91.5 78C88.8486 78 86.2793 77.7023 83.9102 77.0003L82.2056 82.753C85.2522 83.6558 88.4171 84 91.5 84V78ZM83.8294 76.9775C76.1665 74.9382 69.8067 69.9892 65.8988 63.2814L60.7144 66.3018C65.4079 74.3581 73.0652 80.3217 82.2864 82.7757L83.8294 76.9775ZM65.9127 63.3056C62.0065 56.4549 60.9888 48.5969 63.0228 40.8387L57.219 39.317C54.7931 48.5696 56.0054 58.0433 60.7005 66.2776L65.9127 63.3056ZM63.0192 40.8524C65.0434 33.2777 69.9558 26.871 76.7557 22.9354L73.7502 17.7425C65.5773 22.4727 59.6585 30.1882 57.2226 39.3033L63.0192 40.8524ZM76.7557 22.9354C83.5411 19.0082 91.4821 17.9823 99.1705 20.0284L100.714 14.2303C91.5178 11.783 81.9375 13.0038 73.7502 17.7425L76.7557 22.9354ZM99.1705 20.0284C106.86 22.0747 113.196 26.8758 117.087 33.7004L122.299 30.7284C117.589 22.4679 109.909 16.6774 100.714 14.2303L99.1705 20.0284ZM117.087 33.7004C120.993 40.5511 122.011 48.4091 119.977 56.1673L125.781 57.689C128.207 48.4364 126.995 38.9627 122.299 30.7284L117.087 33.7004ZM119.981 56.1536C117.957 63.7283 113.044 70.135 106.244 74.0706L109.25 79.2635C117.423 74.5333 123.341 66.8178 125.777 57.7026L119.981 56.1536ZM106.268 74.057C101.618 76.6921 96.5523 78 91.5 78V84C97.5976 84 103.682 82.4192 109.226 79.2771L106.268 74.057ZM74.3808 19.03C66.5423 23.593 60.9269 30.8248 58.6497 39.6492L64.4593 41.1484C66.3235 33.9249 70.9023 27.9975 77.3993 24.2155L74.3808 19.03ZM58.6497 39.6492C56.3965 48.3803 57.4198 57.5489 61.9931 65.3465L67.1687 62.311C63.4592 55.9864 62.5711 48.4652 64.4593 41.1484L58.6497 39.6492ZM61.9785 65.3212C66.5346 73.266 73.8905 78.7129 82.562 81.1592L84.191 75.3845C76.934 73.3373 70.91 68.8346 67.1833 62.3363L61.9785 65.3212ZM82.6163 81.1739C91.3471 83.461 100.426 82.2234 108.257 77.8406L105.326 72.6049C98.8208 76.246 91.3343 77.2552 84.1367 75.3698L82.6163 81.1739ZM108.301 77.8155C116.139 73.2525 121.754 66.0207 124.032 57.1963L118.222 55.6971C116.358 62.9206 111.779 68.848 105.282 72.63L108.301 77.8155ZM124.032 57.1963C126.285 48.4652 125.262 39.2966 120.688 31.499L115.513 34.5345C119.222 40.8591 120.11 48.3803 118.222 55.6971L124.032 57.1963ZM120.703 31.5243C116.147 23.5795 108.791 18.1326 100.119 15.6864L98.4904 21.461C105.747 23.5082 111.771 28.0109 115.498 34.5092L120.703 31.5243ZM100.08 15.6754C91.4964 13.3812 82.2527 14.6235 74.4248 19.0049L77.3554 24.2406C83.8631 20.5981 91.5035 19.5937 98.5302 21.4719L100.08 15.6754Z" fill="url(#paint19_linear_1_352)" mask="url(#path-19-inside-10_1_352)"/>
    <mask id="path-21-inside-11_1_352" fill="white">
        <path d="M95.5797 91C80.1059 91 66.3869 79.9235 63.5155 64.1917C60.325 46.5336 72.2893 29.6781 89.8369 26.4676C98.4512 25.0228 107.065 26.9492 114.084 31.9255C121.263 36.9019 125.889 44.2862 127.484 52.9548C130.675 70.6129 118.711 87.4684 101.163 90.6789C99.2488 90.8394 97.494 91 95.5797 91ZM95.5797 27.5913C93.825 27.5913 91.9107 27.7518 90.1559 28.0729C73.4059 30.9624 62.0798 47.1757 65.1107 63.8707C67.9821 80.7262 84.094 91.9632 101.004 88.9131C117.754 86.0236 129.08 69.8102 126.049 53.1153C124.613 44.9283 120.146 37.8651 113.287 33.2098C108.023 29.5176 101.961 27.5913 95.5797 27.5913Z"/>
    </mask>
    <path d="M95.5797 91C80.1059 91 66.3869 79.9235 63.5155 64.1917C60.325 46.5336 72.2893 29.6781 89.8369 26.4676C98.4512 25.0228 107.065 26.9492 114.084 31.9255C121.263 36.9019 125.889 44.2862 127.484 52.9548C130.675 70.6129 118.711 87.4684 101.163 90.6789C99.2488 90.8394 97.494 91 95.5797 91ZM95.5797 27.5913C93.825 27.5913 91.9107 27.7518 90.1559 28.0729C73.4059 30.9624 62.0798 47.1757 65.1107 63.8707C67.9821 80.7262 84.094 91.9632 101.004 88.9131C117.754 86.0236 129.08 69.8102 126.049 53.1153C124.613 44.9283 120.146 37.8651 113.287 33.2098C108.023 29.5176 101.961 27.5913 95.5797 27.5913Z" fill="url(#paint20_linear_1_352)"/>
    <path d="M63.5155 64.1917L60.5633 64.7251L60.5642 64.7304L63.5155 64.1917ZM89.8369 26.4676L89.3407 23.5089L89.3188 23.5126L89.297 23.5166L89.8369 26.4676ZM114.084 31.9255L112.349 34.3729L112.362 34.382L112.375 34.3911L114.084 31.9255ZM127.484 52.9548L130.437 52.4213L130.435 52.4118L127.484 52.9548ZM101.163 90.6789L101.414 93.6684L101.559 93.6562L101.703 93.6299L101.163 90.6789ZM90.1559 28.0729L90.6659 31.0292L90.6809 31.0266L90.6959 31.0239L90.1559 28.0729ZM65.1107 63.8707L68.0681 63.3669L68.0654 63.3508L68.0625 63.3348L65.1107 63.8707ZM101.004 88.9131L100.494 85.9568L100.482 85.9587L100.471 85.9608L101.004 88.9131ZM126.049 53.1153L123.094 53.6335L123.095 53.6423L123.097 53.6512L126.049 53.1153ZM113.287 33.2098L111.564 35.6659L111.583 35.6791L111.602 35.6921L113.287 33.2098ZM95.5797 88C81.5349 88 69.0744 77.9396 66.4667 63.6531L60.5642 64.7304C63.6995 81.9074 78.677 94 95.5797 94V88ZM66.4677 63.6583C63.5775 47.6623 74.4221 32.3377 90.3768 29.4186L89.297 23.5166C70.1565 27.0186 57.0725 45.4049 60.5633 64.7251L66.4677 63.6583ZM90.3331 29.4263C98.1835 28.1096 105.992 29.8657 112.349 34.3729L115.82 29.4782C108.139 24.0326 98.7189 21.936 89.3407 23.5089L90.3331 29.4263ZM112.375 34.3911C118.874 38.8963 123.076 45.5747 124.534 53.4977L130.435 52.4118C128.702 42.9978 123.652 34.9075 115.794 29.46L112.375 34.3911ZM124.532 53.4882C127.422 69.4842 116.578 84.8088 100.623 87.7279L101.703 93.6299C120.843 90.1279 133.927 71.7416 130.437 52.4214L124.532 53.4882ZM100.912 87.6894C98.9601 87.8531 97.3423 88 95.5797 88V94C97.6457 94 99.5374 93.8258 101.414 93.6684L100.912 87.6894ZM95.5797 24.5913C93.657 24.5913 91.5613 24.7659 89.616 25.1218L90.6959 31.0239C92.2601 30.7377 93.993 30.5913 95.5797 30.5913V24.5913ZM89.6459 25.1165C71.2535 28.2894 58.8302 46.0709 62.159 64.4066L68.0625 63.3348C65.3294 48.2805 75.5584 33.6354 90.6659 31.0292L89.6459 25.1165ZM62.1533 64.3745C65.3075 82.8895 82.9998 95.2089 101.536 91.8655L100.471 85.9608C85.1883 88.7174 70.6568 78.5628 68.0681 63.3669L62.1533 64.3745ZM101.514 91.8694C119.906 88.6966 132.329 70.915 129 52.5794L123.097 53.6512C125.83 68.7054 115.601 83.3506 100.494 85.9568L101.514 91.8694ZM129.004 52.5971C127.432 43.6346 122.523 35.8522 114.972 30.7275L111.602 35.6921C117.77 39.878 121.794 46.2221 123.094 53.6335L129.004 52.5971ZM115.009 30.7536C109.246 26.7112 102.584 24.5913 95.5797 24.5913V30.5913C101.338 30.5913 106.799 32.324 111.564 35.6659L115.009 30.7536Z" fill="url(#paint21_linear_1_352)" mask="url(#path-21-inside-11_1_352)"/>
    <mask id="path-23-inside-12_1_352" fill="white">
        <path d="M32.4746 102C17.0266 102 3.33049 90.8987 0.463861 75.1316C-0.969455 66.6045 0.941633 57.9165 5.87861 50.8374C10.8156 43.7584 18.3007 38.9317 26.9006 37.4837C44.5781 34.4268 61.4594 46.1717 64.4853 63.8694C67.6705 81.5672 55.7262 98.4604 38.2078 101.678C36.2968 101.839 34.3857 102 32.4746 102ZM32.4746 38.449C30.7228 38.449 28.9709 38.6099 27.0598 38.9317C18.9377 40.3797 11.7711 44.8846 7.15267 51.6419C2.37495 58.3992 0.623119 66.6045 2.05643 74.8098C3.48975 83.0151 7.94895 90.0942 14.797 94.76C21.6451 99.4258 29.7672 101.356 37.8893 99.9084C54.6114 97.0124 65.9186 80.7627 62.8927 64.0303C60.3446 49.0677 47.1263 38.449 32.4746 38.449Z"/>
    </mask>
    <path d="M32.4746 102C17.0266 102 3.33049 90.8987 0.463861 75.1316C-0.969455 66.6045 0.941633 57.9165 5.87861 50.8374C10.8156 43.7584 18.3007 38.9317 26.9006 37.4837C44.5781 34.4268 61.4594 46.1717 64.4853 63.8694C67.6705 81.5672 55.7262 98.4604 38.2078 101.678C36.2968 101.839 34.3857 102 32.4746 102ZM32.4746 38.449C30.7228 38.449 28.9709 38.6099 27.0598 38.9317C18.9377 40.3797 11.7711 44.8846 7.15267 51.6419C2.37495 58.3992 0.623119 66.6045 2.05643 74.8098C3.48975 83.0151 7.94895 90.0942 14.797 94.76C21.6451 99.4258 29.7672 101.356 37.8893 99.9084C54.6114 97.0124 65.9186 80.7627 62.8927 64.0303C60.3446 49.0677 47.1263 38.449 32.4746 38.449Z" fill="url(#paint22_linear_1_352)"/>
    <path d="M0.463861 75.1316L-2.49463 75.6289L-2.49132 75.6486L-2.48775 75.6682L0.463861 75.1316ZM26.9006 37.4837L27.3987 40.4421L27.4118 40.4398L26.9006 37.4837ZM64.4853 63.8694L61.5282 64.375L61.5304 64.3879L61.5327 64.4008L64.4853 63.8694ZM38.2078 101.678L38.4595 104.668L38.6056 104.655L38.7498 104.629L38.2078 101.678ZM27.0598 38.9317L26.5617 35.9733L26.5475 35.9757L26.5333 35.9783L27.0598 38.9317ZM7.15267 51.6419L9.60223 53.3738L9.61599 53.3544L9.62944 53.3347L7.15267 51.6419ZM37.8893 99.9084L37.3774 96.9524L37.3701 96.9537L37.3628 96.955L37.8893 99.9084ZM62.8927 64.0303L59.9353 64.5339L59.9379 64.5491L59.9406 64.5642L62.8927 64.0303ZM32.4746 99C18.4646 99 6.02063 88.9239 3.41547 74.595L-2.48775 75.6682C0.640352 92.8735 15.5887 105 32.4746 105V99ZM3.42236 74.6343C2.11732 66.8704 3.85813 58.9791 8.3393 52.5535L3.41792 49.1214C-1.97487 56.854 -4.05623 66.3387 -2.49463 75.6289L3.42236 74.6343ZM8.3393 52.5535C12.8239 46.1231 19.6078 41.7538 27.3987 40.4421L26.4025 34.5253C16.9936 36.1095 8.80726 41.3936 3.41792 49.1214L8.3393 52.5535ZM27.4118 40.4398C43.4788 37.6614 58.7861 48.3367 61.5282 64.375L67.4424 63.3638C64.1328 44.0066 45.6775 31.1922 26.3894 34.5276L27.4118 40.4398ZM61.5327 64.4008C64.4208 80.448 53.5828 95.8039 37.6659 98.7276L38.7498 104.629C57.8695 101.117 70.9201 82.6863 67.4379 63.338L61.5327 64.4008ZM37.9562 98.6888C36.0237 98.8515 34.2385 99 32.4746 99V105C34.5329 105 36.5698 104.827 38.4595 104.668L37.9562 98.6888ZM32.4746 35.449C30.5321 35.449 28.6121 35.6281 26.5617 35.9733L27.5579 41.8901C29.3297 41.5917 30.9135 41.449 32.4746 41.449V35.449ZM26.5333 35.9783C17.6504 37.5619 9.76697 42.5003 4.6759 49.9491L9.62944 53.3347C13.7753 47.2689 20.225 43.1975 27.5864 41.8851L26.5333 35.9783ZM4.70311 49.9099C-0.551487 57.3417 -2.46481 66.3612 -0.898816 75.3261L5.01169 74.2936C3.71105 66.8478 5.30139 59.4567 9.60223 53.3738L4.70311 49.9099ZM-0.898816 75.3261C0.669385 84.3036 5.5681 92.1022 13.1078 97.2393L16.4862 92.2808C10.3298 88.0862 6.31012 81.7267 5.01169 74.2936L-0.898816 75.3261ZM13.1078 97.2393C20.5599 102.317 29.4705 104.457 38.4159 102.862L37.3628 96.955C30.0639 98.2562 22.7302 96.535 16.4862 92.2808L13.1078 97.2393ZM38.4013 102.864C56.7744 99.6825 69.1653 81.8578 65.8449 63.4964L59.9406 64.5642C62.6719 79.6676 52.4483 94.3424 37.3774 96.9524L38.4013 102.864ZM65.8502 63.5267C63.049 47.0784 48.5438 35.449 32.4746 35.449V41.449C45.7087 41.449 57.6402 51.0569 59.9353 64.5339L65.8502 63.5267Z" fill="url(#paint23_linear_1_352)" mask="url(#path-23-inside-12_1_352)"/>
    <mask id="path-25-inside-13_1_352" fill="white">
        <path d="M32.5001 91C30.5881 91 28.6761 90.8395 26.764 90.5184C9.23735 87.4684 -2.55334 70.4523 0.474002 52.9548C1.908 44.4468 6.68801 36.9019 13.858 31.9255C21.028 26.9492 29.6321 25.0228 38.0767 26.4676C55.7628 29.6781 67.5535 46.5336 64.5261 64.1917C61.6581 79.9235 47.9554 91 32.5001 91ZM32.5001 27.5913C26.286 27.5913 20.072 29.5176 14.814 33.2098C8.12201 38.0256 3.50134 45.0889 2.06734 53.1153C-0.960001 69.9708 10.3527 86.0236 27.0827 88.9131C43.8128 91.8026 59.9054 80.5656 62.9328 63.8707C65.9601 47.0152 54.6474 30.9624 37.9174 28.0729C36.0054 27.7518 34.2527 27.5913 32.5001 27.5913Z"/>
    </mask>
    <path d="M32.5001 91C30.5881 91 28.6761 90.8395 26.764 90.5184C9.23735 87.4684 -2.55334 70.4523 0.474002 52.9548C1.908 44.4468 6.68801 36.9019 13.858 31.9255C21.028 26.9492 29.6321 25.0228 38.0767 26.4676C55.7628 29.6781 67.5535 46.5336 64.5261 64.1917C61.6581 79.9235 47.9554 91 32.5001 91ZM32.5001 27.5913C26.286 27.5913 20.072 29.5176 14.814 33.2098C8.12201 38.0256 3.50134 45.0889 2.06734 53.1153C-0.960001 69.9708 10.3527 86.0236 27.0827 88.9131C43.8128 91.8026 59.9054 80.5656 62.9328 63.8707C65.9601 47.0152 54.6474 30.9624 37.9174 28.0729C36.0054 27.7518 34.2527 27.5913 32.5001 27.5913Z" fill="url(#paint24_linear_1_352)"/>
    <path d="M26.764 90.5184L26.2497 93.474L26.2585 93.4755L26.2673 93.477L26.764 90.5184ZM0.474002 52.9548L3.43011 53.4662L3.43228 53.4534L0.474002 52.9548ZM38.0767 26.4676L38.6126 23.5158L38.5976 23.5131L38.5826 23.5105L38.0767 26.4676ZM64.5261 64.1917L67.4775 64.7298L67.4803 64.7142L67.483 64.6987L64.5261 64.1917ZM14.814 33.2098L13.09 30.7546L13.0758 30.7646L13.0617 30.7748L14.814 33.2098ZM2.06734 53.1153L5.02009 53.6456L5.02058 53.6429L2.06734 53.1153ZM62.9328 63.8707L65.8847 64.406L65.8855 64.401L62.9328 63.8707ZM37.9174 28.0729L38.428 25.1166L38.4142 25.1143L37.9174 28.0729ZM32.5001 88C30.7568 88 29.011 87.8537 27.2608 87.5598L26.2673 93.477C28.3411 93.8252 30.4193 94 32.5001 94V88ZM27.2784 87.5628C11.4074 84.8009 0.68076 69.3569 3.43008 53.4662L-2.48208 52.4433C-5.78743 71.5478 7.06735 90.1358 26.2497 93.474L27.2784 87.5628ZM3.43228 53.4534C4.7315 45.745 9.05962 38.9077 15.5686 34.3901L12.1475 29.461C4.31641 34.8962 -0.91549 43.1485 -2.48427 52.4561L3.43228 53.4534ZM15.5686 34.3901C22.1023 29.8554 29.9122 28.1143 37.5708 29.4246L38.5826 23.5105C29.3519 21.9313 19.9538 24.043 12.1475 29.461L15.5686 34.3901ZM37.5409 29.4193C53.6104 32.3365 64.3182 47.6508 61.5693 63.6848L67.483 64.6987C70.7888 45.4164 57.9152 27.0198 38.6126 23.5158L37.5409 29.4193ZM61.5748 63.6537C58.9698 77.9424 46.5237 88 32.5001 88V94C49.3871 94 64.3464 81.9047 67.4775 64.7298L61.5748 63.6537ZM32.5001 24.5913C25.6704 24.5913 18.8541 26.7071 13.09 30.7546L16.538 35.6649C21.29 32.3281 26.9017 30.5913 32.5001 30.5913V24.5913ZM13.0617 30.7748C5.77296 36.02 0.692932 43.7506 -0.885899 52.5877L5.02058 53.6429C6.30975 46.4271 10.4711 40.0312 16.5664 35.6448L13.0617 30.7748ZM-0.885415 52.585C-4.20715 71.0796 8.20236 88.6966 26.5721 91.8693L27.5933 85.9569C12.503 83.3506 2.28715 68.862 5.02009 53.6456L-0.885415 52.585ZM26.5721 91.8693C44.9224 95.0387 62.5629 82.7244 65.8847 64.406L59.9809 63.3354C57.248 78.4069 42.7031 88.5666 27.5933 85.9569L26.5721 91.8693ZM65.8855 64.401C69.2073 45.9064 56.7978 28.2893 38.428 25.1166L37.4068 31.0291C52.4971 33.6354 62.713 48.124 59.98 63.3404L65.8855 64.401ZM38.4142 25.1143C36.3632 24.7699 34.4429 24.5913 32.5001 24.5913V30.5913C34.0625 30.5913 35.6476 30.7337 37.4206 31.0314L38.4142 25.1143Z" fill="url(#paint25_linear_1_352)" mask="url(#path-25-inside-13_1_352)"/>
    <mask id="path-27-inside-14_1_352" fill="white">
        <path d="M95.5001 102C93.5881 102 91.6761 101.84 89.7641 101.519C72.2374 98.3111 60.4467 81.4702 63.474 63.8274C66.6607 46.1847 83.55 34.3159 101.077 37.5237C118.763 40.571 130.553 57.5723 127.526 75.0547C126.092 83.5553 121.312 91.0935 114.142 96.0656C108.565 99.9149 102.192 102 95.5001 102ZM95.5001 38.6464C80.8414 38.6464 67.776 49.232 65.0673 64.1482C62.04 80.989 73.3527 97.0279 90.0827 99.9149C106.813 102.802 122.905 91.5747 125.933 74.8943C128.96 58.0534 117.647 42.0145 100.917 39.1275C99.0054 38.8068 97.2527 38.6464 95.5001 38.6464Z"/>
    </mask>
    <path d="M95.5001 102C93.5881 102 91.6761 101.84 89.7641 101.519C72.2374 98.3111 60.4467 81.4702 63.474 63.8274C66.6607 46.1847 83.55 34.3159 101.077 37.5237C118.763 40.571 130.553 57.5723 127.526 75.0547C126.092 83.5553 121.312 91.0935 114.142 96.0656C108.565 99.9149 102.192 102 95.5001 102ZM95.5001 38.6464C80.8414 38.6464 67.776 49.232 65.0673 64.1482C62.04 80.989 73.3527 97.0279 90.0827 99.9149C106.813 102.802 122.905 91.5747 125.933 74.8943C128.96 58.0534 117.647 42.0145 100.917 39.1275C99.0054 38.8068 97.2527 38.6464 95.5001 38.6464Z" fill="url(#paint26_linear_1_352)"/>
    <path d="M89.7641 101.519L89.224 104.47L89.2458 104.474L89.2677 104.477L89.7641 101.519ZM63.474 63.8274L60.5218 63.2942L60.5194 63.3071L60.5172 63.3201L63.474 63.8274ZM101.077 37.5237L100.537 40.4746L100.552 40.4774L100.567 40.4801L101.077 37.5237ZM127.526 75.0547L124.57 74.5428L124.568 74.5556L127.526 75.0547ZM114.142 96.0656L115.846 98.5346L115.852 98.5309L114.142 96.0656ZM65.0673 64.1482L62.1156 63.6122L62.1147 63.6174L65.0673 64.1482ZM125.933 74.8943L128.885 75.43L128.885 75.425L125.933 74.8943ZM100.917 39.1275L101.428 36.1712L101.414 36.1689L100.917 39.1275ZM95.5001 99C93.7567 99 92.0107 98.8538 90.2604 98.5602L89.2677 104.477C91.3414 104.825 93.4194 105 95.5001 105V99ZM90.3042 98.5678C74.3963 95.6563 63.6812 80.3592 66.4308 64.3348L60.5172 63.3201C57.2122 82.5813 70.0784 100.966 89.224 104.47L90.3042 98.5678ZM66.4262 64.3607C69.3235 48.3201 84.6731 37.5713 100.537 40.4746L101.617 34.5727C82.4269 31.0605 63.9978 44.0492 60.5218 63.2942L66.4262 64.3607ZM100.567 40.4801C116.604 43.2433 127.317 58.6783 124.57 74.5428L130.482 75.5665C133.79 56.4662 120.922 37.8988 101.586 34.5672L100.567 40.4801ZM124.568 74.5556C123.269 82.2558 118.942 89.0867 112.433 93.6003L115.852 98.5309C123.683 93.1004 128.915 84.8547 130.484 75.5537L124.568 74.5556ZM112.438 93.5967C107.334 97.1198 101.55 99 95.5001 99V105C102.835 105 109.797 102.71 115.846 98.5345L112.438 93.5967ZM95.5001 35.6464C79.4071 35.6464 65.0862 47.2538 62.1156 63.6122L68.0191 64.6842C70.4658 51.2103 82.2757 41.6464 95.5001 41.6464V35.6464ZM62.1147 63.6174C58.7922 82.1 71.2047 99.7016 89.5726 102.871L90.5929 96.9586C75.5007 94.3543 65.2878 79.8781 68.02 64.679L62.1147 63.6174ZM89.5726 102.871C107.92 106.037 125.562 93.7357 128.885 75.43L122.981 74.3585C120.249 89.4137 105.705 99.5665 90.5929 96.9586L89.5726 102.871ZM128.885 75.425C132.208 56.9425 119.795 39.3409 101.428 36.1712L100.407 42.0838C115.499 44.6882 125.712 59.1644 122.98 74.3635L128.885 75.425ZM101.414 36.1689C99.3629 35.8248 97.4427 35.6464 95.5001 35.6464V41.6464C97.0627 41.6464 98.6479 41.7887 100.421 42.0862L101.414 36.1689Z" fill="url(#paint27_linear_1_352)" mask="url(#path-27-inside-14_1_352)"/>
    <mask id="path-29-inside-15_1_352" fill="white">
        <path d="M91.5 113C85.925 113 80.3501 111.556 75.253 108.667C67.7666 104.334 62.3509 97.273 60.1209 88.9281C57.8909 80.5832 59.0059 71.7569 63.3066 64.2144C67.6073 56.6719 74.6158 51.3761 83.0579 49.1294C91.5 46.8826 100.261 48.006 107.747 52.3389C115.233 56.6719 120.649 63.7329 122.879 72.0778C125.109 80.4228 123.994 89.2491 119.693 96.7916C115.393 104.334 108.384 109.63 99.942 111.877C97.2342 112.679 94.3671 113 91.5 113ZM91.6593 49.6108C88.9514 49.6108 86.2436 49.9317 83.5357 50.7341C75.5715 52.8204 68.8816 57.9557 64.7402 65.1773C60.5988 72.3988 59.4838 80.5832 61.7138 88.6072C63.7845 96.6311 69.0409 103.211 76.0494 107.383C83.2172 111.556 91.5 112.679 99.4642 110.432C107.428 108.346 114.118 103.211 118.26 95.9892C122.401 88.7677 123.516 80.5832 121.286 72.5593C119.215 64.5353 113.959 57.9557 106.951 53.7832C102.172 51.0551 96.9156 49.6108 91.6593 49.6108Z"/>
    </mask>
    <path d="M91.5 113C85.925 113 80.3501 111.556 75.253 108.667C67.7666 104.334 62.3509 97.273 60.1209 88.9281C57.8909 80.5832 59.0059 71.7569 63.3066 64.2144C67.6073 56.6719 74.6158 51.3761 83.0579 49.1294C91.5 46.8826 100.261 48.006 107.747 52.3389C115.233 56.6719 120.649 63.7329 122.879 72.0778C125.109 80.4228 123.994 89.2491 119.693 96.7916C115.393 104.334 108.384 109.63 99.942 111.877C97.2342 112.679 94.3671 113 91.5 113ZM91.6593 49.6108C88.9514 49.6108 86.2436 49.9317 83.5357 50.7341C75.5715 52.8204 68.8816 57.9557 64.7402 65.1773C60.5988 72.3988 59.4838 80.5832 61.7138 88.6072C63.7845 96.6311 69.0409 103.211 76.0494 107.383C83.2172 111.556 91.5 112.679 99.4642 110.432C107.428 108.346 114.118 103.211 118.26 95.9892C122.401 88.7677 123.516 80.5832 121.286 72.5593C119.215 64.5353 113.959 57.9557 106.951 53.7832C102.172 51.0551 96.9156 49.6108 91.6593 49.6108Z" fill="url(#paint28_linear_1_352)"/>
    <path d="M75.253 108.667L73.7502 111.264L73.762 111.27L73.7738 111.277L75.253 108.667ZM99.942 111.877L99.1705 108.978L99.1299 108.988L99.0897 109L99.942 111.877ZM83.5357 50.7341L84.2959 53.6362L84.3422 53.6241L84.3881 53.6105L83.5357 50.7341ZM61.7138 88.6072L64.6186 87.8576L64.6117 87.8307L64.6042 87.8039L61.7138 88.6072ZM76.0494 107.383L74.5147 109.961L74.5274 109.969L74.5401 109.976L76.0494 107.383ZM99.4642 110.432L98.704 107.53L98.6768 107.537L98.6497 107.545L99.4642 110.432ZM121.286 72.5593L118.381 73.3089L118.388 73.3358L118.396 73.3626L121.286 72.5593ZM106.951 53.7832L108.485 51.2055L108.462 51.1915L108.438 51.1779L106.951 53.7832ZM91.5 110C86.4477 110 81.3818 108.692 76.7321 106.057L73.7738 111.277C79.3183 114.419 85.4024 116 91.5 116V110ZM76.7557 106.071C69.9558 102.135 65.0434 95.7283 63.0192 88.1536L57.2226 89.7026C59.6585 98.8178 65.5773 106.533 73.7502 111.264L76.7557 106.071ZM63.0192 88.1536C60.9919 80.5671 62.0052 72.5534 65.9127 65.7004L60.7005 62.7284C56.0067 70.9604 54.79 80.5994 57.2226 89.7026L63.0192 88.1536ZM65.9127 65.7004C69.804 58.8758 76.1404 54.0747 83.8294 52.0284L82.2864 46.2303C73.0912 48.6774 65.4106 54.4679 60.7005 62.7284L65.9127 65.7004ZM83.8294 52.0284C91.5178 49.9823 99.4588 51.0082 106.244 54.9354L109.25 49.7425C101.062 45.0038 91.4821 43.783 82.2864 46.2303L83.8294 52.0284ZM106.244 54.9354C113.044 58.871 117.957 65.2777 119.981 72.8524L125.777 71.3033C123.341 62.1882 117.423 54.4727 109.25 49.7425L106.244 54.9354ZM119.981 72.8524C122.008 80.4389 120.995 88.4526 117.087 95.3056L122.299 98.2776C126.993 90.0456 128.21 80.4066 125.777 71.3033L119.981 72.8524ZM117.087 95.3056C113.196 102.13 106.86 106.931 99.1705 108.978L100.714 114.776C109.909 112.329 117.589 106.538 122.299 98.2776L117.087 95.3056ZM99.0897 109C96.7206 109.702 94.1513 110 91.5 110V116C94.5828 116 97.7478 115.656 100.794 114.753L99.0897 109ZM91.6593 46.6108C88.7111 46.6108 85.7106 46.9607 82.6834 47.8578L84.3881 53.6105C86.7765 52.9028 89.1918 52.6108 91.6593 52.6108V46.6108ZM82.7755 47.8321C74.0251 50.1242 66.6752 55.7726 62.1378 63.6848L67.3426 66.6697C71.0879 60.1388 77.118 55.5165 84.2959 53.6362L82.7755 47.8321ZM62.1378 63.6848C57.6091 71.5817 56.3722 80.591 58.8233 89.4105L64.6042 87.8039C62.5953 80.5755 63.5885 73.2159 67.3426 66.6697L62.1378 63.6848ZM58.8089 89.3568C61.093 98.2074 66.8818 105.417 74.5147 109.961L77.584 104.805C71.1999 101.005 66.476 95.0549 64.6186 87.8576L58.8089 89.3568ZM74.5401 109.976C82.3926 114.547 91.5121 115.793 100.279 113.32L98.6497 107.545C91.4878 109.565 84.0418 108.564 77.5586 104.791L74.5401 109.976ZM100.224 113.334C108.975 111.042 116.325 105.394 120.862 97.4817L115.657 94.4968C111.912 101.028 105.882 105.65 98.704 107.53L100.224 113.334ZM120.862 97.4817C125.391 89.5848 126.628 80.5755 124.177 71.756L118.396 73.3626C120.405 80.591 119.411 87.9506 115.657 94.4968L120.862 97.4817ZM124.191 71.8097C121.907 62.9591 116.118 55.7497 108.485 51.2055L105.416 56.361C111.8 60.1617 116.524 66.1116 118.381 73.3089L124.191 71.8097ZM108.438 51.1779C103.234 48.2067 97.4677 46.6108 91.6593 46.6108V52.6108C96.3635 52.6108 101.111 53.9036 105.463 56.3885L108.438 51.1779Z" fill="url(#paint29_linear_1_352)" mask="url(#path-29-inside-15_1_352)"/>
    <path d="M64.6975 64.8006C60.3965 72.3389 53.3875 77.6318 44.9449 79.8773L64.6975 64.8006Z" fill="url(#paint30_linear_1_352)" stroke="url(#paint31_linear_1_352)" stroke-width="3"/>
    <mask id="path-32-inside-16_1_352" fill="white">
        <path d="M43.5 73C34.2533 73 25.0067 68.9837 18.6297 61.433C13.0499 54.8463 10.3397 46.3317 11.1368 37.6565C11.9339 28.9813 15.9195 21.1094 22.6154 15.6472C29.3112 10.0244 37.7607 7.45393 46.3696 8.09654C54.9785 8.8998 62.7903 12.9161 68.3702 19.6635C73.9501 26.2502 76.6603 34.7648 75.8631 43.44C75.066 52.1152 71.0804 59.9872 64.3846 65.4493C58.3265 70.5902 50.9929 73 43.5 73ZM43.5 9.54241C36.3259 9.54241 29.3112 12.1128 23.7313 16.7718C17.3543 22.0733 13.5282 29.6239 12.731 37.8172C11.9339 46.0104 14.4847 54.043 19.9051 60.4691C30.9054 73.4819 50.3552 75.2491 63.428 64.3248C69.805 59.0233 73.6312 51.4726 74.4283 43.2793C75.2254 35.0861 72.6747 27.0535 67.2542 20.6274C61.9932 14.362 54.5003 10.3457 46.2102 9.70306C45.2536 9.54241 44.2971 9.54241 43.5 9.54241Z"/>
    </mask>
    <path d="M43.5 73C34.2533 73 25.0067 68.9837 18.6297 61.433C13.0499 54.8463 10.3397 46.3317 11.1368 37.6565C11.9339 28.9813 15.9195 21.1094 22.6154 15.6472C29.3112 10.0244 37.7607 7.45393 46.3696 8.09654C54.9785 8.8998 62.7903 12.9161 68.3702 19.6635C73.9501 26.2502 76.6603 34.7648 75.8631 43.44C75.066 52.1152 71.0804 59.9872 64.3846 65.4493C58.3265 70.5902 50.9929 73 43.5 73ZM43.5 9.54241C36.3259 9.54241 29.3112 12.1128 23.7313 16.7718C17.3543 22.0733 13.5282 29.6239 12.731 37.8172C11.9339 46.0104 14.4847 54.043 19.9051 60.4691C30.9054 73.4819 50.3552 75.2491 63.428 64.3248C69.805 59.0233 73.6312 51.4726 74.4283 43.2793C75.2254 35.0861 72.6747 27.0535 67.2542 20.6274C61.9932 14.362 54.5003 10.3457 46.2102 9.70306C45.2536 9.54241 44.2971 9.54241 43.5 9.54241Z" fill="url(#paint32_linear_1_352)"/>
    <path d="M18.6297 61.433L20.9217 59.4973L20.9188 59.4939L18.6297 61.433ZM22.6154 15.6472L24.5117 17.9718L24.5282 17.9583L24.5446 17.9446L22.6154 15.6472ZM46.3696 8.09654L46.6483 5.10951L46.6206 5.10693L46.5929 5.10486L46.3696 8.09654ZM68.3702 19.6635L66.0583 21.5753L66.0696 21.5891L66.0811 21.6026L68.3702 19.6635ZM64.3846 65.4493L62.4882 63.1247L62.4657 63.1431L62.4435 63.1619L64.3846 65.4493ZM23.7313 16.7718L25.6492 19.0787L25.6541 19.0746L23.7313 16.7718ZM19.9051 60.4691L17.612 62.4034L17.6141 62.4059L19.9051 60.4691ZM63.428 64.3248L61.5102 62.0179L61.5043 62.0227L63.428 64.3248ZM67.2542 20.6274L64.9567 22.5566L64.9611 22.5617L67.2542 20.6274ZM46.2102 9.70306L45.7133 12.6616L45.8451 12.6838L45.9783 12.6941L46.2102 9.70306ZM43.5 70C35.1089 70 26.7109 66.3521 20.9217 59.4973L16.3378 63.3687C23.3025 71.6153 33.3978 76 43.5 76V70ZM20.9188 59.4939C15.8581 53.52 13.4009 45.8026 14.1242 37.931L8.14938 37.382C7.27841 46.8609 10.2417 56.1726 16.3407 63.3722L20.9188 59.4939ZM14.1242 37.931C14.8523 30.0076 18.4782 22.8937 24.5117 17.9718L20.719 13.3226C13.3609 19.325 9.01557 27.9551 8.14938 37.382L14.1242 37.931ZM24.5446 17.9446C30.6164 12.8458 38.2854 10.5014 46.1463 11.0882L46.5929 5.10486C37.236 4.40641 28.006 7.20295 20.6861 13.3498L24.5446 17.9446ZM46.0909 11.0836C53.9269 11.8147 60.9995 15.4581 66.0583 21.5753L70.6821 17.7516C64.5811 10.3741 56.0302 5.98489 46.6483 5.10951L46.0909 11.0836ZM66.0811 21.6026C71.1419 27.5766 73.599 35.2939 72.8757 43.1655L78.8506 43.7145C79.7215 34.2357 76.7582 24.9239 70.6592 17.7244L66.0811 21.6026ZM72.8757 43.1655C72.1477 51.089 68.5217 58.2028 62.4882 63.1247L66.2809 67.774C73.6391 61.7715 77.9844 53.1415 78.8506 43.7145L72.8757 43.1655ZM62.4435 63.1619C56.9675 67.8088 50.3361 70 43.5 70V76C51.6497 76 59.6854 73.3716 66.3257 67.7367L62.4435 63.1619ZM43.5 6.54241C35.6107 6.54241 27.9183 9.36756 21.8086 14.4689L25.6541 19.0746C30.704 14.8581 37.041 12.5424 43.5 12.5424V6.54241ZM21.8135 14.4648C14.7999 20.2956 10.6151 28.5851 9.74514 37.5267L15.7169 38.1077C16.4413 30.6628 19.9088 23.8509 25.6492 19.0787L21.8135 14.4648ZM9.74514 37.5267C8.86762 46.5463 11.6845 55.3762 17.612 62.4034L22.1983 58.5348C17.2849 52.7098 15.0002 45.4746 15.7169 38.1077L9.74514 37.5267ZM17.6141 62.4059C29.6702 76.6677 51.0014 78.6187 65.3517 66.6268L61.5043 62.0227C49.709 71.8795 32.1406 70.2962 22.1962 58.5324L17.6141 62.4059ZM65.3459 66.6317C72.3595 60.8009 76.5443 52.5115 77.4142 43.5698L71.4424 42.9888C70.7181 50.4337 67.2505 57.2456 61.5102 62.0179L65.3459 66.6317ZM77.4142 43.5698C78.2917 34.5502 75.4748 25.7203 69.5474 18.6931L64.9611 22.5617C69.8745 28.3867 72.1591 35.6219 71.4424 42.9888L77.4142 43.5698ZM69.5517 18.6982C63.7937 11.8409 55.5673 7.41938 46.442 6.71203L45.9783 12.6941C53.4332 13.272 60.1928 16.883 64.9568 22.5566L69.5517 18.6982ZM46.7071 6.74449C45.4672 6.53626 44.268 6.54241 43.5 6.54241V12.5424C44.3261 12.5424 45.0401 12.5486 45.7133 12.6616L46.7071 6.74449Z" fill="url(#paint33_linear_1_352)" mask="url(#path-32-inside-16_1_352)"/>
    <mask id="path-34-inside-17_1_352" fill="white">
        <path d="M84.5 121C75.2379 121 65.9758 116.983 59.5881 109.431C48.0903 95.6117 49.8469 75.2047 63.5804 63.6353C77.3139 52.066 97.9141 53.8335 109.412 67.6525C120.91 81.4714 119.153 101.878 105.42 113.448C99.3513 118.429 91.8458 121 84.5 121ZM84.5 57.5293C77.4735 57.5293 70.4471 59.9396 64.5385 64.7601C51.4438 75.6867 49.6872 95.2903 60.7059 108.306C71.7247 121.321 91.207 123.089 104.302 112.162C117.396 101.236 119.153 81.6321 108.134 68.6166C102.066 61.2251 93.283 57.5293 84.5 57.5293Z"/>
    </mask>
    <path d="M84.5 121C75.2379 121 65.9758 116.983 59.5881 109.431C48.0903 95.6117 49.8469 75.2047 63.5804 63.6353C77.3139 52.066 97.9141 53.8335 109.412 67.6525C120.91 81.4714 119.153 101.878 105.42 113.448C99.3513 118.429 91.8458 121 84.5 121ZM84.5 57.5293C77.4735 57.5293 70.4471 59.9396 64.5385 64.7601C51.4438 75.6867 49.6872 95.2903 60.7059 108.306C71.7247 121.321 91.207 123.089 104.302 112.162C117.396 101.236 119.153 81.6321 108.134 68.6166C102.066 61.2251 93.283 57.5293 84.5 57.5293Z" fill="url(#paint34_linear_1_352)"/>
    <path d="M59.5881 109.431L57.282 111.349L57.2897 111.359L57.2976 111.368L59.5881 109.431ZM105.42 113.448L107.323 115.767L107.338 115.754L107.352 115.742L105.42 113.448ZM64.5385 64.7601L62.6421 62.4356L62.6292 62.4461L62.6165 62.4567L64.5385 64.7601ZM108.134 68.6166L105.816 70.5202L105.83 70.5377L105.845 70.555L108.134 68.6166ZM84.5 118C76.0918 118 67.678 114.35 61.8787 107.493L57.2976 111.368C64.2735 119.616 74.3839 124 84.5 124V118ZM61.8942 107.512C51.4453 94.9535 53.049 76.4298 65.5132 65.9297L61.6476 61.341C46.6449 73.9795 44.7354 96.27 57.282 111.349L61.8942 107.512ZM65.5132 65.9297C77.9806 55.4269 96.6777 57.0381 107.106 69.5713L111.718 65.7337C99.1504 50.629 76.6471 48.7051 61.6476 61.341L65.5132 65.9297ZM107.106 69.5713C117.555 82.1297 115.951 100.653 103.487 111.153L107.352 115.742C122.355 103.104 124.265 80.8132 111.718 65.7337L107.106 69.5713ZM103.516 111.129C97.9894 115.666 91.1581 118 84.5 118V124C92.5334 124 100.713 121.192 107.323 115.767L103.516 111.129ZM84.5 54.5293C76.7785 54.5293 69.083 57.1807 62.6421 62.4356L66.435 67.0847C71.8112 62.6985 78.1686 60.5293 84.5 60.5293V54.5293ZM62.6165 62.4567C48.2512 74.4435 46.3149 95.9499 58.4163 110.244L62.9956 106.367C53.0595 94.6308 54.6365 76.9299 66.4606 67.0636L62.6165 62.4567ZM58.4163 110.244C70.4911 124.507 91.8526 126.457 106.224 114.466L102.38 109.859C90.5614 119.72 72.9582 118.135 62.9956 106.367L58.4163 110.244ZM106.224 114.466C120.589 102.479 122.525 80.9725 110.424 66.6782L105.845 70.555C115.781 82.2917 114.204 99.9925 102.38 109.859L106.224 114.466ZM110.453 66.713C103.777 58.5807 94.1189 54.5293 84.5 54.5293V60.5293C92.4471 60.5293 100.355 63.8694 105.816 70.5202L110.453 66.713Z" fill="url(#paint35_linear_1_352)" mask="url(#path-34-inside-17_1_352)"/>
    <mask id="path-36-inside-18_1_352" fill="white">
        <path d="M75.5798 126C62.334 126 49.7266 117.824 44.939 104.679C38.8747 87.847 47.4924 69.2514 64.4086 62.9995C72.5476 59.9536 81.4845 60.4346 89.3043 64.1216C97.1241 67.8087 103.188 74.2209 106.061 82.3966C112.125 99.2288 103.508 117.824 86.5913 124.076C83.0804 125.359 79.2503 126 75.5798 126ZM75.5798 62.6788C72.0688 62.6788 68.3983 63.3201 65.047 64.6025C48.9287 70.3736 40.6301 88.1676 46.5349 104.198C52.4396 120.229 70.1538 128.405 86.2721 122.634C94.0919 119.748 100.316 114.137 103.667 106.603C107.178 99.0685 107.497 90.7325 104.625 83.0378C101.752 75.3431 96.1665 69.0911 88.6659 65.5644C84.5167 63.6407 80.0482 62.6788 75.5798 62.6788Z"/>
    </mask>
    <path d="M75.5798 126C62.334 126 49.7266 117.824 44.939 104.679C38.8747 87.847 47.4924 69.2514 64.4086 62.9995C72.5476 59.9536 81.4845 60.4346 89.3043 64.1216C97.1241 67.8087 103.188 74.2209 106.061 82.3966C112.125 99.2288 103.508 117.824 86.5913 124.076C83.0804 125.359 79.2503 126 75.5798 126ZM75.5798 62.6788C72.0688 62.6788 68.3983 63.3201 65.047 64.6025C48.9287 70.3736 40.6301 88.1676 46.5349 104.198C52.4396 120.229 70.1538 128.405 86.2721 122.634C94.0919 119.748 100.316 114.137 103.667 106.603C107.178 99.0685 107.497 90.7325 104.625 83.0378C101.752 75.3431 96.1665 69.0911 88.6659 65.5644C84.5167 63.6407 80.0482 62.6788 75.5798 62.6788Z" fill="url(#paint36_linear_1_352)"/>
    <path d="M44.939 104.679L42.1166 105.696L42.1201 105.706L44.939 104.679ZM64.4086 62.9995L65.4486 65.8134L65.4601 65.8092L64.4086 62.9995ZM106.061 82.3966L103.231 83.391L103.235 83.4022L103.239 83.4134L106.061 82.3966ZM86.5913 124.076L87.6206 126.894L87.6313 126.89L86.5913 124.076ZM65.047 64.6025L66.0583 67.4269L66.0888 67.416L66.1192 67.4044L65.047 64.6025ZM86.2721 122.634L87.2834 125.458L87.297 125.453L87.3107 125.448L86.2721 122.634ZM103.667 106.603L100.948 105.336L100.937 105.36L100.926 105.384L103.667 106.603ZM88.6659 65.5644L89.9424 62.8495L89.9351 62.846L89.9278 62.8426L88.6659 65.5644ZM75.5798 123C63.5349 123 52.0937 115.557 47.7578 103.653L42.1201 105.706C47.3595 120.091 61.1331 129 75.5798 129V123ZM47.7614 103.662C42.2565 88.3829 50.0744 71.4955 65.4486 65.8134L63.3687 60.1855C44.9103 67.0074 35.4928 87.3111 42.1166 105.696L47.7614 103.662ZM65.4601 65.8092C72.8163 63.0563 80.9131 63.4819 88.0249 66.8351L90.5837 61.4081C82.0559 57.3872 72.2789 56.851 63.3572 60.1898L65.4601 65.8092ZM88.0249 66.8351C95.1666 70.2024 100.641 76.0216 103.231 83.391L108.891 81.4021C105.735 72.4202 99.0816 65.4149 90.5837 61.4081L88.0249 66.8351ZM103.239 83.4134C108.743 98.6928 100.926 115.58 85.5513 121.262L87.6313 126.89C106.09 120.068 115.507 99.7647 108.883 81.3797L103.239 83.4134ZM85.562 121.258C82.3959 122.415 78.9155 123 75.5798 123V129C79.585 129 83.7649 128.303 87.6206 126.894L85.562 121.258ZM75.5798 59.6788C71.7191 59.6788 67.6838 60.3814 63.9748 61.8007L66.1192 67.4044C69.1129 66.2588 72.4186 65.6788 75.5798 65.6788V59.6788ZM64.0357 61.7781C46.3475 68.1112 37.2386 87.6397 43.7198 105.235L49.35 103.161C44.0216 88.6955 51.5098 72.6359 66.0583 67.4269L64.0357 61.7781ZM43.7198 105.235C50.1998 122.828 69.6325 131.778 87.2834 125.458L85.2609 119.809C70.6751 125.031 54.6794 117.63 49.35 103.161L43.7198 105.235ZM87.3107 125.448C95.8439 122.299 102.708 116.14 106.408 107.822L100.926 105.384C97.9232 112.135 92.3399 117.197 85.2336 119.819L87.3107 125.448ZM106.386 107.87C110.236 99.6093 110.59 90.4389 107.435 81.9886L101.814 84.087C104.405 91.0261 104.12 98.5276 100.948 105.336L106.386 107.87ZM107.435 81.9886C104.299 73.5883 98.1796 66.7226 89.9424 62.8495L87.3894 68.2792C94.1535 71.4597 99.205 77.0979 101.814 84.087L107.435 81.9886ZM89.9278 62.8426C85.3782 60.7334 80.4787 59.6788 75.5798 59.6788V65.6788C79.6177 65.6788 83.6551 66.548 87.4041 68.2861L89.9278 62.8426Z" fill="url(#paint37_linear_1_352)" mask="url(#path-36-inside-18_1_352)"/>
    <mask id="path-38-inside-19_1_352" fill="white">
        <path d="M52.4203 67C47.7996 67 43.0195 66.0372 38.7175 63.9511C30.9101 60.2602 24.8554 53.8415 21.9873 45.6575C18.96 37.4735 19.438 28.6477 23.1027 20.7847C26.7674 12.9216 33.3001 6.98424 41.4262 3.93531C49.5523 1.04685 58.475 1.36779 66.2824 5.0586C74.0899 8.74941 80.1446 15.1682 83.0126 23.3522C86.04 31.5361 85.562 40.362 81.8973 48.225C78.2326 56.088 71.6998 62.0254 63.5737 65.0743C59.909 66.3581 56.085 67 52.4203 67ZM52.4203 3.61437C48.9149 3.61437 45.2502 4.25625 41.9042 5.54001C34.0968 8.42847 27.8827 14.0449 24.5367 21.587C20.872 28.9686 20.5533 37.3131 23.4213 45.0156C26.2894 52.7182 31.8661 58.9765 39.3548 62.5068C46.8436 66.0372 55.2883 66.3581 62.9364 63.4696C70.7438 60.5812 76.9579 54.9647 80.3039 47.4227C83.65 39.8806 84.128 31.5361 81.2599 23.8336C78.3919 16.131 72.8152 9.8727 65.3264 6.34236C61.3431 4.57719 56.8817 3.61437 52.4203 3.61437Z"/>
    </mask>
    <path d="M52.4203 67C47.7996 67 43.0195 66.0372 38.7175 63.9511C30.9101 60.2602 24.8554 53.8415 21.9873 45.6575C18.96 37.4735 19.438 28.6477 23.1027 20.7847C26.7674 12.9216 33.3001 6.98424 41.4262 3.93531C49.5523 1.04685 58.475 1.36779 66.2824 5.0586C74.0899 8.74941 80.1446 15.1682 83.0126 23.3522C86.04 31.5361 85.562 40.362 81.8973 48.225C78.2326 56.088 71.6998 62.0254 63.5737 65.0743C59.909 66.3581 56.085 67 52.4203 67ZM52.4203 3.61437C48.9149 3.61437 45.2502 4.25625 41.9042 5.54001C34.0968 8.42847 27.8827 14.0449 24.5367 21.587C20.872 28.9686 20.5533 37.3131 23.4213 45.0156C26.2894 52.7182 31.8661 58.9765 39.3548 62.5068C46.8436 66.0372 55.2883 66.3581 62.9364 63.4696C70.7438 60.5812 76.9579 54.9647 80.3039 47.4227C83.65 39.8806 84.128 31.5361 81.2599 23.8336C78.3919 16.131 72.8152 9.8727 65.3264 6.34236C61.3431 4.57719 56.8817 3.61437 52.4203 3.61437Z" fill="url(#paint38_linear_1_352)"/>
    <path d="M38.7175 63.9511L40.0264 61.2517L40.0131 61.2452L39.9996 61.2388L38.7175 63.9511ZM21.9873 45.6575L24.8185 44.6653L24.81 44.6409L24.801 44.6167L21.9873 45.6575ZM41.4262 3.93531L40.4214 1.10858L40.3968 1.11733L40.3723 1.12651L41.4262 3.93531ZM83.0126 23.3522L80.1814 24.3443L80.19 24.3687L80.199 24.393L83.0126 23.3522ZM63.5737 65.0743L64.5656 67.9057L64.5967 67.8947L64.6276 67.8831L63.5737 65.0743ZM41.9042 5.54001L42.9451 8.35363L42.962 8.34738L42.9788 8.34094L41.9042 5.54001ZM24.5367 21.587L27.2238 22.921L27.2526 22.8629L27.2789 22.8036L24.5367 21.587ZM62.9364 63.4696L61.8955 60.656L61.886 60.6595L61.8765 60.6631L62.9364 63.4696ZM65.3264 6.34236L66.6057 3.62877L66.5739 3.61381L66.5418 3.59959L65.3264 6.34236ZM52.4203 64C48.2024 64 43.8773 63.119 40.0264 61.2517L37.4085 66.6504C42.1618 68.9553 47.3968 70 52.4203 70V64ZM39.9996 61.2388C32.8714 57.8691 27.4045 52.0446 24.8185 44.6653L19.1561 46.6497C22.3062 55.6383 28.9488 62.6514 37.4353 66.6633L39.9996 61.2388ZM24.801 44.6167C22.0609 37.2094 22.4838 29.2141 25.8218 22.052L20.3835 19.5173C16.3921 28.0812 15.859 37.7377 19.1737 46.6983L24.801 44.6167ZM25.8218 22.052C29.1459 14.9197 35.0699 9.52443 42.4801 6.74411L40.3723 1.12651C31.5303 4.44405 24.3888 10.9235 20.3835 19.5173L25.8218 22.052ZM42.431 6.76205C49.8396 4.1286 57.9384 4.43243 65.0003 7.77082L67.5646 2.34639C59.0117 -1.69685 49.2649 -2.03489 40.4214 1.10858L42.431 6.76205ZM65.0003 7.77082C72.1286 11.1406 77.5954 16.9651 80.1814 24.3443L85.8438 22.36C82.6938 13.3713 76.0511 6.35825 67.5646 2.34639L65.0003 7.77082ZM80.199 24.393C82.939 31.8003 82.5162 39.7955 79.1781 46.9577L84.6164 49.4923C88.6078 40.9284 89.141 31.272 85.8263 22.3114L80.199 24.393ZM79.1781 46.9577C75.854 54.0899 69.93 59.4852 62.5199 62.2655L64.6276 67.8831C73.4696 64.5656 80.6111 58.0862 84.6164 49.4923L79.1781 46.9577ZM62.5819 62.243C59.231 63.4169 55.742 64 52.4203 64V70C56.428 70 60.5871 69.2993 64.5656 67.9057L62.5819 62.243ZM52.4203 0.614372C48.5642 0.614372 44.5338 1.31788 40.8296 2.73908L42.9788 8.34094C45.9666 7.19462 49.2656 6.61437 52.4203 6.61437V0.614372ZM40.8633 2.72639C32.3408 5.87937 25.4875 12.046 21.7944 20.3704L27.2789 22.8036C30.2779 16.0438 35.8527 10.9776 42.9451 8.35363L40.8633 2.72639ZM21.8496 20.253C17.8027 28.4044 17.4635 37.6123 20.6099 46.0624L26.2328 43.9688C23.6431 37.0138 23.9412 29.5329 27.2238 22.921L21.8496 20.253ZM20.6099 46.0624C23.7401 54.4692 29.8494 61.3424 38.0756 65.2204L40.6341 59.7932C33.8828 56.6106 28.8386 50.9672 26.2328 43.9688L20.6099 46.0624ZM38.0756 65.2204C46.2979 69.0966 55.5867 69.4522 63.9963 66.2762L61.8765 60.6631C54.99 63.264 47.3892 62.9778 40.6341 59.7932L38.0756 65.2204ZM63.9773 66.2833C72.4998 63.1303 79.3531 56.9636 83.0462 48.6392L77.5617 46.2061C74.5627 52.9659 68.9879 58.0321 61.8955 60.656L63.9773 66.2833ZM83.0462 48.6392C86.6845 40.4382 87.2341 31.2808 84.0714 22.7867L78.4485 24.8804C81.0218 31.7915 80.6154 39.3229 77.5617 46.2061L83.0462 48.6392ZM84.0714 22.7867C80.9411 14.38 74.8319 7.50676 66.6057 3.62877L64.0472 9.05595C70.7985 12.2386 75.8427 17.882 78.4485 24.8804L84.0714 22.7867ZM66.5418 3.59959C62.1788 1.6662 57.3037 0.614372 52.4203 0.614372V6.61437C56.4596 6.61437 60.5073 7.48819 64.111 9.08513L66.5418 3.59959Z" fill="url(#paint39_linear_1_352)" mask="url(#path-38-inside-19_1_352)"/>
    <mask id="path-40-inside-20_1_352" fill="white">
        <path d="M63.5 65C45.6568 65 31 50.395 31 32.5802C31 14.7654 45.6568 -1.52588e-05 63.5 -1.52588e-05C81.3431 -1.52588e-05 96 14.6049 96 32.4197C96 50.2346 81.3431 65 63.5 65ZM63.5 1.60492C46.4534 1.60492 32.5931 15.4074 32.5931 32.5802C32.5931 49.7531 46.4534 63.395 63.5 63.395C80.5465 63.395 94.4068 49.5926 94.4068 32.4197C94.4068 15.2469 80.5465 1.60492 63.5 1.60492Z"/>
    </mask>
    <path d="M63.5 65C45.6568 65 31 50.395 31 32.5802C31 14.7654 45.6568 -1.52588e-05 63.5 -1.52588e-05C81.3431 -1.52588e-05 96 14.6049 96 32.4197C96 50.2346 81.3431 65 63.5 65ZM63.5 1.60492C46.4534 1.60492 32.5931 15.4074 32.5931 32.5802C32.5931 49.7531 46.4534 63.395 63.5 63.395C80.5465 63.395 94.4068 49.5926 94.4068 32.4197C94.4068 15.2469 80.5465 1.60492 63.5 1.60492Z" fill="url(#paint40_linear_1_352)"/>
    <path d="M63.5 62C47.3057 62 34 48.7303 34 32.5802H28C28 52.0598 44.0079 68 63.5 68V62ZM34 32.5802C34 16.411 47.325 2.99998 63.5 2.99998V-3.00002C43.9887 -3.00002 28 13.1199 28 32.5802H34ZM63.5 2.99998C79.6942 2.99998 93 16.2697 93 32.4197H99C99 12.9401 82.992 -3.00002 63.5 -3.00002V2.99998ZM93 32.4197C93 48.589 79.675 62 63.5 62V68C83.0112 68 99 51.8801 99 32.4197H93ZM63.5 -1.39508C44.7959 -1.39508 29.5931 13.7512 29.5931 32.5802H35.5931C35.5931 17.0636 48.1109 4.60492 63.5 4.60492V-1.39508ZM29.5931 32.5802C29.5931 51.4296 44.8163 66.3951 63.5 66.3951V60.395C48.0905 60.395 35.5931 48.0766 35.5931 32.5802H29.5931ZM63.5 66.3951C82.2041 66.3951 97.4068 51.2488 97.4068 32.4197H91.4068C91.4068 47.9364 78.889 60.395 63.5 60.395V66.3951ZM97.4068 32.4197C97.4068 13.5704 82.1837 -1.39508 63.5 -1.39508V4.60492C78.9094 4.60492 91.4068 16.9234 91.4068 32.4197H97.4068Z" fill="url(#paint41_linear_1_352)" mask="url(#path-40-inside-20_1_352)"/>
    <mask id="path-42-inside-21_1_352" fill="white">
        <path d="M63.5 128C45.6568 128 31 113.395 31 95.5802C31 77.7654 45.6568 63 63.5 63C81.3431 63 96 77.6049 96 95.4197C96 113.235 81.3431 128 63.5 128ZM63.5 64.6049C46.4534 64.6049 32.5931 78.4074 32.5931 95.5802C32.5931 112.753 46.4534 126.395 63.5 126.395C80.5465 126.395 94.4068 112.593 94.4068 95.4197C94.4068 78.2469 80.5465 64.6049 63.5 64.6049Z"/>
    </mask>
    <path d="M63.5 128C45.6568 128 31 113.395 31 95.5802C31 77.7654 45.6568 63 63.5 63C81.3431 63 96 77.6049 96 95.4197C96 113.235 81.3431 128 63.5 128ZM63.5 64.6049C46.4534 64.6049 32.5931 78.4074 32.5931 95.5802C32.5931 112.753 46.4534 126.395 63.5 126.395C80.5465 126.395 94.4068 112.593 94.4068 95.4197C94.4068 78.2469 80.5465 64.6049 63.5 64.6049Z" fill="url(#paint42_linear_1_352)"/>
    <path d="M63.5 125C47.3057 125 34 111.73 34 95.5802H28C28 115.06 44.0079 131 63.5 131V125ZM34 95.5802C34 79.411 47.325 66 63.5 66V60C43.9887 60 28 76.1199 28 95.5802H34ZM63.5 66C79.6942 66 93 79.2697 93 95.4197H99C99 75.9401 82.992 60 63.5 60V66ZM93 95.4197C93 111.589 79.675 125 63.5 125V131C83.0112 131 99 114.88 99 95.4197H93ZM63.5 61.6049C44.7959 61.6049 29.5931 76.7512 29.5931 95.5802H35.5931C35.5931 80.0636 48.1109 67.6049 63.5 67.6049V61.6049ZM29.5931 95.5802C29.5931 114.43 44.8163 129.395 63.5 129.395V123.395C48.0905 123.395 35.5931 111.077 35.5931 95.5802H29.5931ZM63.5 129.395C82.2041 129.395 97.4068 114.249 97.4068 95.4197H91.4068C91.4068 110.936 78.889 123.395 63.5 123.395V129.395ZM97.4068 95.4197C97.4068 76.5704 82.1837 61.6049 63.5 61.6049V67.6049C78.9094 67.6049 91.4068 79.9234 91.4068 95.4197H97.4068Z" fill="url(#paint43_linear_1_352)" mask="url(#path-42-inside-21_1_352)"/>
    <defs>
        <linearGradient id="paint0_linear_1_352" x1="43" y1="61" x2="108" y2="126" gradientUnits="userSpaceOnUse">
            <stop stop-color="#64D2FF"/>
            <stop offset="1" stop-color="#5E5CE6"/>
        </linearGradient>
        <linearGradient id="paint1_linear_1_352" x1="75.5" y1="61" x2="75.5" y2="126" gradientUnits="userSpaceOnUse">
            <stop stop-color="#64D2FF" stop-opacity="0"/>
            <stop offset="1" stop-color="#5E5CE6"/>
        </linearGradient>
        <linearGradient id="paint2_linear_1_352" x1="20" y1="1.99998" x2="85" y2="67" gradientUnits="userSpaceOnUse">
            <stop stop-color="#64D2FF"/>
            <stop offset="1" stop-color="#5E5CE6"/>
        </linearGradient>
        <linearGradient id="paint3_linear_1_352" x1="52.5" y1="1.99998" x2="52.5" y2="67" gradientUnits="userSpaceOnUse">
            <stop stop-color="#64D2FF" stop-opacity="0"/>
            <stop offset="1" stop-color="#5E5CE6"/>
        </linearGradient>
        <linearGradient id="paint4_linear_1_352" x1="31" y1="-1.52588e-05" x2="96" y2="65" gradientUnits="userSpaceOnUse">
            <stop stop-color="#64D2FF"/>
            <stop offset="1" stop-color="#5E5CE6"/>
        </linearGradient>
        <linearGradient id="paint5_linear_1_352" x1="63.5" y1="-1.52588e-05" x2="63.5" y2="65" gradientUnits="userSpaceOnUse">
            <stop stop-color="#64D2FF" stop-opacity="0"/>
            <stop offset="1" stop-color="#5E5CE6"/>
        </linearGradient>
        <linearGradient id="paint6_linear_1_352" x1="31" y1="63" x2="96" y2="128" gradientUnits="userSpaceOnUse">
            <stop stop-color="#64D2FF"/>
            <stop offset="1" stop-color="#5E5CE6"/>
        </linearGradient>
        <linearGradient id="paint7_linear_1_352" x1="63.5" y1="63" x2="63.5" y2="128" gradientUnits="userSpaceOnUse">
            <stop stop-color="#64D2FF" stop-opacity="0"/>
            <stop offset="1" stop-color="#5E5CE6"/>
        </linearGradient>
        <linearGradient id="paint8_linear_1_352" x1="20" y1="61" x2="85" y2="126" gradientUnits="userSpaceOnUse">
            <stop stop-color="#64D2FF"/>
            <stop offset="1" stop-color="#5E5CE6"/>
        </linearGradient>
        <linearGradient id="paint9_linear_1_352" x1="52.5" y1="61" x2="52.5" y2="126" gradientUnits="userSpaceOnUse">
            <stop stop-color="#64D2FF" stop-opacity="0"/>
            <stop offset="1" stop-color="#5E5CE6"/>
        </linearGradient>
        <linearGradient id="paint10_linear_1_352" x1="43" y1="1.99998" x2="108" y2="67" gradientUnits="userSpaceOnUse">
            <stop stop-color="#64D2FF"/>
            <stop offset="1" stop-color="#5E5CE6"/>
        </linearGradient>
        <linearGradient id="paint11_linear_1_352" x1="75.5" y1="1.99998" x2="75.5" y2="67" gradientUnits="userSpaceOnUse">
            <stop stop-color="#64D2FF" stop-opacity="0"/>
            <stop offset="1" stop-color="#5E5CE6"/>
        </linearGradient>
        <linearGradient id="paint12_linear_1_352" x1="52" y1="7.99998" x2="117" y2="73" gradientUnits="userSpaceOnUse">
            <stop stop-color="#64D2FF"/>
            <stop offset="1" stop-color="#5E5CE6"/>
        </linearGradient>
        <linearGradient id="paint13_linear_1_352" x1="84.5" y1="7.99998" x2="84.5" y2="73" gradientUnits="userSpaceOnUse">
            <stop stop-color="#64D2FF" stop-opacity="0"/>
            <stop offset="1" stop-color="#5E5CE6"/>
        </linearGradient>
        <linearGradient id="paint14_linear_1_352" x1="11" y1="56" x2="76" y2="121" gradientUnits="userSpaceOnUse">
            <stop stop-color="#64D2FF"/>
            <stop offset="1" stop-color="#5E5CE6"/>
        </linearGradient>
        <linearGradient id="paint15_linear_1_352" x1="43.5" y1="56" x2="43.5" y2="121" gradientUnits="userSpaceOnUse">
            <stop stop-color="#64D2FF" stop-opacity="0"/>
            <stop offset="1" stop-color="#5E5CE6"/>
        </linearGradient>
        <linearGradient id="paint16_linear_1_352" x1="3.99997" y1="48" x2="69" y2="113" gradientUnits="userSpaceOnUse">
            <stop stop-color="#64D2FF"/>
            <stop offset="1" stop-color="#5E5CE6"/>
        </linearGradient>
        <linearGradient id="paint17_linear_1_352" x1="36.5" y1="48" x2="36.5" y2="113" gradientUnits="userSpaceOnUse">
            <stop stop-color="#64D2FF" stop-opacity="0"/>
            <stop offset="1" stop-color="#5E5CE6"/>
        </linearGradient>
        <linearGradient id="paint18_linear_1_352" x1="59" y1="16" x2="124" y2="81" gradientUnits="userSpaceOnUse">
            <stop stop-color="#64D2FF"/>
            <stop offset="1" stop-color="#5E5CE6"/>
        </linearGradient>
        <linearGradient id="paint19_linear_1_352" x1="91.5" y1="16" x2="91.5" y2="81" gradientUnits="userSpaceOnUse">
            <stop stop-color="#64D2FF" stop-opacity="0"/>
            <stop offset="1" stop-color="#5E5CE6"/>
        </linearGradient>
        <linearGradient id="paint20_linear_1_352" x1="63" y1="26" x2="128" y2="91" gradientUnits="userSpaceOnUse">
            <stop stop-color="#64D2FF"/>
            <stop offset="1" stop-color="#5E5CE6"/>
        </linearGradient>
        <linearGradient id="paint21_linear_1_352" x1="95.5" y1="26" x2="95.5" y2="91" gradientUnits="userSpaceOnUse">
            <stop stop-color="#64D2FF" stop-opacity="0"/>
            <stop offset="1" stop-color="#5E5CE6"/>
        </linearGradient>
        <linearGradient id="paint22_linear_1_352" x1="-3.05176e-05" y1="37" x2="65" y2="102" gradientUnits="userSpaceOnUse">
            <stop stop-color="#64D2FF"/>
            <stop offset="1" stop-color="#5E5CE6"/>
        </linearGradient>
        <linearGradient id="paint23_linear_1_352" x1="32.5" y1="37" x2="32.5" y2="102" gradientUnits="userSpaceOnUse">
            <stop stop-color="#64D2FF" stop-opacity="0"/>
            <stop offset="1" stop-color="#5E5CE6"/>
        </linearGradient>
        <linearGradient id="paint24_linear_1_352" x1="-3.05176e-05" y1="26" x2="65" y2="91" gradientUnits="userSpaceOnUse">
            <stop stop-color="#64D2FF"/>
            <stop offset="1" stop-color="#5E5CE6"/>
        </linearGradient>
        <linearGradient id="paint25_linear_1_352" x1="32.5" y1="26" x2="32.5" y2="91" gradientUnits="userSpaceOnUse">
            <stop stop-color="#64D2FF" stop-opacity="0"/>
            <stop offset="1" stop-color="#5E5CE6"/>
        </linearGradient>
        <linearGradient id="paint26_linear_1_352" x1="63" y1="37" x2="128" y2="102" gradientUnits="userSpaceOnUse">
            <stop stop-color="#64D2FF"/>
            <stop offset="1" stop-color="#5E5CE6"/>
        </linearGradient>
        <linearGradient id="paint27_linear_1_352" x1="95.5" y1="37" x2="95.5" y2="102" gradientUnits="userSpaceOnUse">
            <stop stop-color="#64D2FF" stop-opacity="0"/>
            <stop offset="1" stop-color="#5E5CE6"/>
        </linearGradient>
        <linearGradient id="paint28_linear_1_352" x1="59" y1="48" x2="124" y2="113" gradientUnits="userSpaceOnUse">
            <stop stop-color="#64D2FF"/>
            <stop offset="1" stop-color="#5E5CE6"/>
        </linearGradient>
        <linearGradient id="paint29_linear_1_352" x1="91.5" y1="48" x2="91.5" y2="113" gradientUnits="userSpaceOnUse">
            <stop stop-color="#64D2FF" stop-opacity="0"/>
            <stop offset="1" stop-color="#5E5CE6"/>
        </linearGradient>
        <linearGradient id="paint30_linear_1_352" x1="3.99997" y1="16" x2="69" y2="81" gradientUnits="userSpaceOnUse">
            <stop stop-color="#64D2FF"/>
            <stop offset="1" stop-color="#5E5CE6"/>
        </linearGradient>
        <linearGradient id="paint31_linear_1_352" x1="36.5" y1="16" x2="36.5" y2="81" gradientUnits="userSpaceOnUse">
            <stop stop-color="#64D2FF" stop-opacity="0"/>
            <stop offset="1" stop-color="#5E5CE6"/>
        </linearGradient>
        <linearGradient id="paint32_linear_1_352" x1="11" y1="7.99998" x2="76" y2="73" gradientUnits="userSpaceOnUse">
            <stop stop-color="#64D2FF"/>
            <stop offset="1" stop-color="#5E5CE6"/>
        </linearGradient>
        <linearGradient id="paint33_linear_1_352" x1="43.5" y1="7.99998" x2="43.5" y2="73" gradientUnits="userSpaceOnUse">
            <stop stop-color="#64D2FF" stop-opacity="0"/>
            <stop offset="1" stop-color="#5E5CE6"/>
        </linearGradient>
        <linearGradient id="paint34_linear_1_352" x1="52" y1="56" x2="117" y2="121" gradientUnits="userSpaceOnUse">
            <stop stop-color="#64D2FF"/>
            <stop offset="1" stop-color="#5E5CE6"/>
        </linearGradient>
        <linearGradient id="paint35_linear_1_352" x1="84.5" y1="56" x2="84.5" y2="121" gradientUnits="userSpaceOnUse">
            <stop stop-color="#64D2FF" stop-opacity="0"/>
            <stop offset="1" stop-color="#5E5CE6"/>
        </linearGradient>
        <linearGradient id="paint36_linear_1_352" x1="43" y1="61" x2="108" y2="126" gradientUnits="userSpaceOnUse">
            <stop stop-color="#64D2FF"/>
            <stop offset="1" stop-color="#5E5CE6"/>
        </linearGradient>
        <linearGradient id="paint37_linear_1_352" x1="75.5" y1="61" x2="75.5" y2="126" gradientUnits="userSpaceOnUse">
            <stop stop-color="#64D2FF" stop-opacity="0"/>
            <stop offset="1" stop-color="#5E5CE6"/>
        </linearGradient>
        <linearGradient id="paint38_linear_1_352" x1="20" y1="1.99998" x2="85" y2="67" gradientUnits="userSpaceOnUse">
            <stop stop-color="#64D2FF"/>
            <stop offset="1" stop-color="#5E5CE6"/>
        </linearGradient>
        <linearGradient id="paint39_linear_1_352" x1="52.5" y1="1.99998" x2="52.5" y2="67" gradientUnits="userSpaceOnUse">
            <stop stop-color="#64D2FF" stop-opacity="0"/>
            <stop offset="1" stop-color="#5E5CE6"/>
        </linearGradient>
        <linearGradient id="paint40_linear_1_352" x1="31" y1="-1.52588e-05" x2="96" y2="65" gradientUnits="userSpaceOnUse">
            <stop stop-color="#64D2FF"/>
            <stop offset="1" stop-color="#5E5CE6"/>
        </linearGradient>
        <linearGradient id="paint41_linear_1_352" x1="63.5" y1="-1.52588e-05" x2="63.5" y2="65" gradientUnits="userSpaceOnUse">
            <stop stop-color="#64D2FF" stop-opacity="0"/>
            <stop offset="1" stop-color="#5E5CE6"/>
        </linearGradient>
        <linearGradient id="paint42_linear_1_352" x1="31" y1="63" x2="96" y2="128" gradientUnits="userSpaceOnUse">
            <stop stop-color="#64D2FF"/>
            <stop offset="1" stop-color="#5E5CE6"/>
        </linearGradient>
        <linearGradient id="paint43_linear_1_352" x1="63.5" y1="63" x2="63.5" y2="128" gradientUnits="userSpaceOnUse">
            <stop stop-color="#64D2FF" stop-opacity="0"/>
            <stop offset="1" stop-color="#5E5CE6"/>
        </linearGradient>
    </defs>
</svg>

