<svg width="283" height="283" viewBox="0 0 283 283" fill="none" xmlns="http://www.w3.org/2000/svg">
    <path fill-rule="evenodd" clip-rule="evenodd" d="M94.3333 211.524C54.5622 195.446 54.8073 215.63 37.0808 185.866C19.3543 156.102 35.7397 112.249 87.7586 98.7018C139.778 85.1548 212.061 21.229 250.649 127.53C261.493 157.402 240.597 236.965 165.524 236.807C111.783 236.692 121.213 222.09 94.3333 211.524Z" fill="#93A7C8"/>
    <path fill-rule="evenodd" clip-rule="evenodd" d="M159.898 150.019C159.711 149.872 159.759 149.42 159.815 149.116C160.169 147.187 161.874 145.895 163.378 144.69C164.881 143.485 166.437 141.867 166.281 139.91C166.07 137.267 167.289 134.76 168.032 132.221C168.776 129.682 168.908 126.554 167.012 124.759C166.355 124.138 165.518 123.748 164.857 123.131C164.195 122.515 163.72 121.515 164.096 120.681C163.775 120.873 163.455 121.066 163.134 121.258C163.045 119.969 161.581 119.395 160.479 118.778C158.589 117.719 157.208 115.58 157.359 113.369C157.511 111.158 159.439 109.122 161.587 109.247C162.509 109.3 163.693 109.592 164.151 108.766C165.843 105.713 170.231 105.361 172.224 102.508C172.658 101.887 174.753 100.03 174.546 101.343C174.087 104.262 176.643 103.415 177.652 104.637C182.048 109.963 182.386 118.033 181.594 125.681C179.897 142.047 169.782 157.795 159.898 150.019Z" fill="#FFFFFF"/>
    <path fill-rule="evenodd" clip-rule="evenodd" d="M171.831 106.114C172.854 105.013 174.346 104.362 175.85 104.362C178.334 105.65 180.791 107.392 183.221 109.588C184.745 108.985 185.819 108.863 186.442 109.221C187.378 109.758 187.951 110.777 188.222 111.821C189.092 115.169 187.242 118.633 184.966 121.238C183.973 122.374 182.867 123.459 182.259 124.84C181.651 126.221 181.678 128.022 182.785 129.047C185.551 131.611 186.474 135.655 186.32 139.424C186.165 143.193 185.091 146.856 184.489 150.58C183.821 154.713 183.738 158.94 184.242 163.095C184.398 164.379 184.622 165.692 185.292 166.798C185.962 167.904 187.175 168.767 188.464 168.672C188.008 169.326 186.907 169.371 186.399 168.757C186.9 169.278 187.401 169.799 187.902 170.32C187.296 170.193 186.689 170.066 186.083 169.939C191.15 172.82 196.397 175.383 201.783 177.609C201.469 176.551 200.359 175.975 199.355 175.516C196.551 174.233 193.747 172.951 190.943 171.669C195.155 172.051 199.223 173.88 202.304 176.779C206.015 180.271 212.022 180.075 216.047 183.201C216.91 183.871 217.687 184.727 217.976 185.78C218.383 187.261 217.732 188.88 216.659 189.979C215.587 191.077 214.152 191.741 212.716 192.284C208.427 193.909 203.815 194.676 199.231 194.526C198.842 193.842 199.231 192.932 199.864 192.465C200.496 191.998 201.303 191.855 202.072 191.689C205.342 190.986 208.475 189.642 211.238 187.756C211.859 187.333 212.533 186.572 212.135 185.934C211.987 185.698 211.724 185.563 211.472 185.442C207.132 183.371 202.283 182.374 197.478 182.567C198.896 182.311 200.315 182.054 201.733 181.798C197.984 179.562 194.043 177.647 189.967 176.083C188.7 175.597 187.157 175.179 186.08 176.005C183.451 178.021 180.822 180.037 178.193 182.053C181.583 182.113 184.957 182.947 187.984 184.473C187.292 185.987 185.735 187.068 184.074 187.186C184.86 186.38 185.645 185.574 186.431 184.769C180.835 181.299 172.854 184.925 167.249 181.469C164.75 179.927 163.093 177.149 160.383 176.017C157.798 174.937 154.853 175.595 152.134 176.268C150.35 176.709 148.476 177.198 147.16 178.481C147.196 177.191 148.422 176.257 149.628 175.797C150.833 175.338 152.172 175.125 153.187 174.328C154.216 173.52 154.742 172.242 155.554 171.215C156.366 170.189 157.805 169.379 158.952 170.01C158.598 167.283 160.915 165.059 162.485 162.803C164.273 160.233 165.229 157.093 165.176 153.962C163.184 155.021 162.288 157.751 163.265 159.785C163.699 160.689 162.835 161.829 161.835 161.9C160.836 161.971 159.918 161.236 159.467 160.341C159.015 159.446 158.932 158.416 158.865 157.416C158.769 156.003 158.69 154.561 159.054 153.192C159.743 150.599 161.906 148.67 164.151 147.201C166.395 145.731 168.859 144.528 170.741 142.616C172.817 140.506 174.047 137.586 174.106 134.627C174.972 138.57 173.02 105.845 171.831 106.114ZM162.702 160.376C162.723 159.561 162.47 158.741 161.993 158.079C161.827 158.898 162.103 159.793 162.702 160.376Z" fill="#FFFFFF"/>
    <path fill-rule="evenodd" clip-rule="evenodd" d="M134.603 159.09C132.967 160.239 131.275 161.45 130.324 163.204C129.372 164.958 129.416 167.42 130.969 168.678C134.768 171.757 133.553 177.886 135.82 182.211C137.065 184.584 139.46 186.832 138.788 189.425C138.262 191.456 136.077 192.517 134.13 193.317C133.216 193.693 132.249 194.076 131.268 193.949C130.288 193.821 129.327 192.978 129.448 192C129.664 190.251 132.737 189.935 132.792 188.173C132.808 187.678 132.554 187.22 132.308 186.79C130.645 183.884 128.981 180.977 127.318 178.071C125.372 182.133 124.591 186.741 125.09 191.214C125.246 192.618 124.196 193.932 122.919 194.546C121.642 195.159 120.179 195.224 118.763 195.279C117.602 195.323 116.367 195.35 115.371 194.755C114.374 194.161 113.815 192.696 114.566 191.813C115.241 191.018 116.478 191.124 117.463 190.775C120.078 189.848 120.19 186.255 119.818 183.514C119.1 178.219 118.381 172.925 117.663 167.63C117.299 164.949 116.893 162.154 115.34 159.934C110 152.299 116.987 140.656 111.938 132.827C110.388 130.423 108.829 127.929 108.31 125.119C107.791 122.31 108.543 119.079 110.873 117.413C112.621 116.163 112.831 113.713 113.071 111.582C113.509 107.68 114.579 103.848 116.228 100.282C112.468 97.5488 107.91 95.9194 103.263 95.6471C103.407 96.4934 103.713 97.3119 104.161 98.0453C101.487 97.044 99.4256 94.5652 98.9358 91.7606C98.5077 92.7517 98.0796 93.7429 97.6515 94.734C93.9695 87.2316 96.6195 78.319 99.3149 70.4113C100.1 68.1088 100.885 65.8063 101.669 63.5038C102.614 60.7335 103.964 57.5707 106.81 56.848C108.561 56.4032 110.921 58.0847 109.997 59.6322C107.701 59.057 108.946 61.3682 109.811 60.3902C111.774 58.1721 113.374 55.5362 115.723 53.7176C120.201 50.2505 126.865 50.4713 131.727 53.3811C136.588 56.2908 139.774 61.4512 141.351 66.8792C141.579 67.6648 141.772 68.5327 141.434 69.2779C141.096 70.0232 139.989 70.4401 139.43 69.8414C138.651 69.0073 137.569 70.5841 137.62 71.7223C137.883 77.556 141.605 82.6129 143.336 88.1918C145.025 93.6329 144.784 99.4564 144.528 105.146C144.171 113.058 143.185 134.948 142.864 137.966C142.261 143.652 141.005 149.293 141.082 155.011C141.181 162.357 143.471 169.482 145.886 176.424C146.891 179.312 147.963 182.264 149.962 184.584C151.961 186.903 155.116 188.485 158.103 187.784C155.984 189.902 152.366 189.828 149.735 188.387C147.105 186.947 145.254 184.445 143.571 181.969C142.498 180.388 139.579 183.533 138.312 182.102C139.871 181.776 141.346 181.056 142.559 180.027C139.907 173.048 137.255 166.069 134.603 159.09ZM120.982 76.0758C120.71 75.8012 120.287 75.529 119.971 75.7513C120.319 76.1024 120.215 76.7806 119.778 77.013C119.258 76.8233 119.444 76.055 119.298 75.5227C119.111 74.8378 118.317 74.5402 117.623 74.3784C114.063 73.5482 109.922 73.4067 107.556 70.6286C107.336 70.3701 107.129 70.0858 106.83 69.923C106.22 69.5903 105.415 69.8985 104.982 70.4407C104.549 70.983 104.403 71.6944 104.302 72.3801C103.79 75.8526 104.088 79.4411 105.165 82.7827C105.36 83.3858 105.59 83.9987 106.023 84.4622C107.207 85.7295 109.255 85.3736 110.969 85.0827C112.563 84.8121 114.182 84.6861 115.799 84.7068C116.548 84.7164 117.287 84.546 118.017 84.3765C119.946 83.9286 121.875 83.4806 123.805 83.0327C123.829 80.4658 122.79 77.9048 120.982 76.0758Z" fill="#FFFFFF"/>
    <path fill-rule="evenodd" clip-rule="evenodd" d="M191.985 226.639L196.576 227.318C197.416 227.442 198.344 227.615 198.855 228.282C198.62 228.488 198.263 228.456 197.951 228.411C196.175 228.157 194.399 227.902 192.623 227.647L194.736 230.075C195.1 230.493 195.492 230.93 196.026 231.097C196.494 231.242 197.165 231.288 197.221 231.767C196.577 232.037 195.813 231.871 195.22 231.506C194.627 231.142 194.17 230.603 193.724 230.073C193.007 229.222 192.29 228.371 191.574 227.52C191.386 227.297 191.196 226.967 191.388 226.748C191.526 226.59 191.776 226.607 191.985 226.639ZM216.569 207.751C216.711 208.363 216.078 208.837 215.557 209.167C211.379 211.818 209.313 216.822 207.498 221.51C207.357 221.873 207.321 222.442 207.696 222.5C208.424 221.13 209.851 220.181 211.365 220.059C210.216 220.86 209.756 222.383 209.684 223.809C209.612 225.234 209.845 226.666 209.715 228.087C209.001 228.017 208.817 227.043 208.825 226.305C208.843 224.846 208.86 223.387 208.877 221.928C206.238 223.553 205.604 227.127 205.232 230.265C205.086 230.488 204.713 230.392 204.584 230.158C204.454 229.924 204.493 229.634 204.538 229.368C205.618 222.98 208.074 216.842 211.679 211.522C208.196 213.389 205.223 216.248 203.18 219.697C202.657 218.722 203.403 217.558 204.141 216.744C207.62 212.907 211.882 209.823 216.569 207.751ZM184.17 204.355C186.009 205.634 187.849 206.913 189.688 208.192C192.605 210.22 195.552 212.273 197.917 214.924C197.754 212.502 198.363 210.034 199.633 207.965C199.783 207.721 200.047 207.447 200.308 207.565C200.494 207.649 200.547 207.882 200.577 208.083C201.098 211.559 201.619 215.036 202.14 218.512C200.643 215.728 199.909 212.538 200.04 209.38C199.129 210.845 198.381 212.536 198.612 214.246C199.175 218.418 205.037 220.442 205.269 224.645C200.159 218.35 194.843 211.914 187.717 208.042C191.035 212.753 194.823 217.133 199.006 221.097C200.187 222.215 201.498 223.529 201.414 225.152C198.631 221.882 193.881 220.433 189.745 221.593C192.121 222.475 194.437 223.52 196.671 224.718C197.981 225.421 199.376 226.316 199.767 227.75C195.995 224.928 191.622 222.914 187.025 221.882C190.505 219.855 195.043 219.78 198.588 221.692C193.234 216.866 188.849 211.081 184.5 205.334C184.283 205.047 184.054 204.695 184.17 204.355ZM161.895 185.114C170.495 186.763 178.948 189.173 187.122 192.307C188.091 192.678 189.087 193.079 189.817 193.816C190.688 194.695 191.069 195.933 191.42 197.119C192.892 202.098 194.364 207.077 195.836 212.056C193.188 206.859 191.296 201.278 190.235 195.544C183.717 198.143 176.453 197.776 169.437 197.571C158.628 197.256 147.804 197.422 137.009 198.069C137.73 198.23 138.451 198.392 139.172 198.553C137.526 199.104 135.747 199.059 134.012 198.998C120.915 198.535 107.838 197.491 94.834 195.869C92.0617 195.523 89.1476 195.093 86.9453 193.376L80.9881 211.056C80.6482 212.064 79.5224 213.285 78.7944 212.508C77.9398 211.595 76.4616 212.546 75.617 213.468C72.4079 216.971 69.1987 220.474 65.9895 223.977C67.8699 220.723 70.2466 217.757 73.0124 215.211C69.9525 215.156 66.8962 216.524 64.9013 218.841C65.6674 214.207 70.4397 210.614 75.1128 211.153C71.9965 211.583 69.0619 213.214 67.0546 215.633C70.4418 215.193 73.7051 213.837 76.4048 211.747C77.3774 210.994 78.8949 211.063 79.7948 211.902C81.6717 206.291 83.5487 200.681 85.4257 195.071C85.6975 194.258 85.9248 193.24 85.3073 192.645C95.8701 189.149 106.968 187.27 118.095 187.094C109.251 188.468 100.406 189.841 91.5618 191.214C90.2018 191.425 88.5622 191.879 88.2418 193.216C89.7674 193.603 91.2933 193.99 92.8277 194.34C116.311 199.705 140.781 196.392 164.869 196.682C173.195 196.782 181.733 197.288 189.643 194.689C177.685 189.148 164.714 185.796 151.566 184.849C154.918 183.931 158.482 184.46 161.895 185.114ZM62.5186 190.291C66.3122 191.197 69.7227 193.227 73.066 195.229C75.5361 196.709 78.2882 198.631 78.5286 201.467L78.5353 201.566L78.4662 201.487C75.8156 198.505 72.6821 195.95 69.2226 193.952C71.5999 196.635 73.9772 199.318 76.3545 202C76.9693 202.694 77.6082 203.565 77.774 204.429C77.8069 204.389 77.8581 204.363 77.9166 204.367L77.8985 204.355C78.0726 204.401 78.163 204.596 78.072 204.73C77.9787 204.741 77.8757 204.719 77.8066 204.668C77.839 205.033 77.777 205.394 77.5836 205.736C76.7545 204.39 75.7117 203.175 74.506 202.15C75.4597 204.208 76.4134 206.267 77.3672 208.325C76.3971 208.004 75.5429 207.346 74.9865 206.492C74.8593 207.201 75.1738 207.97 75.7622 208.389C74.791 208.876 73.6926 209.11 72.6063 209.059C73.0439 209.376 73.4815 209.693 73.9191 210.01L64.8563 210.393C65.1351 209.905 65.5216 209.478 65.9803 209.152C58.9152 208.395 53.7513 202.483 56.9169 204.619C62.0972 208.113 68.7368 209.384 74.8485 208.051C71.4655 207.066 68.2864 205.392 65.5647 203.161C67.4943 202.687 69.6325 203.153 71.1915 204.379L71.304 204.469L67.0906 198.608C65.686 196.654 64.2813 194.7 62.8767 192.746C67.0502 197.084 71.2237 201.422 75.3972 205.76C73.19 199.272 68.5112 193.652 62.5186 190.291ZM71.9078 209.114L71.8649 209.162C71.7272 209.061 71.5894 209.346 71.7122 209.465C71.8644 209.513 72.0415 209.472 72.1571 209.362C72.074 209.279 71.9909 209.196 71.9078 209.114ZM223.898 189.652C227.097 190.347 230.296 191.042 233.495 191.737C234.476 191.95 235.717 192.521 235.552 193.524C235.485 193.934 235.18 194.255 234.879 194.537C233.788 195.557 232.554 196.421 231.226 197.093L234.563 197.929C235.448 198.151 236.378 198.398 237.027 199.047C237.675 199.696 237.888 200.888 237.223 201.52C238.176 203.172 239.064 204.863 239.883 206.587C240.29 207.443 240.65 208.558 240.019 209.261C238.934 206.797 237.848 204.333 236.763 201.87C235.337 202.744 233.594 203.071 231.954 202.77C232.412 202.14 233.257 201.973 234.024 201.889C234.791 201.805 235.626 201.728 236.187 201.192C236.749 200.656 236.719 199.481 235.974 199.277C233.886 198.705 231.797 198.134 229.709 197.562C231.267 196.127 232.933 194.811 234.686 193.63C234.777 193.166 234.216 192.874 233.765 192.752C228.867 191.428 223.882 190.436 218.853 189.783C220.362 188.943 222.215 189.286 223.898 189.652ZM61.9398 203.227C62.154 203.262 62.3237 203.432 62.4836 203.589C63.834 204.914 65.5148 205.846 67.3023 206.263C68.1959 206.471 69.1946 206.597 69.8066 207.327C66.7801 207.648 63.6412 206.31 61.6431 203.848C61.5847 203.776 61.525 203.699 61.5092 203.605C61.4706 203.376 61.7257 203.193 61.9398 203.227ZM68.1158 204.085C69.65 205.297 71.4477 206.176 73.3487 206.644C71.8326 205.406 70.0264 204.522 68.1158 204.085ZM71.6 203.18C72.1675 204.623 73.3634 205.809 74.8153 206.368C73.9355 205.134 72.843 204.051 71.6 203.18ZM100.888 122.378C98.7623 123.412 96.8157 124.812 95.1598 126.495C91.4359 130.281 86.6315 133.001 81.4603 134.25L94.5522 126.841C94.3443 125.402 92.1789 125.616 90.8772 126.272C88.6203 127.41 86.4222 128.678 84.4002 130.192C83.2002 131.091 82.0644 132.074 81.0043 133.133C76.8578 137.274 73.9398 142.494 71.74 147.917C68.5789 155.709 66.7986 164.173 67.557 172.544C68.3153 180.914 71.7564 189.181 77.869 194.975C78.0833 194.315 78.2976 193.656 78.5119 192.997C79.4536 193.465 80.5697 193.574 81.5849 193.298C80.3671 192.592 79.0861 191.821 78.4419 190.573C77.7977 189.325 78.1392 187.469 79.4681 187.002C78.1725 185.844 77.2822 184.245 76.9826 182.537C78.4444 182.268 79.9063 182 81.3681 181.731C79.9346 178.454 80.2213 174.484 82.1109 171.445C82.4073 170.968 82.8854 170.455 83.4312 170.592C84.3027 170.811 84.5577 172.497 85.3895 172.158L88.6394 167.561L91.7861 163.11L91.7343 163.186C90.4912 165.069 90.4421 167.679 91.6403 169.595C93.3102 167.833 95.5814 166.648 97.986 166.283C98.1832 167.375 98.3805 168.468 98.5778 169.561C99.4632 168.828 100.415 168.065 101.557 167.918C102.699 167.77 104.037 168.537 104.042 169.684C104.047 170.628 103.218 171.677 103.824 172.402C104.7 171.839 105.641 171.255 106.683 171.258C107.725 171.262 108.831 172.136 108.66 173.16C108.4 174.722 108.14 176.285 107.88 177.848C109.647 177.271 112.057 176.925 112.946 178.552C113.585 179.722 112.919 181.184 112.053 182.2C111.187 183.215 110.082 184.107 109.668 185.374C109.094 184.195 110.174 182.926 111.084 181.979C111.994 181.031 112.812 179.45 111.865 178.539C110.602 177.323 108.427 179.297 106.809 178.617C107.162 176.515 107.515 174.412 107.868 172.31C106.036 172.303 104.206 172.836 102.666 173.824C102.522 172.162 102.623 170.48 102.966 168.848C101.175 169.223 99.4152 169.741 97.7073 170.394C97.3106 169.34 97.1455 168.2 97.2269 167.077L91.2719 170.547C91.1166 169.959 90.7121 169.44 90.1785 169.145C90.7199 172.274 91.2613 175.402 91.8027 178.53C90.11 175.443 89.3211 171.872 89.5566 168.362C87.7038 169.546 86.3699 171.508 85.9537 173.661C84.7752 173.392 83.7351 172.575 83.1984 171.496C81.0318 174.533 80.7483 178.796 82.4936 182.092C81.0797 182.707 79.5802 183.127 78.0514 183.336L80.7689 187.631C80.0593 187.724 79.383 188.054 78.8747 188.555C79.3898 190.881 81.3214 192.836 83.6485 193.386C82.5584 194.067 81.2569 194.406 79.9718 194.345C81.569 194.806 83.073 195.585 84.3694 196.623C82.528 196.33 80.7451 195.677 79.1519 194.712C79.9497 196.395 81.403 197.759 83.137 198.453C82.1024 198.494 81.0577 198.25 80.149 197.756C81.1391 199.067 81.6393 200.737 81.5324 202.374C80.8314 201.001 80.1304 199.627 79.4294 198.254C79.3526 199.615 79.2757 200.976 79.1988 202.337C79.0389 202.146 78.877 201.956 78.7133 201.768L78.5496 201.582L78.5875 201.492C79.1968 199.961 78.7312 198.162 77.8259 196.774C76.8975 195.35 75.5612 194.249 74.3221 193.082C69.0547 188.125 65.3648 181.771 61.7504 175.515C60.3905 173.161 59.0305 170.807 57.6706 168.453C55.8446 165.292 53.9527 161.702 54.88 158.174C55.0126 157.67 55.2224 157.152 55.6439 156.843C54.9893 157.584 55.4856 158.764 56.158 159.489C56.8304 160.214 57.7083 160.882 57.8493 161.859C59.3642 172.357 65.8908 181.362 72.2164 189.894C64.4052 176.579 65.6758 159.437 71.9975 145.36C75.4368 137.701 80.6228 130.356 88.2473 126.79C89.9452 125.996 91.7303 125.405 93.5105 124.817C95.9697 124.004 98.429 123.191 100.888 122.378ZM199.195 196.722C199.408 196.772 199.658 196.868 199.698 197.088C199.731 197.273 199.591 197.44 199.456 197.569C198.766 198.231 197.943 198.746 197.052 199.074C196.772 199.177 196.78 199.628 197.002 199.831C197.225 200.034 197.549 200.057 197.847 200.069C208.874 200.52 219.901 200.971 230.928 201.421C230.821 201.991 230.082 202.106 229.515 202.09C219.067 201.792 208.622 201.397 198.182 200.903C197.101 200.852 195.636 200.339 195.846 199.256C196.045 198.227 197.505 198.215 198.292 197.542L193.572 196.872C195.394 196.341 197.348 196.288 199.195 196.722ZM135.178 198.199L135.24 198.242C135.538 198.448 135.985 198.4 136.233 198.135C135.917 197.929 135.466 197.956 135.178 198.199ZM131.727 53.3811C136.588 56.2908 139.774 61.4512 141.35 66.8792C141.579 67.6648 141.772 68.5327 141.434 69.2779C141.105 70.003 140.049 70.4173 139.477 69.8877L139.43 69.8414C138.651 69.0073 137.569 70.5841 137.62 71.7223C137.883 77.556 141.604 82.6129 143.336 88.1918C145.025 93.6329 144.784 99.4564 144.528 105.146C144.171 113.058 143.815 120.97 143.458 128.882C143.321 131.914 143.185 134.948 142.864 137.966C142.261 143.652 141.005 149.293 141.082 155.011C141.181 162.357 143.471 169.482 145.886 176.424C146.891 179.312 147.963 182.264 149.962 184.584C151.961 186.903 155.116 188.485 158.103 187.784C155.984 189.902 152.365 189.828 149.735 188.387C147.105 186.947 145.253 184.445 143.571 181.969C142.498 180.388 139.579 183.533 138.312 182.102C139.871 181.776 141.345 181.056 142.559 180.027C139.907 173.048 137.255 166.069 134.602 159.09C132.967 160.239 131.275 161.45 130.324 163.204C129.372 164.958 129.416 167.42 130.968 168.678C134.768 171.757 133.552 177.886 135.82 182.211C137.065 184.584 139.46 186.832 138.788 189.425C138.262 191.456 136.077 192.517 134.13 193.317C133.216 193.693 132.249 194.076 131.268 193.949C130.288 193.821 129.327 192.978 129.448 192C129.664 190.251 132.737 189.935 132.792 188.173C132.807 187.678 132.554 187.22 132.308 186.79C130.644 183.884 128.981 180.977 127.318 178.071C125.372 182.133 124.591 186.741 125.09 191.214C125.246 192.618 124.196 193.932 122.919 194.546C121.642 195.159 120.179 195.224 118.762 195.279C117.602 195.323 116.367 195.35 115.37 194.755C114.374 194.161 113.815 192.696 114.565 191.813C115.24 191.018 116.478 191.124 117.463 190.775C120.078 189.848 120.19 186.255 119.818 183.514L117.663 167.63C117.299 164.949 116.892 162.154 115.34 159.934C110 152.299 116.986 140.656 111.938 132.827C110.388 130.423 108.829 127.929 108.31 125.119C107.791 122.31 108.543 119.079 110.873 117.413C112.621 116.163 112.831 113.713 113.07 111.582C113.509 107.68 114.579 103.848 116.228 100.282C112.468 97.5488 107.909 95.9194 103.263 95.6471C103.407 96.4934 103.713 97.3119 104.161 98.0453C101.486 97.044 99.4254 94.5652 98.9356 91.7606C98.5075 92.7517 98.0794 93.7429 97.6514 94.734C93.9693 87.2316 96.6193 78.319 99.3148 70.4113C100.1 68.1088 100.884 65.8063 101.669 63.5038C102.614 60.7335 103.964 57.5707 106.809 56.848C108.561 56.4032 110.921 58.0847 109.997 59.6322C107.701 59.057 105.256 60.3009 103.741 62.1145C102.226 63.928 101.45 66.2257 100.706 68.4654C98.2091 75.9787 95.6862 83.9832 97.5746 91.6706C97.8622 91.1358 98.4103 90.7481 99.0118 90.6538C99.6327 92.3945 100.586 94.0167 101.806 95.4081C104.384 94.4626 107.23 94.2511 109.921 94.8051C109.716 95.0569 109.511 95.3088 109.306 95.5606C111.444 97.0142 113.92 97.9709 116.482 98.3334C117.86 96.0027 119.238 93.672 120.616 91.3413L120.87 90.9112C122.096 88.8275 123.29 86.6746 123.673 84.2972C119.484 85.344 115.195 85.9963 110.883 86.2426C109.004 86.3499 106.913 86.3074 105.528 85.0367C104.687 84.2646 104.25 83.1542 103.929 82.0603C102.768 78.1084 102.786 73.821 103.978 69.8784C102.283 69.7775 101.806 67.2675 102.789 65.8886C103.773 64.5097 105.483 63.8932 106.909 62.9746C110.508 60.6552 112.338 56.338 115.723 53.7176C120.201 50.2505 126.865 50.4713 131.727 53.3811ZM175.85 104.362C179.576 106.293 182.92 108.961 185.632 112.165C185.772 113.893 186.046 115.61 186.452 117.296C187.007 115.677 187.571 113.955 187.2 112.283C186.83 110.611 185.132 109.11 183.493 109.607C184.175 108.77 185.507 108.684 186.443 109.221C187.378 109.758 187.951 110.777 188.222 111.821C189.092 115.169 187.242 118.633 184.966 121.238C183.973 122.374 182.867 123.459 182.259 124.84C181.651 126.221 181.679 128.022 182.785 129.047C185.551 131.611 186.474 135.655 186.32 139.424C186.165 143.193 185.091 146.856 184.489 150.58C183.821 154.713 183.738 158.94 184.242 163.095C184.398 164.379 184.622 165.692 185.292 166.798C185.962 167.904 187.175 168.767 188.465 168.672C188.051 169.264 187.108 169.357 186.556 168.913L186.508 168.87L187.15 169.539C187.401 169.799 187.651 170.059 187.902 170.32C187.296 170.193 186.689 170.066 186.083 169.939C191.15 172.82 196.397 175.383 201.783 177.609C201.469 176.551 200.359 175.975 199.355 175.516C196.551 174.233 193.747 172.951 190.943 171.669C195.155 172.051 199.223 173.88 202.304 176.779C206.015 180.271 212.022 180.075 216.047 183.201C216.91 183.871 217.687 184.727 217.976 185.78C218.383 187.261 217.732 188.88 216.659 189.979C215.587 191.077 214.152 191.741 212.716 192.284C208.427 193.909 203.815 194.676 199.231 194.526C198.842 193.842 199.231 192.932 199.864 192.465C200.497 191.998 201.303 191.855 202.072 191.689C205.343 190.986 208.475 189.642 211.238 187.756C211.859 187.332 212.534 186.572 212.135 185.934C211.987 185.698 211.724 185.563 211.472 185.442C207.132 183.37 202.283 182.374 197.478 182.567L201.733 181.798C197.984 179.561 194.043 177.647 189.967 176.083C188.7 175.597 187.157 175.179 186.08 176.005C183.451 178.021 180.822 180.037 178.193 182.053C181.583 182.113 184.957 182.947 187.984 184.473C187.292 185.987 185.735 187.068 184.074 187.186C184.86 186.38 185.646 185.574 186.431 184.769C180.835 181.299 172.854 184.925 167.25 181.469C164.75 179.927 163.093 177.149 160.383 176.017C157.798 174.937 154.853 175.595 152.134 176.268C150.35 176.709 148.476 177.198 147.16 178.481C147.197 177.191 148.422 176.257 149.628 175.797C150.834 175.338 152.172 175.125 153.187 174.328C154.216 173.52 154.742 172.242 155.554 171.215C156.366 170.189 157.805 169.379 158.952 170.01C158.598 167.283 160.915 165.059 162.485 162.803C164.273 160.233 165.229 157.093 165.176 153.962C163.184 155.021 162.288 157.751 163.265 159.785C163.699 160.689 162.835 161.829 161.835 161.9C160.836 161.971 159.918 161.235 159.467 160.341C159.015 159.446 158.932 158.416 158.865 157.416C158.77 156.003 158.69 154.561 159.054 153.192C159.743 150.599 161.906 148.67 164.151 147.201C166.395 145.731 168.859 144.528 170.741 142.616C172.817 140.506 174.047 137.586 174.106 134.627C174.972 138.57 172.93 142.97 169.36 144.854C166.203 146.519 162.993 148.408 161.016 151.38C159.039 154.352 158.688 158.703 161.143 161.295C160.74 159.189 161.303 156.918 162.643 155.244C163.727 153.889 165.243 152.959 166.742 152.084C170.216 150.053 173.773 148.163 177.4 146.419C177.153 145.483 177.928 144.421 178.894 144.371C177.803 142.633 178.839 139.971 180.817 139.428C180.234 140.173 179.633 140.953 179.44 141.88C179.246 142.806 179.595 143.919 180.465 144.289C178.752 144.3 178.456 147.031 176.882 147.71C173.642 149.107 170.503 150.737 167.497 152.584C167.275 152.72 167.046 152.871 166.831 153.038C166.873 153.038 166.916 153.049 166.961 153.075C167.191 154.647 167.22 156.248 167.049 157.827C167.025 158.048 166.927 158.331 166.704 158.32C166.477 158.31 166.411 158.01 166.411 157.784L166.404 153.779C166.404 153.629 166.444 153.452 166.514 153.309C166.097 153.704 165.796 154.175 165.821 154.735C165.953 157.686 165.091 160.673 163.406 163.099C165.267 161.478 167.127 159.858 168.988 158.237C169.587 157.716 170.868 157.468 170.852 158.261C168.003 160.157 165.107 162.094 162.947 164.75C160.788 167.406 159.439 170.941 160.19 174.281C159.357 173.97 159.284 172.856 159.086 171.989C158.889 171.121 157.833 170.214 157.241 170.877C155.837 172.45 154.433 174.022 153.029 175.594C156.137 173.671 160.535 174.173 163.13 176.747C166.568 180.158 171.254 183.405 175.898 182.034C180.095 180.796 182.547 176.208 186.649 174.685C182.9 165.61 182.108 155.34 184.423 145.797C185.072 143.12 185.966 140.414 185.675 137.675C185.223 133.429 182.034 129.963 180.972 125.827C180.519 127.024 179.344 127.914 178.07 128.027C179.529 126.156 180.989 124.285 182.449 122.415C184.682 119.552 185.185 115.433 183.688 112.125C182.191 108.816 178.755 106.472 175.129 106.303C175.586 106.745 176.043 107.188 176.5 107.631C175.667 107.921 174.834 108.21 174.001 108.5C173.844 107.939 173.688 107.378 173.532 106.817C174.154 106.313 174.777 105.81 175.4 105.306C174.21 105.576 173.02 105.845 171.831 106.114C172.854 105.013 174.346 104.362 175.85 104.362ZM114.196 57.1354C110.7 59.6434 107.829 62.9025 104.991 66.1314C104.278 66.969 105.622 68.0112 106.695 68.2619C111.513 69.3874 116.517 69.7184 121.443 69.2372C120.127 71.0962 117.445 71.3214 115.188 70.9831C112.93 70.6448 110.61 69.9277 108.415 70.552C112.904 72.5065 117.708 73.7404 122.586 74.1918L120.941 75.1547C124.248 76.9337 125.264 81.3574 124.447 85.0127C123.63 88.668 121.43 91.8341 119.658 95.1365C116.473 101.071 114.592 107.696 114.184 114.413C118.704 112.775 120.247 107.234 120.671 102.46C121.096 97.6865 121.289 92.3142 124.824 89.0638C122.138 95.1191 121.175 101.923 122.078 108.482C118.311 111.902 114.545 115.323 110.778 118.743C108.019 121.248 109.393 125.749 110.96 129.125C111.15 129.535 111.362 129.971 111.753 130.201C112.721 130.773 113.907 129.62 114.008 128.503C114.109 127.387 113.624 126.29 113.643 125.169C113.662 124.048 114.612 122.767 115.681 123.116C114.521 122.093 115.931 120.275 117.288 119.531C120.891 117.553 124.961 116.423 129.072 116.26C130.312 116.211 130.868 114.737 131.262 113.565C131.656 112.393 132.726 111.041 133.853 111.558C131.814 104.415 135.939 96.9813 135.841 89.5563C138.344 96.5631 131.786 104.746 135.064 111.428C133.788 112.243 132.512 113.058 131.236 113.872C132.306 114.307 133.217 115.119 133.77 116.13C127.522 116.719 121.387 118.472 115.776 121.272C116.951 122.041 116.57 124.214 115.202 124.539C113.175 133.016 114.118 142.168 117.831 150.057C118.447 146.743 120.765 143.79 123.845 142.396C120.645 144.925 118.765 148.836 118.006 152.834C117.247 156.833 117.511 160.951 117.952 164.997C118.432 169.393 119.119 173.766 120.01 178.098C120.616 181.048 121.32 184.091 120.691 187.037C120.063 189.982 117.653 192.802 114.631 192.799C116.639 193.975 119.055 194.445 121.36 194.109C123.538 193.791 124.473 191.105 124.32 188.917C124.167 186.728 123.402 184.491 124.049 182.394C124.371 181.351 125.021 180.438 125.416 179.42C126.124 177.594 125.968 175.568 126.004 173.611C126.085 169.215 127.202 164.84 129.241 160.941C129.594 161.634 129.466 162.54 128.936 163.11C137.557 156.16 142.707 145.128 142.488 134.08L141.756 135.255C142.413 123.895 143.07 112.536 143.728 101.177C143.89 98.3671 144.051 95.5298 143.589 92.7536C142.274 84.8681 136.031 77.8882 136.952 69.9475C135.11 69.3233 133.268 68.6991 131.427 68.0748C133.957 68.2756 136.488 68.4764 139.018 68.6772C139.432 68.7101 139.907 68.7214 140.194 68.4221C140.488 68.1154 140.445 67.627 140.354 67.2126C139.217 61.9911 134.137 58.7332 129.497 56.0537C132.057 56.438 134.467 57.7452 136.18 59.6784C134.616 55.8012 130.408 53.3945 126.221 53.1508C121.92 52.9004 117.692 54.6273 114.196 57.1354ZM207.927 190.635C206.037 192.163 203.449 192.372 201.056 192.792C200.645 192.865 200.149 193.028 200.082 193.44C200.519 193.71 201.067 193.7 201.579 193.67C205.783 193.428 209.945 192.478 213.838 190.871C213.619 190.368 212.895 190.433 212.367 190.582C211.972 190.694 211.578 190.806 211.183 190.917C210.733 191.045 210.241 191.17 209.81 190.989C209.379 190.807 209.133 190.168 209.485 189.86C208.892 189.779 208.392 190.258 207.927 190.635ZM128.244 166.708C127.463 169.35 127.111 172.159 127.593 174.871C128.298 178.838 130.695 182.26 132.841 185.674C133.5 186.722 134.166 187.915 133.916 189.126C133.646 190.439 132.408 191.292 131.27 192.006C133.157 192.917 135.303 191.541 136.941 190.237C137.189 190.039 137.455 189.813 137.509 189.501C137.559 189.215 137.416 188.934 137.278 188.678C135.699 185.755 134.121 182.831 132.543 179.908L132.507 177.853C132.486 176.657 132.463 175.45 132.171 174.29C131.472 171.523 129.333 169.347 128.244 166.708ZM85.0719 190.531C85.2067 190.654 85.2781 190.837 85.4175 190.954C85.6317 191.134 85.9398 191.112 86.2154 191.149C86.491 191.185 86.8093 191.368 86.7854 191.649C86.0032 192.077 84.9652 191.955 84.2994 191.357C84.097 191.149 84.0935 190.775 84.2918 190.563C84.4902 190.351 84.8573 190.336 85.0719 190.531ZM198.103 188.889C198.282 188.919 198.513 189.023 198.473 189.201C198.453 189.289 198.369 189.345 198.291 189.391C197.363 189.931 196.309 190.252 195.239 190.322C194.851 190.347 194.521 190.595 194.223 190.851L194.155 190.91C193.839 191.185 193.497 191.477 193.081 191.522C192.664 191.567 192.186 191.223 192.266 190.811C192.336 190.446 192.754 190.282 193.11 190.182C193.756 190 194.401 189.817 195.046 189.635C195.132 189.521 195.164 189.367 195.13 189.228L190.485 189.296C190.308 189.299 190.12 189.299 189.97 189.205C189.82 189.11 189.738 188.885 189.853 188.751C192.589 188.385 195.38 188.432 198.103 188.889ZM186.881 171.855C186.393 172.527 186.69 173.531 187.305 174.089C187.92 174.646 188.759 174.869 189.564 175.074C190.328 175.268 191.092 175.462 191.856 175.656C192.064 175.709 192.303 175.756 192.476 175.631C192.582 175.554 192.602 175.39 192.553 175.279L192.546 175.265L192.963 175.508C199.191 179.104 205.755 182.118 212.54 184.499C213.604 184.872 213.846 186.389 213.284 187.367C212.721 188.345 211.654 188.898 210.64 189.392C210.239 189.586 209.901 190.285 210.344 190.319C211.62 189.702 213.093 189.499 214.488 189.749C215.763 189.976 217.009 188.84 217.192 187.558C217.374 186.276 216.696 184.99 215.733 184.125C214.769 183.26 213.55 182.743 212.346 182.267C204.869 179.314 196.914 177.308 190.164 172.943C189.349 172.416 188.127 171.912 187.55 172.693L186.881 171.855ZM146.182 184.108C147.65 186.07 149.743 187.56 152.082 188.307C152.795 188.535 153.558 188.696 154.29 188.539C154.276 188.182 153.821 188.054 153.467 187.992C152.135 187.761 150.887 187.074 149.982 186.073C149.527 185.571 149.15 184.987 148.605 184.583C147.923 184.077 147.008 183.907 146.182 184.108ZM97.5811 181.341C98.2448 181.378 97.8533 182.645 98.415 183.001C98.6391 183.144 98.9289 183.076 99.1898 183.029C100.738 182.75 102.419 183.462 103.3 184.769C103.52 185.097 103.306 185.576 102.959 185.766C102.613 185.956 102.193 185.934 101.801 185.888C101.189 185.817 100.763 186.476 100.551 187.056C100.339 187.636 100.089 188.327 99.4923 188.479C99.0345 188.596 98.5684 188.328 98.209 188.021C97.8496 187.714 97.5169 187.345 97.0684 187.196C96.62 187.047 96.0105 187.245 95.9346 187.713C95.8524 188.219 95.159 188.287 94.6508 188.225L92.8354 188.005C92.7253 187.504 93.4362 187.252 93.9436 187.318C94.451 187.385 95.098 187.487 95.3577 187.045C95.4921 186.816 95.4594 186.508 95.6251 186.301C95.899 185.959 96.4429 186.144 96.8264 186.355C97.2368 186.581 97.6471 186.808 98.0574 187.034C98.4333 187.241 98.8394 187.455 99.2662 187.412C99.6931 187.369 100.105 186.941 99.9621 186.535C99.7799 186.017 100.33 185.519 100.862 185.387C101.393 185.255 101.982 185.301 102.454 185.022C101.525 183.836 99.6815 183.496 98.3922 184.273C98.0049 184.507 97.645 183.904 97.6479 183.451C97.6508 182.998 97.6289 182.386 97.1859 182.296C96.8485 182.228 96.5787 182.553 96.3363 182.797C96.0939 183.042 95.6328 183.21 95.4505 182.918C95.6807 181.986 96.6253 181.287 97.5811 181.341ZM112.99 184.142C113.622 184.377 114.308 184.657 114.611 185.238C114.914 185.819 114.479 186.726 113.812 186.611C113.706 186.466 113.701 186.261 113.8 186.112C113.882 185.99 114.03 185.893 114.034 185.748C114.038 185.6 113.89 185.496 113.758 185.418C113.069 185.013 112.38 184.609 111.691 184.204C111.978 183.851 112.555 183.98 112.99 184.142ZM136.666 185.581L136.67 185.712C136.68 185.96 136.844 186.195 137.074 186.291C137.238 186.006 136.997 185.584 136.666 185.581ZM89.428 183.677C88.8829 184.246 88.1499 184.596 87.3977 184.645C87.6 184.88 87.7656 185.153 87.8853 185.448C87.3786 185.639 86.9028 185.112 86.5814 184.643C86.4568 184.461 86.3323 184.198 86.4687 184.027C86.5226 183.959 86.6047 183.928 86.6832 183.901C87.5675 183.604 88.513 183.526 89.428 183.677ZM140.172 150.669C138.797 153.172 137.17 155.539 135.325 157.721C134.985 158.123 135.214 158.73 135.447 159.201C139.067 166.52 140.735 174.691 144.514 181.93C144.839 182.553 145.242 183.222 145.915 183.434C146.588 183.645 147.485 183.014 147.222 182.362C143.137 172.235 139.495 161.562 140.172 150.669ZM89.275 175.73C89.4513 175.852 89.4502 176.122 89.4376 176.346C89.3574 177.776 89.6253 179.227 90.2081 180.519C90.4041 180.953 91.0383 180.812 91.3718 180.487C91.7054 180.162 91.9797 179.699 92.4255 179.618C92.8973 179.533 93.3442 179.955 93.4928 180.44C93.6414 180.925 93.5674 181.451 93.492 181.954C93.4461 182.261 93.3811 182.601 93.1421 182.778C92.903 182.956 92.4658 182.768 92.5333 182.466L92.7998 181.274C92.8343 181.12 92.8676 180.951 92.8031 180.808C92.6935 180.565 92.362 180.541 92.1348 180.661C91.9076 180.781 91.7382 180.996 91.5246 181.141C90.8405 181.607 89.8762 181.205 89.3975 180.506C88.9189 179.808 88.8006 178.91 88.697 178.052C88.2764 179.488 88.1395 181.017 88.2977 182.512C88.085 182.733 87.7856 182.35 87.7212 182.041C87.3073 180.054 87.6152 177.906 88.567 176.141C88.7179 175.861 89.0216 175.553 89.275 175.73ZM101.88 179.061C100.874 179.465 100.03 180.247 99.5588 181.211C99.4543 181.425 99.0852 181.348 98.9876 181.13C98.8901 180.913 98.9798 180.661 99.091 180.45C99.3803 179.901 99.8198 179.431 100.351 179.1C99.7284 179.054 99.1062 179.008 98.484 178.962C99.3728 178.065 101.047 178.114 101.88 179.061ZM94.0781 177.572C94.531 177.64 94.8764 177.993 95.1637 178.341C94.8753 178.369 94.5982 178.496 94.3919 178.694C94.7497 179.069 95.1075 179.444 95.4653 179.819C94.4862 179.915 93.4858 179.251 93.2196 178.327C93.0957 177.897 93.6252 177.504 94.0781 177.572ZM200.349 141.354C203.372 150.714 205.016 160.506 205.213 170.327C207.112 168.65 209.571 167.601 212.11 167.385C210.776 167.854 209.92 169.153 209.446 170.469C208.972 171.785 208.778 173.192 208.235 174.482C212.399 173.206 216.956 173.212 221.117 174.497C217.55 175.515 214.181 177.206 211.247 179.451C210.737 179.167 211.181 178.404 211.65 178.058C213.544 176.662 215.647 175.541 217.869 174.745C214.334 174.049 210.612 174.302 207.207 175.469C207.831 173.355 208.365 171.214 208.807 169.055C206.371 170.187 204.146 171.758 202.273 173.666C201.786 173.23 202.493 172.547 202.996 172.128C204.345 171.003 204.401 169.004 204.312 167.264C203.967 160.528 203.068 153.782 201.007 147.351C201.2 154.6 199.711 161.888 196.686 168.498C196.546 168.805 196.064 169.112 195.958 168.791C196.052 168.425 196.146 168.059 196.24 167.693C195.354 166.566 194.934 165.092 195.095 163.675C193.512 165.547 192.136 167.589 190.998 169.753C190.497 169.883 190.453 169.043 190.699 168.593C192.038 166.138 193.733 163.873 195.715 161.885C195.931 163.622 196.147 165.358 196.363 167.095C199.85 159.168 201.042 150.274 199.761 141.727C199.806 141.472 200.096 141.288 200.349 141.354ZM99.8182 175.384C100.023 175.507 100.068 175.851 99.845 175.942C99.4835 176.088 99.5426 176.577 99.6303 176.937C99.7179 177.297 99.6508 177.818 99.2576 177.84C98.9161 177.859 98.7443 177.457 98.7253 177.136C98.7063 176.816 98.6968 176.426 98.3973 176.271C97.4556 176.828 96.5139 177.385 95.5723 177.942C95.3006 177.64 95.5961 177.189 95.9062 176.922C96.8047 176.149 97.9206 175.6 99.1095 175.347C99.3467 175.296 99.6132 175.262 99.8182 175.384ZM184.495 173.884C184.577 174.022 184.398 174.279 184.342 174.116L184.341 174.1C184.244 174.096 184.154 173.984 184.139 173.847C184.258 173.786 184.412 173.746 184.495 173.884ZM55.9166 160.742C55.851 161.77 55.8526 162.802 55.9213 163.83C55.9855 164.79 56.1649 165.851 56.9273 166.442C57.1697 166.63 57.6016 166.709 57.722 166.428C57.7514 166.359 57.7531 166.282 57.7536 166.207C57.7656 164.598 57.4603 162.987 56.8601 161.492C56.6943 161.079 56.3382 160.596 55.9166 160.742ZM114.607 143.976L114.077 148.381C113.91 149.775 113.742 151.179 113.848 152.579C113.987 154.427 114.597 156.203 115.219 157.949C115.61 159.046 116.042 160.191 116.925 160.954C116.407 158.086 116.532 155.105 117.289 152.291C117.356 152.042 117.428 151.79 117.424 151.532C117.417 151.135 117.23 150.766 117.057 150.409C116.024 148.276 115.338 145.976 115.036 143.627C114.904 143.424 114.636 143.735 114.607 143.976ZM161.993 158.079C161.827 158.898 162.103 159.793 162.702 160.376C162.723 159.561 162.47 158.741 161.993 158.079ZM173.951 101.443C173.332 104.163 170.331 105.337 167.973 106.716C166.297 107.696 164.786 108.975 163.527 110.479C163.228 110.836 162.678 110.567 162.252 110.396C160.918 109.86 159.303 110.71 158.698 112.046C158.092 113.383 158.376 115.021 159.16 116.255C159.944 117.489 161.161 118.368 162.44 119.029C162.842 118.834 162.719 118.169 162.369 117.888C162.019 117.607 161.549 117.535 161.177 117.285C160.831 117.054 160.594 116.686 160.387 116.318C159.769 115.218 159.326 113.864 159.802 112.691C160.279 111.519 162.043 110.964 162.773 111.989C163.884 113.548 161.368 115.985 162.518 117.514C162.409 116.764 162.832 115.965 163.503 115.654C163.459 117.056 163.414 118.458 163.37 119.86C163.706 119.504 164.173 119.281 164.655 119.249C164.702 120.536 164.849 121.819 165.093 123.082C165.386 122.891 165.523 122.479 165.405 122.143L173.739 129.783C171.923 128.936 170.229 127.815 168.726 126.467C170.226 129.31 168.763 132.747 167.87 135.849C167.114 138.476 166.786 141.232 166.904 143.969C166.366 143.396 165.432 143.819 164.815 144.301C162.834 145.851 161.153 147.806 159.898 150.019C159.745 149.753 159.759 149.42 159.815 149.116C160.169 147.187 161.874 145.895 163.378 144.69C164.882 143.485 166.437 141.867 166.281 139.91C166.07 137.267 167.289 134.76 168.032 132.221C168.776 129.682 168.908 126.554 167.012 124.759C166.356 124.138 165.518 123.748 164.857 123.131C164.195 122.515 163.72 121.515 164.096 120.681C163.775 120.873 163.455 121.065 163.134 121.258C163.045 119.969 161.581 119.395 160.479 118.778C158.589 117.719 157.208 115.58 157.359 113.369C157.511 111.158 159.439 109.122 161.587 109.246C162.509 109.3 163.693 109.592 164.151 108.765C165.843 105.713 170.231 105.361 172.224 102.508C172.658 101.887 173.31 101.054 173.951 101.443ZM112.098 131.679L112.048 131.786C112.211 131.824 112.374 131.863 112.537 131.901C112.75 131.674 112.703 131.225 112.406 131.128C112.109 131.031 111.826 131.526 112.098 131.679ZM166.862 120.587C166.893 121.048 167.041 121.502 167.29 121.9C167.288 121.615 167.766 121.538 167.973 121.745C168.18 121.952 168.181 122.271 168.169 122.555C169.127 122.455 169.81 123.357 170.528 123.966C172.201 125.384 174.696 125.385 176.939 125.265C177.559 125.231 178.383 125.34 178.479 125.92C177.425 126.276 176.278 126.275 175.16 126.22C173.413 126.134 171.643 125.916 170.049 125.234C168.455 124.552 167.045 123.348 166.487 121.779C166.328 121.33 166.368 120.665 166.862 120.587ZM168.112 118.701C168.746 120.376 171.045 121.251 172.71 120.45C173.007 120.307 173.29 120.118 173.617 120.059C174.168 119.96 174.704 120.245 175.217 120.46C175.941 120.762 176.75 120.941 177.524 120.788C178.297 120.635 179.019 120.098 179.202 119.364C179.249 119.175 179.266 118.967 179.397 118.818C179.528 118.67 179.834 118.653 179.898 118.838C180.269 119.899 179.443 121.089 178.351 121.493C177.26 121.897 176.021 121.682 174.927 121.284C174.56 121.15 174.183 120.993 173.791 121.021C173.396 121.049 173.047 121.26 172.686 121.415C171.012 122.135 168.837 121.533 167.823 120.07C167.656 119.829 167.514 119.552 167.539 119.263C167.563 118.975 167.81 118.688 168.112 118.701ZM185.332 117.362C185.234 117.835 185.297 118.339 185.51 118.772C185.841 118.619 186.04 118.225 185.967 117.868L185.969 117.866C185.964 117.557 185.635 117.296 185.332 117.362ZM173.637 116.442C173.918 116.481 174.144 116.719 174.343 116.954C174.746 117.429 175.119 117.937 175.46 118.474C174.469 118.753 173.425 118.775 172.426 118.538C172.118 118.465 171.991 117.988 172.105 117.644C172.219 117.301 172.488 117.068 172.744 116.854C173.011 116.631 173.312 116.397 173.637 116.442ZM173.071 117.878L173.166 117.926L173.826 117.778C173.899 117.657 173.927 117.499 173.901 117.354C173.572 117.164 173.117 117.451 173.071 117.878ZM160.696 112.575C160.325 112.956 160.251 113.564 160.372 114.09C160.584 115.013 161.302 115.765 161.426 116.704C161.683 116.632 161.797 116.311 161.78 116.036C161.763 115.761 161.656 115.498 161.645 115.223C161.607 114.304 162.599 113.353 162.08 112.604C161.775 112.164 161.068 112.193 160.696 112.575ZM179.892 109.272C180.947 109.345 181.767 110.265 182.337 111.207C182.798 111.969 183.183 112.896 182.922 113.757C182.571 114.916 181.278 115.365 180.16 115.648L178.985 115.946C178.672 116.025 178.346 116.105 178.033 116.028C177.6 115.922 177.283 115.542 176.995 115.183C176.413 114.456 175.797 113.629 175.839 112.676C175.888 111.567 176.803 110.743 177.677 110.131C178.346 109.663 179.093 109.216 179.892 109.272ZM171.383 110.787C172.388 111.497 173.032 112.745 172.753 113.909C172.474 115.074 171.116 115.969 169.93 115.596C168.842 115.255 167.717 114.88 166.908 114.106C166.098 113.332 165.711 112.038 166.337 111.121C166.687 110.607 167.292 110.295 167.912 110.142C169.092 109.852 170.402 110.095 171.383 110.787ZM179.981 110.572C179.321 110.66 178.644 110.703 178.023 110.957C177.402 111.211 176.83 111.728 176.697 112.419C176.525 113.314 177.11 114.156 177.661 114.859C177.919 115.189 178.391 115.188 178.791 115.128C180.008 114.948 181.187 114.481 182.217 113.772C181.696 113.644 181.174 113.516 180.652 113.389C180.722 113.056 181.154 113.041 181.475 113.053C181.796 113.066 182.235 112.851 182.118 112.534C181.625 112.378 181.107 112.308 180.592 112.328C180.44 112.334 180.262 112.365 180.195 112.509C180.142 112.621 180.18 112.753 180.204 112.876C180.359 113.695 179.628 114.559 178.842 114.486C178.057 114.412 177.481 113.425 177.769 112.648C178.057 111.87 179.113 111.562 179.736 112.075C179.875 111.942 179.861 111.673 179.709 111.557C180.168 111.223 180.77 111.12 181.305 111.285C181.368 110.982 181.128 110.685 180.851 110.586C180.574 110.487 180.272 110.534 179.981 110.572ZM168.336 111.026C167.566 111.123 166.657 111.628 166.797 112.359C166.894 112.873 167.518 113.173 168.058 113.101C168.599 113.03 169.055 112.685 169.437 112.313L167.837 112.439C167.628 112.455 167.321 112.358 167.397 112.171C167.418 112.119 167.467 112.083 167.516 112.051C168.209 111.606 169.211 111.665 169.843 112.187C170.46 112.382 171.056 112.82 171.163 113.434C171.27 114.047 170.638 114.738 170.023 114.536C169.969 114.992 170.701 115.133 171.116 114.905C172.118 114.357 172.212 112.871 171.483 112.015C170.754 111.159 169.48 110.882 168.336 111.026ZM167.936 113.37C167.855 113.981 168.534 114.563 169.159 114.42C168.975 113.949 168.563 113.565 168.065 113.402L167.936 113.37ZM169.483 113.674L170.148 114.203L170.167 114.107C170.448 113.962 170.469 113.514 170.203 113.345C169.937 113.176 169.514 113.369 169.483 113.674ZM178.95 112.743C178.599 112.778 178.395 113.304 178.627 113.584L178.56 113.59C178.773 113.888 179.285 113.841 179.439 113.506C179.594 113.17 179.3 112.709 178.95 112.743ZM104.982 70.4407C104.548 70.983 104.403 71.6944 104.302 72.3801C103.79 75.8526 104.088 79.4411 105.165 82.7827C105.359 83.3858 105.589 83.9987 106.023 84.4622C107.207 85.7295 109.255 85.3736 110.969 85.0827C112.563 84.8121 114.182 84.6861 115.799 84.7068C116.548 84.7164 117.287 84.546 118.017 84.3765C119.946 83.9286 121.875 83.4806 123.804 83.0327C123.829 80.4658 122.789 77.9048 120.982 76.0758C120.71 75.8012 120.287 75.529 119.971 75.7513C120.319 76.1024 120.215 76.7806 119.778 77.013C119.258 76.8233 119.443 76.055 119.298 75.5227C119.11 74.8378 118.317 74.5402 117.623 74.3784C114.062 73.5482 109.922 73.4067 107.556 70.6286C107.336 70.3701 107.128 70.0858 106.83 69.923C106.22 69.5903 105.415 69.8985 104.982 70.4407ZM130.574 59.8646C132.637 60.8277 134.47 62.3274 135.862 64.1917C136.05 64.4435 136.239 64.733 136.215 65.0519C136.171 65.6315 135.506 65.8821 134.963 65.9975C134.001 66.2018 133.039 66.4062 132.077 66.6105C131.726 66.6852 131.172 66.5243 131.316 66.1795C132.474 65.4372 133.864 65.0993 135.216 65.2311C135.324 64.9965 135.194 64.7206 135.051 64.5076C134.579 63.804 133.931 63.2539 133.293 62.7135C132.255 61.8355 131.218 60.9575 130.18 60.0796C130.202 59.8986 130.421 59.7794 130.574 59.8646ZM122.996 57.0148C123.902 57.4329 124.23 58.5165 124.394 59.4835C124.496 60.0842 124.574 60.6993 124.473 61.3002C124.296 62.352 123.573 63.2705 122.654 63.8435C121.735 64.4165 120.639 64.6705 119.551 64.7287C117.031 64.8637 114.471 63.9506 112.631 62.2612C111.83 61.5259 111.938 60.1732 112.611 59.3242C113.285 58.4751 114.362 58.0363 115.421 57.7512C116.62 57.4284 117.855 57.2567 119.086 57.0858C119.932 56.9684 120.779 56.8509 121.632 56.8224C122.096 56.8069 122.576 56.8213 122.996 57.0148ZM112.945 60.4343C112.668 60.9178 113.125 61.4785 113.544 61.8514C114.366 62.5817 115.396 63.3668 116.469 63.0869C117.188 62.8992 117.961 62.2594 118.561 62.6906C118.51 62.9231 118.237 63.0352 117.996 63.0655C117.755 63.0958 117.492 63.0882 117.295 63.2276C117.098 63.367 117.07 63.7342 117.303 63.801C118.064 64.0191 118.773 63.3781 119.314 62.8113C119.856 62.2445 120.633 61.6469 121.359 61.9581C121.455 61.9995 121.556 62.0734 121.557 62.1764C121.559 62.3266 121.367 62.3909 121.218 62.4238C120.418 62.5991 119.704 63.1152 119.297 63.8107C120.361 63.6587 121.316 63.1078 122.239 62.5681C122.892 62.1864 123.609 61.7174 123.741 60.9844C122.829 61.2482 121.88 61.3911 120.929 61.408C118.938 61.4434 117.002 62.6427 115.061 62.2078C114.57 62.0978 114.232 61.6705 113.937 61.2715C114.243 60.9841 114.734 61.2211 115.134 61.3594C115.534 61.4977 116.177 61.2861 116.028 60.8973C115.558 60.7017 115.088 60.5061 114.619 60.3105C114.052 60.0745 113.247 59.9088 112.945 60.4343ZM117.415 60.6217C117.275 60.6407 117.121 60.6774 117.047 60.7945C116.941 60.9639 117.086 61.1978 117.278 61.2624C117.47 61.327 117.681 61.2749 117.877 61.2226C118.361 61.0933 118.845 60.9641 119.33 60.8348C118.723 60.6081 118.058 60.5341 117.415 60.6217ZM121.848 59.7889C121.105 60.0621 120.33 60.3565 119.809 60.9421C120.971 60.7446 122.154 60.6641 123.333 60.7024C123.75 60.5206 123.594 59.832 123.176 59.6534C122.757 59.4748 122.276 59.6317 121.848 59.7889ZM122.443 58.153C122.03 58.1857 121.662 58.4072 121.276 58.5547C120.181 58.9736 118.957 58.7916 117.783 58.7297C116.751 58.6752 115.71 58.7194 114.697 58.9187C114.153 59.0258 113.516 59.2852 113.447 59.8246C114.376 59.398 115.457 59.5503 116.48 59.6242C118.796 59.7914 121.145 59.5027 123.346 58.7804C123.337 58.3754 122.855 58.1202 122.443 58.153ZM106.113 58.2846C105.839 58.4057 105.557 58.5735 105.447 58.8517C105.338 59.1299 105.516 59.5222 105.816 59.5139C106.725 58.8804 107.873 58.5974 108.974 58.7358C109.322 58.7796 109.678 58.4972 109.714 58.149C108.554 57.7383 107.238 57.7879 106.113 58.2846ZM118.107 53.5301L118.109 53.5709C117.767 53.4491 117.345 53.6372 117.207 53.9727C117.772 53.9335 118.331 53.8122 118.861 53.614C118.859 53.3035 118.369 53.3626 118.107 53.5301ZM125.332 52.286C125.102 52.3906 125.372 52.8199 125.567 52.6589L125.572 52.6768C125.746 52.5378 125.535 52.1944 125.332 52.286Z" fill="#00160A"/>
</svg>
